Mono_opsz8.ufo
<glyph name="quotedbl" format="2">
  <advance width="1062"/>
  <unicode hex="0022"/>
  <outline>
    <contour>
      <point x="448" y="1146" type="line"/>
      <point x="448" y="1214"/>
      <point x="396" y="1246"/>
      <point x="350" y="1246" type="curve" smooth="yes"/>
      <point x="310" y="1246"/>
      <point x="254" y="1218"/>
      <point x="254" y="1148" type="curve"/>
      <point x="284" y="740" type="line" smooth="yes"/>
      <point x="286" y="700"/>
      <point x="290" y="654"/>
      <point x="350" y="654" type="curve" smooth="yes"/>
      <point x="412" y="654"/>
      <point x="416" y="702"/>
      <point x="418" y="732" type="curve" smooth="yes"/>
    </contour>
    <contour>
      <point x="806" y="1148" type="line"/>
      <point x="806" y="1218"/>
      <point x="750" y="1246"/>
      <point x="710" y="1246" type="curve" smooth="yes"/>
      <point x="664" y="1246"/>
      <point x="612" y="1214"/>
      <point x="612" y="1146" type="curve"/>
      <point x="642" y="740" type="line" smooth="yes"/>
      <point x="646" y="698"/>
      <point x="648" y="654"/>
      <point x="710" y="654" type="curve" smooth="yes"/>
      <point x="770" y="654"/>
      <point x="774" y="700"/>
      <point x="776" y="738" type="curve" smooth="yes"/>
    </contour>
  </outline>
</glyph>
<glyph name="numbersign" format="2">
  <advance width="1062"/>
  <unicode hex="0023"/>
  <outline>
    <contour>
      <point x="798" y="750" type="line"/>
      <point x="890" y="750" type="line" smooth="yes"/>
      <point x="912" y="750"/>
      <point x="990" y="750"/>
      <point x="990" y="826" type="curve" smooth="yes"/>
      <point x="990" y="904"/>
      <point x="914" y="904"/>
      <point x="890" y="904" type="curve" smooth="yes"/>
      <point x="820" y="904" type="line"/>
      <point x="846" y="1118" type="line" smooth="yes"/>
      <point x="856" y="1198"/>
      <point x="808" y="1222"/>
      <point x="770" y="1222" type="curve" smooth="yes"/>
      <point x="702" y="1222"/>
      <point x="694" y="1156"/>
      <point x="692" y="1134" type="curve" smooth="yes"/>
      <point x="664" y="904" type="line"/>
      <point x="472" y="904" type="line"/>
      <point x="498" y="1118" type="line" smooth="yes"/>
      <point x="508" y="1198"/>
      <point x="460" y="1222"/>
      <point x="422" y="1222" type="curve" smooth="yes"/>
      <point x="354" y="1222"/>
      <point x="346" y="1156"/>
      <point x="344" y="1134" type="curve" smooth="yes"/>
      <point x="316" y="904" type="line"/>
      <point x="170" y="904" type="line" smooth="yes"/>
      <point x="148" y="904"/>
      <point x="70" y="904"/>
      <point x="70" y="828" type="curve" smooth="yes"/>
      <point x="70" y="750"/>
      <point x="146" y="750"/>
      <point x="170" y="750" type="curve" smooth="yes"/>
      <point x="296" y="750" type="line"/>
      <point x="262" y="472" type="line"/>
      <point x="170" y="472" type="line" smooth="yes"/>
      <point x="146" y="472"/>
      <point x="70" y="472"/>
      <point x="70" y="394" type="curve" smooth="yes"/>
      <point x="70" y="318"/>
      <point x="148" y="318"/>
      <point x="170" y="318" type="curve" smooth="yes"/>
      <point x="240" y="318" type="line"/>
      <point x="236" y="284"/>
      <point x="212" y="96"/>
      <point x="212" y="78" type="curve" smooth="yes"/>
      <point x="212" y="34"/>
      <point x="246" y="0"/>
      <point x="290" y="0" type="curve" smooth="yes"/>
      <point x="356" y="0"/>
      <point x="364" y="52"/>
      <point x="372" y="126" type="curve" smooth="yes"/>
      <point x="378" y="168"/>
      <point x="392" y="284"/>
      <point x="396" y="318" type="curve"/>
      <point x="588" y="318" type="line"/>
      <point x="584" y="284"/>
      <point x="560" y="96"/>
      <point x="560" y="78" type="curve" smooth="yes"/>
      <point x="560" y="34"/>
      <point x="594" y="0"/>
      <point x="638" y="0" type="curve" smooth="yes"/>
      <point x="704" y="0"/>
      <point x="712" y="52"/>
      <point x="720" y="126" type="curve" smooth="yes"/>
      <point x="726" y="168"/>
      <point x="740" y="284"/>
      <point x="744" y="318" type="curve"/>
      <point x="890" y="318" type="line" smooth="yes"/>
      <point x="912" y="318"/>
      <point x="990" y="318"/>
      <point x="990" y="394" type="curve" smooth="yes"/>
      <point x="990" y="472"/>
      <point x="914" y="472"/>
      <point x="890" y="472" type="curve" smooth="yes"/>
      <point x="764" y="472" type="line"/>
    </contour>
    <contour>
      <point x="450" y="750" type="line"/>
      <point x="644" y="750" type="line"/>
      <point x="610" y="472" type="line"/>
      <point x="416" y="472" type="line"/>
    </contour>
  </outline>
</glyph>
<glyph name="dollar" format="2">
  <advance width="1062"/>
  <unicode hex="0024"/>
  <outline>
    <contour>
      <point x="596" y="1096" type="line"/>
      <point x="694" y="1080"/>
      <point x="752" y="1038"/>
      <point x="778" y="974" type="curve"/>
      <point x="766" y="964"/>
      <point x="748" y="948"/>
      <point x="748" y="900" type="curve" smooth="yes"/>
      <point x="748" y="846"/>
      <point x="790" y="804"/>
      <point x="844" y="804" type="curve" smooth="yes"/>
      <point x="886" y="804"/>
      <point x="942" y="830"/>
      <point x="942" y="908" type="curve" smooth="yes"/>
      <point x="942" y="1014"/>
      <point x="888" y="1198"/>
      <point x="596" y="1230" type="curve"/>
      <point x="596" y="1302" type="line" smooth="yes"/>
      <point x="596" y="1332"/>
      <point x="596" y="1388"/>
      <point x="530" y="1388" type="curve" smooth="yes"/>
      <point x="464" y="1388"/>
      <point x="464" y="1330"/>
      <point x="464" y="1302" type="curve" smooth="yes"/>
      <point x="464" y="1228" type="line"/>
      <point x="258" y="1202"/>
      <point x="118" y="1058"/>
      <point x="118" y="900" type="curve" smooth="yes"/>
      <point x="118" y="810"/>
      <point x="170" y="626"/>
      <point x="464" y="572" type="curve"/>
      <point x="464" y="128" type="line"/>
      <point x="368" y="144"/>
      <point x="306" y="190"/>
      <point x="280" y="274" type="curve"/>
      <point x="298" y="288"/>
      <point x="312" y="314"/>
      <point x="312" y="346" type="curve" smooth="yes"/>
      <point x="312" y="398"/>
      <point x="274" y="442"/>
      <point x="216" y="442" type="curve" smooth="yes"/>
      <point x="168" y="442"/>
      <point x="118" y="414"/>
      <point x="118" y="338" type="curve" smooth="yes"/>
      <point x="118" y="226"/>
      <point x="178" y="26"/>
      <point x="464" y="-6" type="curve"/>
      <point x="464" y="-80" type="line" smooth="yes"/>
      <point x="464" y="-108"/>
      <point x="464" y="-166"/>
      <point x="530" y="-166" type="curve" smooth="yes"/>
      <point x="596" y="-166"/>
      <point x="596" y="-110"/>
      <point x="596" y="-80" type="curve" smooth="yes"/>
      <point x="596" y="-6" type="line"/>
      <point x="794" y="22"/>
      <point x="942" y="170"/>
      <point x="942" y="348" type="curve" smooth="yes"/>
      <point x="942" y="476"/>
      <point x="856" y="650"/>
      <point x="596" y="700" type="curve"/>
    </contour>
    <contour>
      <point x="464" y="726" type="line"/>
      <point x="346" y="750"/>
      <point x="258" y="820"/>
      <point x="258" y="910" type="curve" smooth="yes"/>
      <point x="258" y="976"/>
      <point x="316" y="1066"/>
      <point x="464" y="1094" type="curve"/>
    </contour>
    <contour>
      <point x="596" y="544" type="line"/>
      <point x="708" y="520"/>
      <point x="802" y="440"/>
      <point x="802" y="336" type="curve" smooth="yes"/>
      <point x="802" y="244"/>
      <point x="720" y="154"/>
      <point x="596" y="128" type="curve"/>
    </contour>
  </outline>
</glyph>
<glyph name="percent" format="2">
  <advance width="531"/>
  <unicode hex="0025"/>
  <outline>
    <contour>
      <point x="439" y="633" type="line" smooth="yes"/>
      <point x="443" y="644"/>
      <point x="445" y="649"/>
      <point x="445" y="655" type="curve" smooth="yes"/>
      <point x="445" y="679"/>
      <point x="425" y="694"/>
      <point x="407" y="694" type="curve" smooth="yes"/>
      <point x="381" y="694"/>
      <point x="373" y="675"/>
      <point x="367" y="660" type="curve" smooth="yes"/>
      <point x="91" y="-22" type="line" smooth="yes"/>
      <point x="87" y="-33"/>
      <point x="85" y="-38"/>
      <point x="85" y="-44" type="curve" smooth="yes"/>
      <point x="85" y="-66"/>
      <point x="102" y="-83"/>
      <point x="124" y="-83" type="curve" smooth="yes"/>
      <point x="149" y="-83"/>
      <point x="156" y="-64"/>
      <point x="161" y="-53" type="curve" smooth="yes"/>
    </contour>
    <contour>
      <point x="495" y="50" type="curve" smooth="yes"/>
      <point x="495" y="126"/>
      <point x="457" y="183"/>
      <point x="407" y="183" type="curve" smooth="yes"/>
      <point x="354" y="183"/>
      <point x="318" y="122"/>
      <point x="318" y="50" type="curve" smooth="yes"/>
      <point x="318" y="-22"/>
      <point x="354" y="-83"/>
      <point x="407" y="-83" type="curve" smooth="yes"/>
      <point x="457" y="-83"/>
      <point x="495" y="-26"/>
    </contour>
    <contour>
      <point x="407" y="-16" type="curve" smooth="yes"/>
      <point x="398" y="-16"/>
      <point x="380" y="8"/>
      <point x="380" y="50" type="curve" smooth="yes"/>
      <point x="380" y="94"/>
      <point x="399" y="116"/>
      <point x="406" y="116" type="curve" smooth="yes"/>
      <point x="415" y="116"/>
      <point x="433" y="92"/>
      <point x="433" y="50" type="curve" smooth="yes"/>
      <point x="433" y="6"/>
      <point x="414" y="-16"/>
    </contour>
    <contour>
      <point x="212" y="560" type="curve" smooth="yes"/>
      <point x="212" y="638"/>
      <point x="173" y="694"/>
      <point x="124" y="694" type="curve" smooth="yes"/>
      <point x="70" y="694"/>
      <point x="35" y="632"/>
      <point x="35" y="561" type="curve" smooth="yes"/>
      <point x="35" y="483"/>
      <point x="74" y="427"/>
      <point x="123" y="427" type="curve" smooth="yes"/>
      <point x="177" y="427"/>
      <point x="212" y="489"/>
    </contour>
    <contour>
      <point x="124" y="494" type="curve" smooth="yes"/>
      <point x="115" y="494"/>
      <point x="97" y="518"/>
      <point x="97" y="561" type="curve" smooth="yes"/>
      <point x="97" y="603"/>
      <point x="116" y="627"/>
      <point x="123" y="627" type="curve" smooth="yes"/>
      <point x="133" y="627"/>
      <point x="150" y="601"/>
      <point x="150" y="561" type="curve" smooth="yes"/>
      <point x="150" y="516"/>
      <point x="131" y="494"/>
    </contour>
  </outline>
</glyph>
<glyph name="quotesingle" format="2">
	<unicode hex="0027"/>
	<advance width="531"/>
	<outline>
		<contour>
			<point x="313" y="561" type="line" smooth="yes"/>
			<point x="317" y="620"/>
			<point x="276" y="623"/>
			<point x="265" y="623" type="curve" smooth="yes"/>
			<point x="234" y="623"/>
			<point x="214" y="602"/>
			<point x="217" y="561" type="curve" smooth="yes"/>
			<point x="231" y="365" type="line" smooth="yes"/>
			<point x="232" y="352"/>
			<point x="235" y="327"/>
			<point x="265" y="327" type="curve" smooth="yes"/>
			<point x="295" y="327"/>
			<point x="298" y="353"/>
			<point x="299" y="365" type="curve" smooth="yes"/>
		</contour>
	</outline>
</glyph>
<glyph name="parenleft" format="2">
	<unicode hex="0028"/>
	<advance width="531"/>
	<outline>
		<contour>
			<point x="441" y="-52" type="curve" smooth="yes"/>
			<point x="441" y="-35"/>
			<point x="430" y="-28"/>
			<point x="424" y="-24" type="curve" smooth="yes"/>
			<point x="377" y="6"/>
			<point x="342" y="41"/>
			<point x="317" y="78" type="curve" smooth="yes"/>
			<point x="259" y="160"/>
			<point x="247" y="249"/>
			<point x="248" y="305" type="curve" smooth="yes"/>
			<point x="248" y="345"/>
			<point x="254" y="419"/>
			<point x="295" y="495" type="curve" smooth="yes"/>
			<point x="332" y="564"/>
			<point x="376" y="603"/>
			<point x="427" y="637" type="curve" smooth="yes"/>
			<point x="439" y="645"/>
			<point x="441" y="657"/>
			<point x="441" y="663" type="curve" smooth="yes"/>
			<point x="441" y="676"/>
			<point x="432" y="694"/>
			<point x="408" y="694" type="curve" smooth="yes"/>
			<point x="387" y="694"/>
			<point x="304" y="644"/>
			<point x="242" y="547" type="curve" smooth="yes"/>
			<point x="202" y="485"/>
			<point x="172" y="405"/>
			<point x="172" y="306" type="curve" smooth="yes"/>
			<point x="172" y="195"/>
			<point x="209" y="108"/>
			<point x="255" y="44" type="curve" smooth="yes"/>
			<point x="315" y="-40"/>
			<point x="389" y="-84"/>
			<point x="408" y="-83" type="curve" smooth="yes"/>
			<point x="432" y="-83"/>
			<point x="441" y="-65"/>
		</contour>
	</outline>
</glyph>
<glyph name="parenright" format="2">
  <advance width="1062"/>
  <unicode hex="0029"/>
  <outline>
    <contour>
      <point x="716" y="610" type="curve" smooth="yes"/>
      <point x="716" y="800"/>
      <point x="660" y="954"/>
      <point x="586" y="1076" type="curve" smooth="yes"/>
      <point x="462" y="1282"/>
      <point x="286" y="1388"/>
      <point x="244" y="1388" type="curve" smooth="yes"/>
      <point x="198" y="1388"/>
      <point x="178" y="1354"/>
      <point x="178" y="1326" type="curve" smooth="yes"/>
      <point x="178" y="1304"/>
      <point x="190" y="1284"/>
      <point x="208" y="1272" type="curve" smooth="yes"/>
      <point x="284" y="1222"/>
      <point x="388" y="1146"/>
      <point x="472" y="990" type="curve" smooth="yes"/>
      <point x="534" y="872"/>
      <point x="564" y="738"/>
      <point x="564" y="612" type="curve" smooth="yes"/>
      <point x="564" y="494"/>
      <point x="538" y="344"/>
      <point x="456" y="204" type="curve" smooth="yes"/>
      <point x="404" y="118"/>
      <point x="332" y="34"/>
      <point x="230" y="-36" type="curve" smooth="yes"/>
      <point x="194" y="-62"/>
      <point x="178" y="-72"/>
      <point x="178" y="-104" type="curve" smooth="yes"/>
      <point x="178" y="-132"/>
      <point x="198" y="-166"/>
      <point x="244" y="-166" type="curve" smooth="yes"/>
      <point x="284" y="-166"/>
      <point x="446" y="-70"/>
      <point x="570" y="118" type="curve" smooth="yes"/>
      <point x="652" y="242"/>
      <point x="716" y="408"/>
    </contour>
  </outline>
</glyph>
<glyph name="asterisk" format="2">
  <advance width="1062"/>
  <unicode hex="002A"/>
  <outline>
    <contour>
      <point x="596" y="724" type="line"/>
      <point x="600" y="798"/>
      <point x="602" y="882"/>
      <point x="602" y="956" type="curve" smooth="yes"/>
      <point x="602" y="1008"/>
      <point x="578" y="1042"/>
      <point x="530" y="1042" type="curve" smooth="yes"/>
      <point x="488" y="1042"/>
      <point x="458" y="1016"/>
      <point x="458" y="956" type="curve" smooth="yes"/>
      <point x="458" y="882"/>
      <point x="460" y="798"/>
      <point x="464" y="724" type="curve"/>
      <point x="260" y="844" type="line" smooth="yes"/>
      <point x="232" y="860"/>
      <point x="226" y="864"/>
      <point x="210" y="864" type="curve" smooth="yes"/>
      <point x="180" y="864"/>
      <point x="138" y="842"/>
      <point x="138" y="790" type="curve" smooth="yes"/>
      <point x="138" y="748"/>
      <point x="162" y="736"/>
      <point x="188" y="722" type="curve" smooth="yes"/>
      <point x="396" y="612" type="line"/>
      <point x="190" y="502" type="line" smooth="yes"/>
      <point x="166" y="490"/>
      <point x="138" y="474"/>
      <point x="138" y="432" type="curve" smooth="yes"/>
      <point x="138" y="380"/>
      <point x="180" y="358"/>
      <point x="210" y="358" type="curve" smooth="yes"/>
      <point x="228" y="358"/>
      <point x="230" y="360"/>
      <point x="274" y="386" type="curve" smooth="yes"/>
      <point x="464" y="498" type="line"/>
      <point x="460" y="424"/>
      <point x="458" y="340"/>
      <point x="458" y="266" type="curve" smooth="yes"/>
      <point x="458" y="214"/>
      <point x="482" y="180"/>
      <point x="530" y="180" type="curve" smooth="yes"/>
      <point x="572" y="180"/>
      <point x="602" y="206"/>
      <point x="602" y="266" type="curve" smooth="yes"/>
      <point x="602" y="340"/>
      <point x="600" y="424"/>
      <point x="596" y="498" type="curve"/>
      <point x="657" y="461"/>
      <point x="719" y="425"/>
      <point x="780" y="388" type="curve" smooth="yes"/>
      <point x="832" y="358"/>
      <point x="836" y="358"/>
      <point x="850" y="358" type="curve" smooth="yes"/>
      <point x="880" y="358"/>
      <point x="922" y="380"/>
      <point x="922" y="432" type="curve" smooth="yes"/>
      <point x="922" y="462"/>
      <point x="908" y="480"/>
      <point x="884" y="496" type="curve"/>
      <point x="811" y="534"/>
      <point x="737" y="572"/>
      <point x="664" y="610" type="curve"/>
      <point x="870" y="720" type="line" smooth="yes"/>
      <point x="894" y="732"/>
      <point x="922" y="748"/>
      <point x="922" y="790" type="curve" smooth="yes"/>
      <point x="922" y="842"/>
      <point x="880" y="864"/>
      <point x="850" y="864" type="curve" smooth="yes"/>
      <point x="832" y="864"/>
      <point x="830" y="862"/>
      <point x="786" y="836" type="curve" smooth="yes"/>
    </contour>
  </outline>
</glyph>
<glyph name="plus" format="2">
  <advance width="531"/>
  <unicode hex="002B"/>
  <outline>
    <contour>
      <point x="304" y="267" type="line"/>
      <point x="442" y="267" type="line" smooth="yes"/>
      <point x="453" y="267"/>
      <point x="492" y="267"/>
      <point x="492" y="305" type="curve" smooth="yes"/>
      <point x="492" y="344"/>
      <point x="454" y="344"/>
      <point x="442" y="344" type="curve" smooth="yes"/>
      <point x="304" y="344" type="line"/>
      <point x="304" y="483" type="line" smooth="yes"/>
      <point x="304" y="494"/>
      <point x="304" y="533"/>
      <point x="266" y="533" type="curve" smooth="yes"/>
      <point x="227" y="533"/>
      <point x="227" y="495"/>
      <point x="227" y="483" type="curve" smooth="yes"/>
      <point x="227" y="344" type="line"/>
      <point x="88" y="344" type="line" smooth="yes"/>
      <point x="77" y="344"/>
      <point x="38" y="344"/>
      <point x="38" y="306" type="curve" smooth="yes"/>
      <point x="38" y="267"/>
      <point x="76" y="267"/>
      <point x="88" y="267" type="curve" smooth="yes"/>
      <point x="227" y="267" type="line"/>
      <point x="227" y="128" type="line" smooth="yes"/>
      <point x="227" y="117"/>
      <point x="227" y="78"/>
      <point x="265" y="78" type="curve" smooth="yes"/>
      <point x="304" y="78"/>
      <point x="304" y="116"/>
      <point x="304" y="128" type="curve" smooth="yes"/>
    </contour>
  </outline>
</glyph>
<glyph name="comma" format="2">
  <advance width="1062"/>
  <unicode hex="002C"/>
  <outline>
    <contour>
      <point x="568" y="4" type="curve"/>
      <point x="542" y="-72"/>
      <point x="494" y="-122"/>
      <point x="416" y="-148" type="curve" smooth="yes"/>
      <point x="398" y="-154"/>
      <point x="360" y="-166"/>
      <point x="360" y="-210" type="curve" smooth="yes"/>
      <point x="360" y="-244"/>
      <point x="392" y="-278"/>
      <point x="428" y="-278" type="curve" smooth="yes"/>
      <point x="496" y="-278"/>
      <point x="708" y="-168"/>
      <point x="708" y="62" type="curve" smooth="yes"/>
      <point x="708" y="184"/>
      <point x="628" y="270"/>
      <point x="532" y="270" type="curve" smooth="yes"/>
      <point x="446" y="270"/>
      <point x="396" y="206"/>
      <point x="396" y="134" type="curve" smooth="yes"/>
      <point x="396" y="70"/>
      <point x="442" y="0"/>
      <point x="532" y="0" type="curve" smooth="yes"/>
      <point x="552" y="0"/>
      <point x="558" y="2"/>
    </contour>
  </outline>
</glyph>
<glyph name="hyphen" format="2">
  <advance width="1062"/>
  <unicode hex="002D"/>
  <outline>
    <contour>
      <point x="846" y="534" type="line" smooth="yes"/>
      <point x="868" y="534"/>
      <point x="946" y="534"/>
      <point x="946" y="610" type="curve" smooth="yes"/>
      <point x="946" y="688"/>
      <point x="870" y="688"/>
      <point x="846" y="688" type="curve" smooth="yes"/>
      <point x="214" y="688" type="line" smooth="yes"/>
      <point x="192" y="688"/>
      <point x="114" y="688"/>
      <point x="114" y="612" type="curve" smooth="yes"/>
      <point x="114" y="534"/>
      <point x="190" y="534"/>
      <point x="214" y="534" type="curve" smooth="yes"/>
    </contour>
  </outline>
</glyph>
<glyph name="period" format="2">
  <advance width="1062"/>
  <unicode hex="002E"/>
  <outline>
    <contour>
      <point x="666" y="134" type="curve" smooth="yes"/>
      <point x="666" y="214"/>
      <point x="602" y="270"/>
      <point x="532" y="270" type="curve" smooth="yes"/>
      <point x="452" y="270"/>
      <point x="396" y="206"/>
      <point x="396" y="136" type="curve" smooth="yes"/>
      <point x="396" y="56"/>
      <point x="460" y="0"/>
      <point x="530" y="0" type="curve" smooth="yes"/>
      <point x="610" y="0"/>
      <point x="666" y="64"/>
    </contour>
  </outline>
</glyph>
<glyph name="slash" format="2">
  <advance width="1062"/>
  <unicode hex="002F"/>
  <outline>
    <contour>
      <point x="926" y="1262" type="line" smooth="yes"/>
      <point x="940" y="1294"/>
      <point x="942" y="1294"/>
      <point x="942" y="1310" type="curve" smooth="yes"/>
      <point x="942" y="1358"/>
      <point x="902" y="1388"/>
      <point x="866" y="1388" type="curve" smooth="yes"/>
      <point x="816" y="1388"/>
      <point x="800" y="1354"/>
      <point x="790" y="1332" type="curve" smooth="yes"/>
      <point x="134" y="-40" type="line" smooth="yes"/>
      <point x="120" y="-72"/>
      <point x="118" y="-72"/>
      <point x="118" y="-88" type="curve" smooth="yes"/>
      <point x="118" y="-136"/>
      <point x="158" y="-166"/>
      <point x="194" y="-166" type="curve" smooth="yes"/>
      <point x="244" y="-166"/>
      <point x="260" y="-132"/>
      <point x="270" y="-110" type="curve" smooth="yes"/>
    </contour>
  </outline>
</glyph>
<glyph name="zero" format="2">
  <advance width="1062"/>
  <unicode hex="0030"/>
  <outline>
    <contour>
      <point x="964" y="610" type="curve" smooth="yes"/>
      <point x="964" y="980"/>
      <point x="756" y="1242"/>
      <point x="530" y="1242" type="curve" smooth="yes"/>
      <point x="302" y="1242"/>
      <point x="96" y="976"/>
      <point x="96" y="612" type="curve" smooth="yes"/>
      <point x="96" y="242"/>
      <point x="304" y="-20"/>
      <point x="530" y="-20" type="curve" smooth="yes"/>
      <point x="758" y="-20"/>
      <point x="964" y="246"/>
    </contour>
    <contour>
      <point x="530" y="112" type="curve" smooth="yes"/>
      <point x="374" y="112"/>
      <point x="248" y="344"/>
      <point x="248" y="632" type="curve" smooth="yes"/>
      <point x="248" y="916"/>
      <point x="384" y="1110"/>
      <point x="530" y="1110" type="curve" smooth="yes"/>
      <point x="676" y="1110"/>
      <point x="812" y="918"/>
      <point x="812" y="632" type="curve" smooth="yes"/>
      <point x="812" y="344"/>
      <point x="684" y="112"/>
    </contour>
  </outline>
</glyph>
<glyph name="one" format="2">
  <advance width="1062"/>
  <unicode hex="0031"/>
  <outline>
    <contour>
      <point x="636" y="1156" type="line" smooth="yes"/>
      <point x="636" y="1186"/>
      <point x="636" y="1242"/>
      <point x="570" y="1242" type="curve" smooth="yes"/>
      <point x="528" y="1242"/>
      <point x="516" y="1216"/>
      <point x="506" y="1196" type="curve" smooth="yes"/>
      <point x="418" y="1010"/>
      <point x="326" y="1002"/>
      <point x="264" y="998" type="curve" smooth="yes"/>
      <point x="236" y="996"/>
      <point x="206" y="972"/>
      <point x="206" y="932" type="curve" smooth="yes"/>
      <point x="206" y="908"/>
      <point x="218" y="866"/>
      <point x="278" y="866" type="curve" smooth="yes"/>
      <point x="374" y="866"/>
      <point x="458" y="924"/>
      <point x="484" y="946" type="curve"/>
      <point x="484" y="132" type="line"/>
      <point x="306" y="132" type="line" smooth="yes"/>
      <point x="276" y="132"/>
      <point x="218" y="132"/>
      <point x="218" y="66" type="curve" smooth="yes"/>
      <point x="218" y="0"/>
      <point x="278" y="0"/>
      <point x="306" y="0" type="curve" smooth="yes"/>
      <point x="814" y="0" type="line" smooth="yes"/>
      <point x="844" y="0"/>
      <point x="902" y="0"/>
      <point x="902" y="66" type="curve" smooth="yes"/>
      <point x="902" y="132"/>
      <point x="842" y="132"/>
      <point x="814" y="132" type="curve" smooth="yes"/>
      <point x="636" y="132" type="line"/>
    </contour>
  </outline>
</glyph>
<glyph name="two" format="2">
	<unicode hex="0032"/>
	<advance width="531"/>
	<outline>
		<contour>
			<point x="72" y="65" type="line" smooth="yes"/>
			<point x="59" y="54"/>
			<point x="53" y="49"/>
			<point x="53" y="33" type="curve" smooth="yes"/>
			<point x="53" y="0"/>
			<point x="82" y="0"/>
			<point x="97" y="0" type="curve" smooth="yes"/>
			<point x="434" y="0" type="line" smooth="yes"/>
			<point x="467" y="0"/>
			<point x="477" y="8"/>
			<point x="477" y="43" type="curve" smooth="yes"/>
			<point x="477" y="70" type="line" smooth="yes"/>
			<point x="477" y="89"/>
			<point x="477" y="113"/>
			<point x="439" y="113" type="curve" smooth="yes"/>
			<point x="401" y="113"/>
			<point x="401" y="90"/>
			<point x="401" y="66" type="curve"/>
			<point x="178" y="66" type="line"/>
			<point x="251" y="128"/>
			<point x="331" y="190"/>
			<point x="364" y="219" type="curve" smooth="yes"/>
			<point x="421" y="271"/>
			<point x="477" y="336"/>
			<point x="477" y="425" type="curve" smooth="yes"/>
			<point x="477" y="543"/>
			<point x="377" y="621"/>
			<point x="252" y="621" type="curve" smooth="yes"/>
			<point x="134" y="621"/>
			<point x="53" y="544"/>
			<point x="53" y="459" type="curve" smooth="yes"/>
			<point x="53" y="416"/>
			<point x="87" y="407"/>
			<point x="102" y="407" type="curve" smooth="yes"/>
			<point x="123" y="407"/>
			<point x="150" y="423"/>
			<point x="150" y="456" type="curve" smooth="yes"/>
			<point x="150" y="468"/>
			<point x="145" y="482"/>
			<point x="136" y="490" type="curve"/>
			<point x="153" y="527"/>
			<point x="194" y="555"/>
			<point x="248" y="555" type="curve" smooth="yes"/>
			<point x="328" y="555"/>
			<point x="401" y="509"/>
			<point x="401" y="425" type="curve" smooth="yes"/>
			<point x="401" y="351"/>
			<point x="344" y="292"/>
			<point x="283" y="241" type="curve" smooth="yes"/>
		</contour>
	</outline>
</glyph>
<glyph name="three" format="2">
	<unicode hex="0033"/>
	<advance width="531"/>
	<outline>
		<contour>
			<point x="262" y="297" type="line" smooth="yes"/>
			<point x="366" y="297"/>
			<point x="410" y="226"/>
			<point x="410" y="177" type="curve" smooth="yes"/>
			<point x="410" y="118"/>
			<point x="356" y="56"/>
			<point x="265" y="56" type="curve" smooth="yes"/>
			<point x="252" y="56"/>
			<point x="168" y="56"/>
			<point x="130" y="103" type="curve"/>
			<point x="137" y="111"/>
			<point x="141" y="127"/>
			<point x="141" y="135" type="curve" smooth="yes"/>
			<point x="141" y="160"/>
			<point x="122" y="183"/>
			<point x="93" y="183" type="curve" smooth="yes"/>
			<point x="67" y="183"/>
			<point x="44" y="166"/>
			<point x="44" y="132" type="curve" smooth="yes"/>
			<point x="44" y="43"/>
			<point x="140" y="-10"/>
			<point x="265" y="-10" type="curve" smooth="yes"/>
			<point x="401" y="-10"/>
			<point x="486" y="83"/>
			<point x="486" y="176" type="curve" smooth="yes"/>
			<point x="486" y="231"/>
			<point x="456" y="296"/>
			<point x="377" y="335" type="curve"/>
			<point x="421" y="365"/>
			<point x="456" y="418"/>
			<point x="456" y="478" type="curve" smooth="yes"/>
			<point x="456" y="556"/>
			<point x="379" y="621"/>
			<point x="265" y="621" type="curve" smooth="yes"/>
			<point x="146" y="621"/>
			<point x="74" y="576"/>
			<point x="74" y="503" type="curve" smooth="yes"/>
			<point x="74" y="471"/>
			<point x="97" y="453"/>
			<point x="123" y="453" type="curve" smooth="yes"/>
			<point x="150" y="453"/>
			<point x="171" y="474"/>
			<point x="171" y="501" type="curve" smooth="yes"/>
			<point x="171" y="518"/>
			<point x="167" y="523"/>
			<point x="163" y="529" type="curve"/>
			<point x="195" y="555"/>
			<point x="258" y="555"/>
			<point x="266" y="555" type="curve" smooth="yes"/>
			<point x="335" y="555"/>
			<point x="380" y="517"/>
			<point x="380" y="478" type="curve" smooth="yes"/>
			<point x="380" y="463"/>
			<point x="376" y="426"/>
			<point x="341" y="395" type="curve" smooth="yes"/>
			<point x="312" y="370"/>
			<point x="284" y="368"/>
			<point x="252" y="366" type="curve" smooth="yes"/>
			<point x="243" y="365"/>
			<point x="235" y="365"/>
			<point x="228" y="364" type="curve" smooth="yes"/>
			<point x="189" y="361"/>
			<point x="177" y="356"/>
			<point x="177" y="330" type="curve" smooth="yes"/>
			<point x="177" y="297"/>
			<point x="205" y="297"/>
			<point x="220" y="297" type="curve" smooth="yes"/>
		</contour>
	</outline>
</glyph>
<glyph name="four" format="2">
  <advance width="1062"/>
  <unicode hex="0034"/>
  <outline>
    <contour>
      <point x="78" y="496" type="line" smooth="yes"/>
      <point x="60" y="470"/>
      <point x="60" y="466"/>
      <point x="60" y="424" type="curve" smooth="yes"/>
      <point x="60" y="362"/>
      <point x="70" y="336"/>
      <point x="146" y="336" type="curve" smooth="yes"/>
      <point x="644" y="336" type="line"/>
      <point x="644" y="132" type="line"/>
      <point x="524" y="132" type="line" smooth="yes"/>
      <point x="492" y="132"/>
      <point x="438" y="132"/>
      <point x="438" y="66" type="curve" smooth="yes"/>
      <point x="438" y="0"/>
      <point x="492" y="0"/>
      <point x="524" y="0" type="curve" smooth="yes"/>
      <point x="888" y="0" type="line" smooth="yes"/>
      <point x="920" y="0"/>
      <point x="974" y="0"/>
      <point x="974" y="66" type="curve" smooth="yes"/>
      <point x="974" y="132"/>
      <point x="920" y="132"/>
      <point x="888" y="132" type="curve" smooth="yes"/>
      <point x="768" y="132" type="line"/>
      <point x="768" y="336" type="line"/>
      <point x="914" y="336" type="line" smooth="yes"/>
      <point x="944" y="336"/>
      <point x="1000" y="336"/>
      <point x="1000" y="402" type="curve" smooth="yes"/>
      <point x="1000" y="468"/>
      <point x="944" y="468"/>
      <point x="914" y="468" type="curve" smooth="yes"/>
      <point x="768" y="468" type="line"/>
      <point x="768" y="1166" type="line" smooth="yes"/>
      <point x="768" y="1234"/>
      <point x="750" y="1252"/>
      <point x="682" y="1252" type="curve" smooth="yes"/>
      <point x="620" y="1252" type="line" smooth="yes"/>
      <point x="570" y="1252"/>
      <point x="558" y="1250"/>
      <point x="532" y="1208" type="curve" smooth="yes"/>
    </contour>
    <contour>
      <point x="212" y="468" type="line"/>
      <point x="644" y="1144" type="line"/>
      <point x="644" y="468" type="line"/>
    </contour>
  </outline>
</glyph>
<glyph name="five" format="2">
  <advance width="1062"/>
  <unicode hex="0035"/>
  <outline>
    <contour>
      <point x="796" y="1090" type="line" smooth="yes"/>
      <point x="826" y="1090"/>
      <point x="882" y="1090"/>
      <point x="882" y="1156" type="curve" smooth="yes"/>
      <point x="882" y="1222"/>
      <point x="826" y="1222"/>
      <point x="796" y="1222" type="curve" smooth="yes"/>
      <point x="258" y="1222" type="line" smooth="yes"/>
      <point x="192" y="1222"/>
      <point x="172" y="1206"/>
      <point x="172" y="1136" type="curve" smooth="yes"/>
      <point x="172" y="602" type="line" smooth="yes"/>
      <point x="172" y="568"/>
      <point x="172" y="516"/>
      <point x="242" y="516" type="curve" smooth="yes"/>
      <point x="274" y="516"/>
      <point x="286" y="524"/>
      <point x="304" y="542" type="curve"/>
      <point x="332" y="574"/>
      <point x="394" y="644"/>
      <point x="556" y="644" type="curve" smooth="yes"/>
      <point x="712" y="644"/>
      <point x="802" y="506"/>
      <point x="802" y="380" type="curve" smooth="yes"/>
      <point x="802" y="232"/>
      <point x="664" y="112"/>
      <point x="498" y="112" type="curve" smooth="yes"/>
      <point x="416" y="112"/>
      <point x="314" y="146"/>
      <point x="276" y="224" type="curve"/>
      <point x="284" y="232"/>
      <point x="300" y="258"/>
      <point x="300" y="288" type="curve" smooth="yes"/>
      <point x="300" y="350"/>
      <point x="252" y="386"/>
      <point x="204" y="386" type="curve" smooth="yes"/>
      <point x="158" y="386"/>
      <point x="106" y="356"/>
      <point x="106" y="284" type="curve" smooth="yes"/>
      <point x="106" y="112"/>
      <point x="278" y="-20"/>
      <point x="498" y="-20" type="curve" smooth="yes"/>
      <point x="752" y="-20"/>
      <point x="954" y="158"/>
      <point x="954" y="380" type="curve" smooth="yes"/>
      <point x="954" y="584"/>
      <point x="794" y="776"/>
      <point x="558" y="776" type="curve" smooth="yes"/>
      <point x="496" y="776"/>
      <point x="412" y="768"/>
      <point x="324" y="724" type="curve"/>
      <point x="324" y="1090" type="line"/>
    </contour>
  </outline>
</glyph>
<glyph name="six" format="2">
  <advance width="531"/>
  <unicode hex="0036"/>
  <outline>
    <contour>
      <point x="129" y="341" type="curve"/>
      <point x="148" y="488"/>
      <point x="246" y="555"/>
      <point x="323" y="555" type="curve" smooth="yes"/>
      <point x="343" y="555"/>
      <point x="361" y="550"/>
      <point x="372" y="541" type="curve"/>
      <point x="367" y="535"/>
      <point x="362" y="523"/>
      <point x="362" y="511" type="curve" smooth="yes"/>
      <point x="362" y="486"/>
      <point x="380" y="463"/>
      <point x="410" y="463" type="curve" smooth="yes"/>
      <point x="440" y="463"/>
      <point x="459" y="484"/>
      <point x="459" y="513" type="curve" smooth="yes"/>
      <point x="459" y="566"/>
      <point x="420" y="621"/>
      <point x="324" y="621" type="curve" smooth="yes"/>
      <point x="188" y="621"/>
      <point x="51" y="499"/>
      <point x="51" y="300" type="curve" smooth="yes"/>
      <point x="51" y="58"/>
      <point x="170" y="-10"/>
      <point x="267" y="-10" type="curve" smooth="yes"/>
      <point x="379" y="-10"/>
      <point x="479" y="73"/>
      <point x="479" y="193" type="curve" smooth="yes"/>
      <point x="479" y="304"/>
      <point x="390" y="394"/>
      <point x="276" y="394" type="curve" smooth="yes"/>
      <point x="189" y="394"/>
      <point x="136" y="347"/>
    </contour>
    <contour>
      <point x="139" y="182" type="curve"/>
      <point x="140" y="184"/>
      <point x="141" y="188"/>
      <point x="141" y="192" type="curve" smooth="yes"/>
      <point x="141" y="201"/>
      <point x="137" y="207"/>
      <point x="137" y="222" type="curve" smooth="yes"/>
      <point x="137" y="279"/>
      <point x="198" y="328"/>
      <point x="271" y="328" type="curve" smooth="yes"/>
      <point x="344" y="328"/>
      <point x="403" y="270"/>
      <point x="403" y="192" type="curve" smooth="yes"/>
      <point x="403" y="113"/>
      <point x="339" y="56"/>
      <point x="267" y="56" type="curve" smooth="yes"/>
      <point x="192" y="56"/>
      <point x="155" y="121"/>
    </contour>
  </outline>
</glyph>
<glyph name="seven" format="2">
  <advance width="1062"/>
  <unicode hex="0037"/>
  <outline>
    <contour>
      <point x="744" y="1090" type="line"/>
      <point x="490" y="812"/>
      <point x="338" y="454"/>
      <point x="338" y="78" type="curve" smooth="yes"/>
      <point x="338" y="56"/>
      <point x="338" y="-20"/>
      <point x="414" y="-20" type="curve" smooth="yes"/>
      <point x="488" y="-20"/>
      <point x="490" y="50"/>
      <point x="490" y="82" type="curve" smooth="yes"/>
      <point x="494" y="524"/>
      <point x="716" y="888"/>
      <point x="948" y="1104" type="curve" smooth="yes"/>
      <point x="966" y="1122"/>
      <point x="972" y="1132"/>
      <point x="972" y="1156" type="curve" smooth="yes"/>
      <point x="972" y="1222"/>
      <point x="916" y="1222"/>
      <point x="886" y="1222" type="curve" smooth="yes"/>
      <point x="232" y="1222" type="line"/>
      <point x="218" y="1254"/>
      <point x="180" y="1254"/>
      <point x="164" y="1254" type="curve" smooth="yes"/>
      <point x="88" y="1254"/>
      <point x="88" y="1206"/>
      <point x="88" y="1168" type="curve" smooth="yes"/>
      <point x="88" y="1082" type="line" smooth="yes"/>
      <point x="88" y="1044"/>
      <point x="88" y="996"/>
      <point x="164" y="996" type="curve" smooth="yes"/>
      <point x="240" y="996"/>
      <point x="240" y="1042"/>
      <point x="240" y="1090" type="curve"/>
    </contour>
  </outline>
</glyph>
<glyph name="eight" format="2">
	<unicode hex="0038"/>
	<advance width="531"/>
	<outline>
		<contour>
			<point x="347" y="329" type="curve"/>
			<point x="409" y="349"/>
			<point x="471" y="394"/>
			<point x="471" y="460" type="curve" smooth="yes"/>
			<point x="471" y="541"/>
			<point x="387" y="621"/>
			<point x="265" y="621" type="curve" smooth="yes"/>
			<point x="144" y="621"/>
			<point x="59" y="542"/>
			<point x="59" y="460" type="curve" smooth="yes"/>
			<point x="59" y="370"/>
			<point x="170" y="333"/>
			<point x="183" y="329" type="curve"/>
			<point x="110" y="309"/>
			<point x="44" y="251"/>
			<point x="44" y="175" type="curve" smooth="yes"/>
			<point x="44" y="81"/>
			<point x="135" y="-10"/>
			<point x="265" y="-10" type="curve" smooth="yes"/>
			<point x="395" y="-10"/>
			<point x="486" y="81"/>
			<point x="486" y="175" type="curve" smooth="yes"/>
			<point x="486" y="252"/>
			<point x="419" y="309"/>
		</contour>
		<contour>
			<point x="265" y="363" type="curve" smooth="yes"/>
			<point x="190" y="363"/>
			<point x="135" y="408"/>
			<point x="135" y="459" type="curve" smooth="yes"/>
			<point x="135" y="509"/>
			<point x="190" y="555"/>
			<point x="265" y="555" type="curve" smooth="yes"/>
			<point x="340" y="555"/>
			<point x="395" y="509"/>
			<point x="395" y="459" type="curve" smooth="yes"/>
			<point x="395" y="408"/>
			<point x="340" y="363"/>
		</contour>
		<contour>
			<point x="265" y="56" type="curve" smooth="yes"/>
			<point x="181" y="56"/>
			<point x="120" y="114"/>
			<point x="120" y="176" type="curve" smooth="yes"/>
			<point x="120" y="242"/>
			<point x="185" y="297"/>
			<point x="265" y="297" type="curve" smooth="yes"/>
			<point x="345" y="297"/>
			<point x="410" y="243"/>
			<point x="410" y="176" type="curve" smooth="yes"/>
			<point x="410" y="113"/>
			<point x="348" y="56"/>
		</contour>
	</outline>
</glyph>
<glyph name="nine" format="2">
  <advance width="1062"/>
  <unicode hex="0039"/>
  <outline>
    <contour>
      <point x="802" y="540" type="curve"/>
      <point x="776" y="294"/>
      <point x="620" y="112"/>
      <point x="438" y="112" type="curve" smooth="yes"/>
      <point x="430" y="112"/>
      <point x="360" y="112"/>
      <point x="318" y="142" type="curve"/>
      <point x="320" y="144"/>
      <point x="336" y="168"/>
      <point x="336" y="200" type="curve" smooth="yes"/>
      <point x="336" y="250"/>
      <point x="300" y="296"/>
      <point x="240" y="296" type="curve" smooth="yes"/>
      <point x="180" y="296"/>
      <point x="142" y="254"/>
      <point x="142" y="196" type="curve" smooth="yes"/>
      <point x="142" y="86"/>
      <point x="224" y="-20"/>
      <point x="436" y="-20" type="curve" smooth="yes"/>
      <point x="712" y="-20"/>
      <point x="958" y="236"/>
      <point x="958" y="622" type="curve" smooth="yes"/>
      <point x="958" y="1100"/>
      <point x="734" y="1242"/>
      <point x="536" y="1242" type="curve" smooth="yes"/>
      <point x="310" y="1242"/>
      <point x="102" y="1078"/>
      <point x="102" y="836" type="curve" smooth="yes"/>
      <point x="102" y="614"/>
      <point x="280" y="434"/>
      <point x="508" y="434" type="curve" smooth="yes"/>
      <point x="682" y="434"/>
      <point x="788" y="528"/>
    </contour>
    <contour>
      <point x="518" y="566" type="curve" smooth="yes"/>
      <point x="368" y="566"/>
      <point x="254" y="686"/>
      <point x="254" y="836" type="curve" smooth="yes"/>
      <point x="254" y="1002"/>
      <point x="392" y="1110"/>
      <point x="536" y="1110" type="curve" smooth="yes"/>
      <point x="732" y="1110"/>
      <point x="776" y="880"/>
      <point x="780" y="854" type="curve" smooth="yes"/>
      <point x="782" y="840"/>
      <point x="786" y="810"/>
      <point x="786" y="780" type="curve" smooth="yes"/>
      <point x="786" y="658"/>
      <point x="656" y="566"/>
    </contour>
  </outline>
</glyph>
<glyph name="colon" format="2">
  <advance width="1062"/>
  <unicode hex="003A"/>
  <outline>
    <contour>
      <point x="666" y="726" type="curve" smooth="yes"/>
      <point x="666" y="806"/>
      <point x="602" y="862"/>
      <point x="532" y="862" type="curve" smooth="yes"/>
      <point x="452" y="862"/>
      <point x="396" y="798"/>
      <point x="396" y="728" type="curve" smooth="yes"/>
      <point x="396" y="648"/>
      <point x="460" y="592"/>
      <point x="530" y="592" type="curve" smooth="yes"/>
      <point x="610" y="592"/>
      <point x="666" y="656"/>
    </contour>
    <contour>
      <point x="666" y="134" type="curve" smooth="yes"/>
      <point x="666" y="214"/>
      <point x="602" y="270"/>
      <point x="532" y="270" type="curve" smooth="yes"/>
      <point x="452" y="270"/>
      <point x="396" y="206"/>
      <point x="396" y="136" type="curve" smooth="yes"/>
      <point x="396" y="56"/>
      <point x="460" y="0"/>
      <point x="530" y="0" type="curve" smooth="yes"/>
      <point x="610" y="0"/>
      <point x="666" y="64"/>
    </contour>
  </outline>
</glyph>
<glyph name="semicolon" format="2">
  <advance width="1062"/>
  <unicode hex="003B"/>
  <outline>
    <contour>
      <point x="666" y="726" type="curve" smooth="yes"/>
      <point x="666" y="806"/>
      <point x="602" y="862"/>
      <point x="532" y="862" type="curve" smooth="yes"/>
      <point x="452" y="862"/>
      <point x="396" y="798"/>
      <point x="396" y="728" type="curve" smooth="yes"/>
      <point x="396" y="648"/>
      <point x="460" y="592"/>
      <point x="530" y="592" type="curve" smooth="yes"/>
      <point x="610" y="592"/>
      <point x="666" y="656"/>
    </contour>
    <contour>
      <point x="534" y="0" type="curve"/>
      <point x="510" y="-78"/>
      <point x="460" y="-124"/>
      <point x="404" y="-150" type="curve" smooth="yes"/>
      <point x="392" y="-156"/>
      <point x="360" y="-170"/>
      <point x="360" y="-210" type="curve" smooth="yes"/>
      <point x="360" y="-244"/>
      <point x="390" y="-278"/>
      <point x="428" y="-278" type="curve" smooth="yes"/>
      <point x="476" y="-278"/>
      <point x="676" y="-166"/>
      <point x="676" y="66" type="curve" smooth="yes"/>
      <point x="676" y="180"/>
      <point x="626" y="270"/>
      <point x="530" y="270" type="curve" smooth="yes"/>
      <point x="452" y="270"/>
      <point x="396" y="212"/>
      <point x="396" y="134" type="curve" smooth="yes"/>
      <point x="396" y="104"/>
      <point x="412" y="4"/>
    </contour>
  </outline>
</glyph>
<glyph name="less" format="2">
	<unicode hex="003C"/>
	<advance width="531"/>
	<outline>
		<contour>
			<point x="167" y="305" type="line"/>
			<point x="449" y="485" type="line" smooth="yes"/>
			<point x="460" y="492"/>
			<point x="473" y="500"/>
			<point x="473" y="521" type="curve" smooth="yes"/>
			<point x="473" y="544"/>
			<point x="454" y="560"/>
			<point x="435" y="560" type="curve" smooth="yes"/>
			<point x="424" y="560"/>
			<point x="419" y="556"/>
			<point x="406" y="548" type="curve" smooth="yes"/>
			<point x="80" y="341" type="line" smooth="yes"/>
			<point x="71" y="335"/>
			<point x="57" y="326"/>
			<point x="57" y="306" type="curve" smooth="yes"/>
			<point x="57" y="285"/>
			<point x="70" y="277"/>
			<point x="80" y="270" type="curve" smooth="yes"/>
			<point x="405" y="63" type="line" smooth="yes"/>
			<point x="421" y="52"/>
			<point x="429" y="51"/>
			<point x="435" y="51" type="curve" smooth="yes"/>
			<point x="454" y="51"/>
			<point x="473" y="67"/>
			<point x="473" y="90" type="curve" smooth="yes"/>
			<point x="473" y="111"/>
			<point x="460" y="119"/>
			<point x="449" y="126" type="curve" smooth="yes"/>
		</contour>
	</outline>
</glyph>
<glyph name="equal" format="2">
  <advance width="1062"/>
  <unicode hex="003D"/>
  <outline>
    <contour>
      <point x="888" y="686" type="line" smooth="yes"/>
      <point x="908" y="686"/>
      <point x="984" y="686"/>
      <point x="984" y="762" type="curve" smooth="yes"/>
      <point x="984" y="840"/>
      <point x="904" y="840"/>
      <point x="876" y="840" type="curve" smooth="yes"/>
      <point x="184" y="840" type="line" smooth="yes"/>
      <point x="156" y="840"/>
      <point x="76" y="840"/>
      <point x="76" y="762" type="curve" smooth="yes"/>
      <point x="76" y="686"/>
      <point x="152" y="686"/>
      <point x="172" y="686" type="curve" smooth="yes"/>
    </contour>
    <contour>
      <point x="876" y="382" type="line" smooth="yes"/>
      <point x="904" y="382"/>
      <point x="984" y="382"/>
      <point x="984" y="460" type="curve" smooth="yes"/>
      <point x="984" y="536"/>
      <point x="908" y="536"/>
      <point x="888" y="536" type="curve" smooth="yes"/>
      <point x="172" y="536" type="line" smooth="yes"/>
      <point x="152" y="536"/>
      <point x="76" y="536"/>
      <point x="76" y="460" type="curve" smooth="yes"/>
      <point x="76" y="382"/>
      <point x="156" y="382"/>
      <point x="184" y="382" type="curve" smooth="yes"/>
    </contour>
  </outline>
</glyph>
<glyph name="greater" format="2">
  <advance width="1062"/>
  <unicode hex="003E"/>
  <outline>
    <contour>
      <point x="726" y="612" type="line"/>
      <point x="162" y="252" type="line" smooth="yes"/>
      <point x="140" y="238"/>
      <point x="114" y="222"/>
      <point x="114" y="180" type="curve" smooth="yes"/>
      <point x="114" y="134"/>
      <point x="152" y="102"/>
      <point x="190" y="102" type="curve" smooth="yes"/>
      <point x="192" y="102"/>
      <point x="216" y="102"/>
      <point x="242" y="120" type="curve" smooth="yes"/>
      <point x="900" y="540" type="line" smooth="yes"/>
      <point x="920" y="552"/>
      <point x="946" y="570"/>
      <point x="946" y="610" type="curve" smooth="yes"/>
      <point x="946" y="652"/>
      <point x="920" y="668"/>
      <point x="900" y="682" type="curve" smooth="yes"/>
      <point x="242" y="1102" type="line" smooth="yes"/>
      <point x="216" y="1120"/>
      <point x="192" y="1120"/>
      <point x="190" y="1120" type="curve" smooth="yes"/>
      <point x="152" y="1120"/>
      <point x="114" y="1088"/>
      <point x="114" y="1042" type="curve" smooth="yes"/>
      <point x="114" y="1000"/>
      <point x="140" y="984"/>
      <point x="162" y="970" type="curve" smooth="yes"/>
    </contour>
  </outline>
</glyph>
<glyph name="question" format="2">
  <advance width="1062"/>
  <unicode hex="003F"/>
  <outline>
    <contour>
      <point x="584" y="498" type="line" smooth="yes"/>
      <point x="584" y="560"/>
      <point x="592" y="682"/>
      <point x="794" y="788" type="curve" smooth="yes"/>
      <point x="840" y="812"/>
      <point x="936" y="868"/>
      <point x="936" y="984" type="curve" smooth="yes"/>
      <point x="936" y="1092"/>
      <point x="846" y="1232"/>
      <point x="510" y="1232" type="curve" smooth="yes"/>
      <point x="214" y="1232"/>
      <point x="126" y="1096"/>
      <point x="126" y="988" type="curve" smooth="yes"/>
      <point x="126" y="920"/>
      <point x="176" y="888"/>
      <point x="224" y="888" type="curve" smooth="yes"/>
      <point x="274" y="888"/>
      <point x="320" y="926"/>
      <point x="320" y="984" type="curve" smooth="yes"/>
      <point x="320" y="992"/>
      <point x="320" y="1018"/>
      <point x="302" y="1040" type="curve"/>
      <point x="362" y="1100"/>
      <point x="474" y="1100"/>
      <point x="510" y="1100" type="curve" smooth="yes"/>
      <point x="700" y="1100"/>
      <point x="784" y="1044"/>
      <point x="784" y="984" type="curve" smooth="yes"/>
      <point x="784" y="940"/>
      <point x="736" y="914"/>
      <point x="720" y="906" type="curve" smooth="yes"/>
      <point x="416" y="744"/>
      <point x="412" y="584"/>
      <point x="412" y="486" type="curve" smooth="yes"/>
      <point x="412" y="412"/>
      <point x="412" y="380"/>
      <point x="498" y="380" type="curve" smooth="yes"/>
      <point x="554" y="380"/>
      <point x="584" y="386"/>
      <point x="584" y="466" type="curve" smooth="yes"/>
    </contour>
    <contour>
      <point x="606" y="108" type="curve" smooth="yes"/>
      <point x="606" y="168"/>
      <point x="558" y="216"/>
      <point x="498" y="216" type="curve" smooth="yes"/>
      <point x="438" y="216"/>
      <point x="390" y="168"/>
      <point x="390" y="108" type="curve" smooth="yes"/>
      <point x="390" y="48"/>
      <point x="438" y="0"/>
      <point x="498" y="0" type="curve" smooth="yes"/>
      <point x="558" y="0"/>
      <point x="606" y="48"/>
    </contour>
  </outline>
</glyph>
<glyph name="at" format="2">
  <advance width="1062"/>
  <unicode hex="0040"/>
  <outline>
    <contour>
      <point x="794" y="978" type="curve"/>
      <point x="770" y="992"/>
      <point x="726" y="1010"/>
      <point x="676" y="1010" type="curve" smooth="yes"/>
      <point x="518" y="1010"/>
      <point x="380" y="844"/>
      <point x="380" y="610" type="curve" smooth="yes"/>
      <point x="380" y="384"/>
      <point x="514" y="212"/>
      <point x="676" y="212" type="curve" smooth="yes"/>
      <point x="772" y="212"/>
      <point x="972" y="292"/>
      <point x="972" y="642" type="curve" smooth="yes"/>
      <point x="972" y="770"/>
      <point x="972" y="1232"/>
      <point x="616" y="1232" type="curve" smooth="yes"/>
      <point x="338" y="1232"/>
      <point x="88" y="966"/>
      <point x="88" y="612" type="curve" smooth="yes"/>
      <point x="88" y="258"/>
      <point x="332" y="-10"/>
      <point x="620" y="-10" type="curve" smooth="yes"/>
      <point x="798" y="-10"/>
      <point x="972" y="102"/>
      <point x="972" y="166" type="curve" smooth="yes"/>
      <point x="972" y="228"/>
      <point x="910" y="228"/>
      <point x="890" y="228" type="curve" smooth="yes"/>
      <point x="848" y="228"/>
      <point x="842" y="224"/>
      <point x="820" y="202" type="curve" smooth="yes"/>
      <point x="754" y="142"/>
      <point x="684" y="122"/>
      <point x="618" y="122" type="curve" smooth="yes"/>
      <point x="406" y="122"/>
      <point x="212" y="330"/>
      <point x="212" y="610" type="curve" smooth="yes"/>
      <point x="212" y="902"/>
      <point x="416" y="1100"/>
      <point x="616" y="1100" type="curve" smooth="yes"/>
      <point x="702" y="1100"/>
      <point x="766" y="1048"/>
    </contour>
    <contour>
      <point x="676" y="344" type="curve" smooth="yes"/>
      <point x="590" y="344"/>
      <point x="504" y="456"/>
      <point x="504" y="610" type="curve" smooth="yes"/>
      <point x="504" y="770"/>
      <point x="592" y="878"/>
      <point x="676" y="878" type="curve" smooth="yes"/>
      <point x="762" y="878"/>
      <point x="848" y="766"/>
      <point x="848" y="612" type="curve" smooth="yes"/>
      <point x="848" y="452"/>
      <point x="760" y="344"/>
    </contour>
  </outline>
</glyph>
<glyph name="A" format="2">
  <advance width="1062"/>
  <unicode hex="0041"/>
  <outline>
    <contour>
      <point x="646" y="1174" type="line" smooth="yes"/>
      <point x="628" y="1252"/>
      <point x="584" y="1252"/>
      <point x="530" y="1252" type="curve"/>
      <point x="530" y="1252" type="line"/>
      <point x="468" y="1252"/>
      <point x="434" y="1252"/>
      <point x="416" y="1174" type="curve" smooth="yes"/>
      <point x="176" y="132" type="line"/>
      <point x="176" y="132"/>
      <point x="176" y="132"/>
      <point x="176" y="132" type="curve"/>
      <point x="108" y="132"/>
      <point x="56" y="132"/>
      <point x="56" y="66" type="curve" smooth="yes"/>
      <point x="56" y="0"/>
      <point x="116" y="0"/>
      <point x="144" y="0" type="curve" smooth="yes"/>
      <point x="356" y="0" type="line" smooth="yes"/>
      <point x="384" y="0"/>
      <point x="444" y="0"/>
      <point x="444" y="66" type="curve" smooth="yes"/>
      <point x="444" y="132"/>
      <point x="390" y="132"/>
      <point x="332" y="132" type="curve"/>
      <point x="372" y="314" type="line"/>
      <point x="688" y="314" type="line"/>
      <point x="728" y="132" type="line"/>
      <point x="670" y="132"/>
      <point x="616" y="132"/>
      <point x="616" y="66" type="curve" smooth="yes"/>
      <point x="616" y="0"/>
      <point x="676" y="0"/>
      <point x="704" y="0" type="curve" smooth="yes"/>
      <point x="916" y="0" type="line" smooth="yes"/>
      <point x="944" y="0"/>
      <point x="1004" y="0"/>
      <point x="1004" y="66" type="curve" smooth="yes"/>
      <point x="1004" y="132"/>
      <point x="952" y="132"/>
      <point x="884" y="132" type="curve"/>
      <point x="884" y="132"/>
      <point x="884" y="132"/>
      <point x="884" y="132" type="curve"/>
    </contour>
    <contour>
      <point x="656" y="446" type="line"/>
      <point x="402" y="446" type="line"/>
      <point x="420" y="522"/>
      <point x="522" y="968"/>
      <point x="528" y="1056" type="curve"/>
      <point x="530" y="1056" type="line"/>
      <point x="534" y="1014"/>
      <point x="546" y="962"/>
      <point x="558" y="906" type="curve" smooth="yes"/>
    </contour>
  </outline>
</glyph>
<glyph name="B" format="2">
  <advance width="1062"/>
  <unicode hex="0042"/>
  <outline>
    <contour>
      <point x="132" y="1222" type="line" smooth="yes"/>
      <point x="104" y="1222"/>
      <point x="44" y="1222"/>
      <point x="44" y="1156" type="curve" smooth="yes"/>
      <point x="44" y="1090"/>
      <point x="104" y="1090"/>
      <point x="132" y="1090" type="curve" smooth="yes"/>
      <point x="180" y="1090" type="line"/>
      <point x="180" y="132" type="line"/>
      <point x="132" y="132" type="line" smooth="yes"/>
      <point x="104" y="132"/>
      <point x="44" y="132"/>
      <point x="44" y="66" type="curve" smooth="yes"/>
      <point x="44" y="0"/>
      <point x="104" y="0"/>
      <point x="132" y="0" type="curve" smooth="yes"/>
      <point x="626" y="0" type="line" smooth="yes"/>
      <point x="854" y="0"/>
      <point x="974" y="180"/>
      <point x="974" y="336" type="curve" smooth="yes"/>
      <point x="974" y="486"/>
      <point x="862" y="608"/>
      <point x="718" y="640" type="curve"/>
      <point x="840" y="682"/>
      <point x="932" y="784"/>
      <point x="932" y="910" type="curve" smooth="yes"/>
      <point x="932" y="1060"/>
      <point x="806" y="1222"/>
      <point x="586" y="1222" type="curve" smooth="yes"/>
    </contour>
    <contour>
      <point x="332" y="702" type="line"/>
      <point x="332" y="1090" type="line"/>
      <point x="578" y="1090" type="line" smooth="yes"/>
      <point x="742" y="1090"/>
      <point x="780" y="966"/>
      <point x="780" y="908" type="curve" smooth="yes"/>
      <point x="780" y="820"/>
      <point x="708" y="702"/>
      <point x="544" y="702" type="curve" smooth="yes"/>
    </contour>
    <contour>
      <point x="332" y="132" type="line"/>
      <point x="332" y="570" type="line"/>
      <point x="592" y="570" type="line" smooth="yes"/>
      <point x="794" y="570"/>
      <point x="822" y="392"/>
      <point x="822" y="340" type="curve" smooth="yes"/>
      <point x="822" y="250"/>
      <point x="754" y="132"/>
      <point x="580" y="132" type="curve" smooth="yes"/>
    </contour>
  </outline>
</glyph>
<glyph name="C" format="2">
	<unicode hex="0043"/>
	<advance width="531"/>
	<outline>
		<contour>
			<point x="41" y="306" type="curve" smooth="yes"/>
			<point x="41" y="127"/>
			<point x="151" y="-10"/>
			<point x="285" y="-10" type="curve" smooth="yes"/>
			<point x="399" y="-10"/>
			<point x="489" y="75"/>
			<point x="489" y="169" type="curve" smooth="yes"/>
			<point x="489" y="204"/>
			<point x="461" y="204"/>
			<point x="451" y="204" type="curve" smooth="yes"/>
			<point x="437" y="204"/>
			<point x="415" y="200"/>
			<point x="413" y="177" type="curve" smooth="yes"/>
			<point x="406" y="63"/>
			<point x="305" y="56"/>
			<point x="289" y="56" type="curve" smooth="yes"/>
			<point x="197" y="56"/>
			<point x="117" y="164"/>
			<point x="117" y="305" type="curve" smooth="yes"/>
			<point x="117" y="451"/>
			<point x="200" y="555"/>
			<point x="288" y="555" type="curve" smooth="yes"/>
			<point x="346" y="555"/>
			<point x="399" y="509"/>
			<point x="412" y="434" type="curve" smooth="yes"/>
			<point x="415" y="414"/>
			<point x="418" y="398"/>
			<point x="451" y="398" type="curve" smooth="yes"/>
			<point x="489" y="398"/>
			<point x="489" y="422"/>
			<point x="489" y="441" type="curve" smooth="yes"/>
			<point x="489" y="578" type="line" smooth="yes"/>
			<point x="489" y="593"/>
			<point x="489" y="621"/>
			<point x="456" y="621" type="curve" smooth="yes"/>
			<point x="438" y="621"/>
			<point x="433" y="615"/>
			<point x="420" y="593" type="curve" smooth="yes"/>
			<point x="417.003" y="587.672"/>
			<point x="414.006" y="582.344"/>
			<point x="411" y="577" type="curve"/>
			<point x="368" y="609"/>
			<point x="325" y="621"/>
			<point x="284" y="621" type="curve" smooth="yes"/>
			<point x="152" y="621"/>
			<point x="41" y="484"/>
		</contour>
	</outline>
</glyph>
<glyph name="D" format="2">
	<unicode hex="0044"/>
	<advance width="531"/>
	<outline>
		<contour>
			<point x="61" y="611" type="line" smooth="yes"/>
			<point x="44" y="611"/>
			<point x="18" y="611"/>
			<point x="18" y="578" type="curve" smooth="yes"/>
			<point x="18" y="545"/>
			<point x="45" y="545"/>
			<point x="61" y="545" type="curve" smooth="yes"/>
			<point x="80" y="545" type="line"/>
			<point x="80" y="66" type="line"/>
			<point x="61" y="66" type="line" smooth="yes"/>
			<point x="45" y="66"/>
			<point x="18" y="66"/>
			<point x="18" y="33" type="curve" smooth="yes"/>
			<point x="18" y="0"/>
			<point x="44" y="0"/>
			<point x="61" y="0" type="curve" smooth="yes"/>
			<point x="269" y="0" type="line" smooth="yes"/>
			<point x="402" y="0"/>
			<point x="491" y="141"/>
			<point x="491" y="301" type="curve" smooth="yes"/>
			<point x="491" y="460"/>
			<point x="405" y="611"/>
			<point x="269" y="611" type="curve" smooth="yes"/>
		</contour>
		<contour>
			<point x="156" y="66" type="line"/>
			<point x="156" y="545" type="line"/>
			<point x="248" y="545" type="line" smooth="yes"/>
			<point x="360" y="545"/>
			<point x="415" y="415"/>
			<point x="415" y="301" type="curve" smooth="yes"/>
			<point x="415" y="186"/>
			<point x="358" y="66"/>
			<point x="248" y="66" type="curve" smooth="yes"/>
		</contour>
	</outline>
</glyph>
<glyph name="E" format="2">
  <advance width="1062"/>
  <unicode hex="0045"/>
  <outline>
    <contour>
      <point x="342" y="566" type="line"/>
      <point x="594" y="566" type="line"/>
      <point x="594" y="494"/>
      <point x="594" y="454"/>
      <point x="670" y="454" type="curve" smooth="yes"/>
      <point x="746" y="454"/>
      <point x="746" y="502"/>
      <point x="746" y="540" type="curve" smooth="yes"/>
      <point x="746" y="724" type="line" smooth="yes"/>
      <point x="746" y="762"/>
      <point x="746" y="810"/>
      <point x="670" y="810" type="curve" smooth="yes"/>
      <point x="594" y="810"/>
      <point x="594" y="770"/>
      <point x="594" y="698" type="curve"/>
      <point x="342" y="698" type="line"/>
      <point x="342" y="1090" type="line"/>
      <point x="820" y="1090" type="line"/>
      <point x="820" y="988" type="line" smooth="yes"/>
      <point x="820" y="950"/>
      <point x="820" y="902"/>
      <point x="896" y="902" type="curve" smooth="yes"/>
      <point x="972" y="902"/>
      <point x="972" y="950"/>
      <point x="972" y="988" type="curve" smooth="yes"/>
      <point x="972" y="1136" type="line" smooth="yes"/>
      <point x="972" y="1204"/>
      <point x="952" y="1222"/>
      <point x="886" y="1222" type="curve" smooth="yes"/>
      <point x="136" y="1222" type="line" smooth="yes"/>
      <point x="104" y="1222"/>
      <point x="50" y="1222"/>
      <point x="50" y="1156" type="curve" smooth="yes"/>
      <point x="50" y="1090"/>
      <point x="104" y="1090"/>
      <point x="136" y="1090" type="curve" smooth="yes"/>
      <point x="190" y="1090" type="line"/>
      <point x="190" y="132" type="line"/>
      <point x="136" y="132" type="line" smooth="yes"/>
      <point x="104" y="132"/>
      <point x="50" y="132"/>
      <point x="50" y="66" type="curve" smooth="yes"/>
      <point x="50" y="0"/>
      <point x="104" y="0"/>
      <point x="136" y="0" type="curve" smooth="yes"/>
      <point x="930" y="0" type="line" smooth="yes"/>
      <point x="996" y="0"/>
      <point x="1016" y="16"/>
      <point x="1016" y="86" type="curve" smooth="yes"/>
      <point x="1016" y="264" type="line" smooth="yes"/>
      <point x="1016" y="302"/>
      <point x="1016" y="350"/>
      <point x="940" y="350" type="curve" smooth="yes"/>
      <point x="864" y="350"/>
      <point x="864" y="302"/>
      <point x="864" y="264" type="curve" smooth="yes"/>
      <point x="864" y="132" type="line"/>
      <point x="342" y="132" type="line"/>
    </contour>
  </outline>
</glyph>
<glyph name="F" format="2">
  <advance width="1062"/>
  <unicode hex="0046"/>
  <outline>
    <contour>
      <point x="354" y="546" type="line"/>
      <point x="614" y="546" type="line"/>
      <point x="614" y="474"/>
      <point x="614" y="434"/>
      <point x="690" y="434" type="curve" smooth="yes"/>
      <point x="766" y="434"/>
      <point x="766" y="482"/>
      <point x="766" y="520" type="curve" smooth="yes"/>
      <point x="766" y="704" type="line" smooth="yes"/>
      <point x="766" y="742"/>
      <point x="766" y="790"/>
      <point x="690" y="790" type="curve" smooth="yes"/>
      <point x="614" y="790"/>
      <point x="614" y="750"/>
      <point x="614" y="678" type="curve"/>
      <point x="354" y="678" type="line"/>
      <point x="354" y="1090" type="line"/>
      <point x="838" y="1090" type="line"/>
      <point x="838" y="988" type="line" smooth="yes"/>
      <point x="838" y="950"/>
      <point x="838" y="902"/>
      <point x="914" y="902" type="curve" smooth="yes"/>
      <point x="990" y="902"/>
      <point x="990" y="950"/>
      <point x="990" y="988" type="curve" smooth="yes"/>
      <point x="990" y="1136" type="line" smooth="yes"/>
      <point x="990" y="1204"/>
      <point x="970" y="1222"/>
      <point x="904" y="1222" type="curve" smooth="yes"/>
      <point x="142" y="1222" type="line" smooth="yes"/>
      <point x="110" y="1222"/>
      <point x="56" y="1222"/>
      <point x="56" y="1156" type="curve" smooth="yes"/>
      <point x="56" y="1090"/>
      <point x="110" y="1090"/>
      <point x="142" y="1090" type="curve" smooth="yes"/>
      <point x="202" y="1090" type="line"/>
      <point x="202" y="132" type="line"/>
      <point x="142" y="132" type="line" smooth="yes"/>
      <point x="110" y="132"/>
      <point x="56" y="132"/>
      <point x="56" y="66" type="curve" smooth="yes"/>
      <point x="56" y="0"/>
      <point x="110" y="0"/>
      <point x="142" y="0" type="curve" smooth="yes"/>
      <point x="450" y="0" type="line" smooth="yes"/>
      <point x="480" y="0"/>
      <point x="538" y="0"/>
      <point x="538" y="66" type="curve" smooth="yes"/>
      <point x="538" y="132"/>
      <point x="478" y="132"/>
      <point x="450" y="132" type="curve" smooth="yes"/>
      <point x="354" y="132" type="line"/>
    </contour>
  </outline>
</glyph>
<glyph name="G" format="2">
  <advance width="1062"/>
  <unicode hex="0047"/>
  <outline>
    <contour>
      <point x="908" y="412" type="line"/>
      <point x="952" y="412"/>
      <point x="1002" y="412"/>
      <point x="1002" y="478" type="curve" smooth="yes"/>
      <point x="1002" y="544"/>
      <point x="948" y="544"/>
      <point x="916" y="544" type="curve" smooth="yes"/>
      <point x="672" y="544" type="line" smooth="yes"/>
      <point x="640" y="544"/>
      <point x="586" y="544"/>
      <point x="586" y="478" type="curve" smooth="yes"/>
      <point x="586" y="412"/>
      <point x="640" y="412"/>
      <point x="672" y="412" type="curve" smooth="yes"/>
      <point x="752" y="412" type="line"/>
      <point x="732" y="236"/>
      <point x="652" y="112"/>
      <point x="532" y="112" type="curve" smooth="yes"/>
      <point x="378" y="112"/>
      <point x="228" y="320"/>
      <point x="228" y="610" type="curve" smooth="yes"/>
      <point x="228" y="906"/>
      <point x="382" y="1110"/>
      <point x="534" y="1110" type="curve" smooth="yes"/>
      <point x="600" y="1110"/>
      <point x="724" y="1066"/>
      <point x="756" y="854" type="curve" smooth="yes"/>
      <point x="764" y="796"/>
      <point x="810" y="796"/>
      <point x="832" y="796" type="curve" smooth="yes"/>
      <point x="908" y="796"/>
      <point x="908" y="844"/>
      <point x="908" y="882" type="curve" smooth="yes"/>
      <point x="908" y="1156" type="line" smooth="yes"/>
      <point x="908" y="1186"/>
      <point x="908" y="1242"/>
      <point x="842" y="1242" type="curve" smooth="yes"/>
      <point x="812" y="1242"/>
      <point x="796" y="1234"/>
      <point x="772" y="1190" type="curve" smooth="yes"/>
      <point x="756" y="1160" type="line"/>
      <point x="676" y="1222"/>
      <point x="598" y="1242"/>
      <point x="526" y="1242" type="curve" smooth="yes"/>
      <point x="284" y="1242"/>
      <point x="76" y="972"/>
      <point x="76" y="612" type="curve" smooth="yes"/>
      <point x="76" y="244"/>
      <point x="286" y="-20"/>
      <point x="526" y="-20" type="curve" smooth="yes"/>
      <point x="636" y="-20"/>
      <point x="716" y="36"/>
      <point x="756" y="72" type="curve"/>
      <point x="756" y="0"/>
      <point x="808" y="0"/>
      <point x="832" y="0" type="curve" smooth="yes"/>
      <point x="908" y="0"/>
      <point x="908" y="48"/>
      <point x="908" y="86" type="curve" smooth="yes"/>
    </contour>
  </outline>
</glyph>
<glyph name="H" format="2">
  <advance width="1062"/>
  <unicode hex="0048"/>
  <outline>
    <contour>
      <point x="890" y="1090" type="line"/>
      <point x="932" y="1090" type="line" smooth="yes"/>
      <point x="962" y="1090"/>
      <point x="1020" y="1090"/>
      <point x="1020" y="1156" type="curve" smooth="yes"/>
      <point x="1020" y="1222"/>
      <point x="962" y="1222"/>
      <point x="932" y="1222" type="curve" smooth="yes"/>
      <point x="696" y="1222" type="line" smooth="yes"/>
      <point x="666" y="1222"/>
      <point x="608" y="1222"/>
      <point x="608" y="1156" type="curve" smooth="yes"/>
      <point x="608" y="1090"/>
      <point x="666" y="1090"/>
      <point x="696" y="1090" type="curve" smooth="yes"/>
      <point x="738" y="1090" type="line"/>
      <point x="738" y="702" type="line"/>
      <point x="322" y="702" type="line"/>
      <point x="322" y="1090" type="line"/>
      <point x="364" y="1090" type="line" smooth="yes"/>
      <point x="394" y="1090"/>
      <point x="452" y="1090"/>
      <point x="452" y="1156" type="curve" smooth="yes"/>
      <point x="452" y="1222"/>
      <point x="394" y="1222"/>
      <point x="364" y="1222" type="curve" smooth="yes"/>
      <point x="128" y="1222" type="line" smooth="yes"/>
      <point x="98" y="1222"/>
      <point x="40" y="1222"/>
      <point x="40" y="1156" type="curve" smooth="yes"/>
      <point x="40" y="1090"/>
      <point x="98" y="1090"/>
      <point x="128" y="1090" type="curve" smooth="yes"/>
      <point x="170" y="1090" type="line"/>
      <point x="170" y="132" type="line"/>
      <point x="128" y="132" type="line" smooth="yes"/>
      <point x="98" y="132"/>
      <point x="40" y="132"/>
      <point x="40" y="66" type="curve" smooth="yes"/>
      <point x="40" y="0"/>
      <point x="98" y="0"/>
      <point x="128" y="0" type="curve" smooth="yes"/>
      <point x="364" y="0" type="line" smooth="yes"/>
      <point x="394" y="0"/>
      <point x="452" y="0"/>
      <point x="452" y="66" type="curve" smooth="yes"/>
      <point x="452" y="132"/>
      <point x="394" y="132"/>
      <point x="364" y="132" type="curve" smooth="yes"/>
      <point x="322" y="132" type="line"/>
      <point x="322" y="570" type="line"/>
      <point x="738" y="570" type="line"/>
      <point x="738" y="132" type="line"/>
      <point x="696" y="132" type="line" smooth="yes"/>
      <point x="666" y="132"/>
      <point x="608" y="132"/>
      <point x="608" y="66" type="curve" smooth="yes"/>
      <point x="608" y="0"/>
      <point x="666" y="0"/>
      <point x="696" y="0" type="curve" smooth="yes"/>
      <point x="932" y="0" type="line" smooth="yes"/>
      <point x="962" y="0"/>
      <point x="1020" y="0"/>
      <point x="1020" y="66" type="curve" smooth="yes"/>
      <point x="1020" y="132"/>
      <point x="962" y="132"/>
      <point x="932" y="132" type="curve" smooth="yes"/>
      <point x="890" y="132" type="line"/>
    </contour>
  </outline>
</glyph>
<glyph name="I" format="2">
  <advance width="1062"/>
  <unicode hex="0049"/>
  <outline>
    <contour>
      <point x="606" y="1090" type="line"/>
      <point x="814" y="1090" type="line" smooth="yes"/>
      <point x="844" y="1090"/>
      <point x="902" y="1090"/>
      <point x="902" y="1156" type="curve" smooth="yes"/>
      <point x="902" y="1222"/>
      <point x="842" y="1222"/>
      <point x="814" y="1222" type="curve" smooth="yes"/>
      <point x="246" y="1222" type="line" smooth="yes"/>
      <point x="216" y="1222"/>
      <point x="158" y="1222"/>
      <point x="158" y="1156" type="curve" smooth="yes"/>
      <point x="158" y="1090"/>
      <point x="218" y="1090"/>
      <point x="246" y="1090" type="curve" smooth="yes"/>
      <point x="454" y="1090" type="line"/>
      <point x="454" y="132" type="line"/>
      <point x="246" y="132" type="line" smooth="yes"/>
      <point x="216" y="132"/>
      <point x="158" y="132"/>
      <point x="158" y="66" type="curve" smooth="yes"/>
      <point x="158" y="0"/>
      <point x="218" y="0"/>
      <point x="246" y="0" type="curve" smooth="yes"/>
      <point x="814" y="0" type="line" smooth="yes"/>
      <point x="844" y="0"/>
      <point x="902" y="0"/>
      <point x="902" y="66" type="curve" smooth="yes"/>
      <point x="902" y="132"/>
      <point x="842" y="132"/>
      <point x="814" y="132" type="curve" smooth="yes"/>
      <point x="606" y="132" type="line"/>
    </contour>
  </outline>
</glyph>
<glyph name="K" format="2">
	<unicode hex="004B"/>
	<advance width="531"/>
	<outline>
		<contour>
			<point x="282" y="357" type="line"/>
			<point x="433" y="545" type="line"/>
			<point x="465" y="545"/>
			<point x="491" y="545"/>
			<point x="491" y="578" type="curve" smooth="yes"/>
			<point x="491" y="611"/>
			<point x="461" y="611"/>
			<point x="447" y="611" type="curve" smooth="yes"/>
			<point x="359" y="611" type="line" smooth="yes"/>
			<point x="344" y="611"/>
			<point x="316" y="611"/>
			<point x="316" y="578" type="curve" smooth="yes"/>
			<point x="316" y="550"/>
			<point x="337" y="545"/>
			<point x="353" y="545" type="curve"/>
			<point x="149" y="291" type="line"/>
			<point x="149" y="545" type="line"/>
			<point x="168" y="545" type="line" smooth="yes"/>
			<point x="182" y="545"/>
			<point x="212" y="545"/>
			<point x="212" y="578" type="curve" smooth="yes"/>
			<point x="212" y="611"/>
			<point x="182" y="611"/>
			<point x="168" y="611" type="curve" smooth="yes"/>
			<point x="68" y="611" type="line" smooth="yes"/>
			<point x="51" y="611"/>
			<point x="25" y="611"/>
			<point x="25" y="578" type="curve" smooth="yes"/>
			<point x="25" y="545"/>
			<point x="52" y="545"/>
			<point x="68" y="545" type="curve" smooth="yes"/>
			<point x="87" y="545" type="line"/>
			<point x="87" y="66" type="line"/>
			<point x="68" y="66" type="line" smooth="yes"/>
			<point x="52" y="66"/>
			<point x="25" y="66"/>
			<point x="25" y="33" type="curve" smooth="yes"/>
			<point x="25" y="0"/>
			<point x="51" y="0"/>
			<point x="68" y="0" type="curve" smooth="yes"/>
			<point x="168" y="0" type="line" smooth="yes"/>
			<point x="182" y="0"/>
			<point x="212" y="0"/>
			<point x="212" y="33" type="curve" smooth="yes"/>
			<point x="212" y="66"/>
			<point x="182" y="66"/>
			<point x="168" y="66" type="curve" smooth="yes"/>
			<point x="149" y="66" type="line"/>
			<point x="149" y="193" type="line"/>
			<point x="240" y="305" type="line"/>
			<point x="376" y="67" type="line"/>
			<point x="352" y="67"/>
			<point x="338" y="52"/>
			<point x="338" y="33" type="curve" smooth="yes"/>
			<point x="338" y="0"/>
			<point x="368" y="0"/>
			<point x="382" y="0" type="curve" smooth="yes"/>
			<point x="457" y="0" type="line" smooth="yes"/>
			<point x="471" y="0"/>
			<point x="501" y="0"/>
			<point x="501" y="33" type="curve" smooth="yes"/>
			<point x="501" y="66"/>
			<point x="474" y="66"/>
			<point x="448" y="66" type="curve"/>
		</contour>
	</outline>
</glyph>
<glyph name="L" format="2">
  <advance width="1062"/>
  <unicode hex="004C"/>
  <outline>
    <contour>
      <point x="366" y="1090" type="line"/>
      <point x="470" y="1090" type="line" smooth="yes"/>
      <point x="500" y="1090"/>
      <point x="558" y="1090"/>
      <point x="558" y="1156" type="curve" smooth="yes"/>
      <point x="558" y="1222"/>
      <point x="500" y="1222"/>
      <point x="470" y="1222" type="curve" smooth="yes"/>
      <point x="148" y="1222" type="line" smooth="yes"/>
      <point x="118" y="1222"/>
      <point x="60" y="1222"/>
      <point x="60" y="1156" type="curve" smooth="yes"/>
      <point x="60" y="1090"/>
      <point x="120" y="1090"/>
      <point x="148" y="1090" type="curve" smooth="yes"/>
      <point x="214" y="1090" type="line"/>
      <point x="214" y="132" type="line"/>
      <point x="148" y="132" type="line" smooth="yes"/>
      <point x="118" y="132"/>
      <point x="60" y="132"/>
      <point x="60" y="66" type="curve" smooth="yes"/>
      <point x="60" y="0"/>
      <point x="120" y="0"/>
      <point x="148" y="0" type="curve" smooth="yes"/>
      <point x="902" y="0" type="line" smooth="yes"/>
      <point x="968" y="0"/>
      <point x="988" y="16"/>
      <point x="988" y="86" type="curve" smooth="yes"/>
      <point x="988" y="264" type="line" smooth="yes"/>
      <point x="988" y="306"/>
      <point x="988" y="350"/>
      <point x="912" y="350" type="curve" smooth="yes"/>
      <point x="836" y="350"/>
      <point x="836" y="306"/>
      <point x="836" y="264" type="curve" smooth="yes"/>
      <point x="836" y="132" type="line"/>
      <point x="366" y="132" type="line"/>
    </contour>
  </outline>
</glyph>
<glyph name="M" format="2">
  <advance width="1062"/>
  <unicode hex="004D"/>
  <outline>
    <contour>
      <point x="262" y="132" type="curve"/>
      <point x="262" y="1060" type="line"/>
      <point x="264" y="1060" type="line"/>
      <point x="274" y="1010"/>
      <point x="280" y="988"/>
      <point x="300" y="928" type="curve" smooth="yes"/>
      <point x="347" y="781"/>
      <point x="395" y="634"/>
      <point x="442" y="486" type="curve" smooth="yes"/>
      <point x="454" y="448"/>
      <point x="466" y="408"/>
      <point x="530" y="408" type="curve" smooth="yes"/>
      <point x="548" y="408"/>
      <point x="592" y="416"/>
      <point x="606" y="456" type="curve" smooth="yes"/>
      <point x="756" y="912" type="line" smooth="yes"/>
      <point x="782" y="990"/>
      <point x="798" y="1050"/>
      <point x="798" y="1056" type="curve"/>
      <point x="800" y="1056" type="line"/>
      <point x="798" y="132" type="line"/>
      <point x="746" y="132"/>
      <point x="692" y="132"/>
      <point x="692" y="66" type="curve" smooth="yes"/>
      <point x="692" y="0"/>
      <point x="752" y="0"/>
      <point x="780" y="0" type="curve" smooth="yes"/>
      <point x="940" y="0" type="line" smooth="yes"/>
      <point x="970" y="0"/>
      <point x="1028" y="0"/>
      <point x="1028" y="66" type="curve" smooth="yes"/>
      <point x="1028" y="132"/>
      <point x="974" y="132"/>
      <point x="922" y="132" type="curve"/>
      <point x="922" y="1090" type="line"/>
      <point x="974" y="1090"/>
      <point x="1028" y="1090"/>
      <point x="1028" y="1156" type="curve" smooth="yes"/>
      <point x="1028" y="1222"/>
      <point x="968" y="1222"/>
      <point x="940" y="1222" type="curve" smooth="yes"/>
      <point x="824" y="1222" type="line" smooth="yes"/>
      <point x="784" y="1222"/>
      <point x="734" y="1222"/>
      <point x="710" y="1146" type="curve" smooth="yes"/>
      <point x="596" y="792" type="line" smooth="yes"/>
      <point x="580" y="742"/>
      <point x="542" y="628"/>
      <point x="530" y="566" type="curve"/>
      <point x="528" y="566" type="line"/>
      <point x="516" y="630"/>
      <point x="506" y="662"/>
      <point x="482" y="736" type="curve" smooth="yes"/>
      <point x="350" y="1140" type="line" smooth="yes"/>
      <point x="332" y="1196"/>
      <point x="316" y="1222"/>
      <point x="236" y="1222" type="curve" smooth="yes"/>
      <point x="120" y="1222" type="line" smooth="yes"/>
      <point x="90" y="1222"/>
      <point x="32" y="1222"/>
      <point x="32" y="1156" type="curve" smooth="yes"/>
      <point x="32" y="1090"/>
      <point x="86" y="1090"/>
      <point x="138" y="1090" type="curve"/>
      <point x="138" y="132" type="line"/>
      <point x="86" y="132"/>
      <point x="32" y="132"/>
      <point x="32" y="66" type="curve" smooth="yes"/>
      <point x="32" y="0"/>
      <point x="92" y="0"/>
      <point x="120" y="0" type="curve" smooth="yes"/>
      <point x="280" y="0" type="line" smooth="yes"/>
      <point x="310" y="0"/>
      <point x="368" y="0"/>
      <point x="368" y="66" type="curve" smooth="yes"/>
      <point x="368" y="132"/>
      <point x="314" y="132"/>
    </contour>
  </outline>
</glyph>
<glyph name="N" format="2">
  <advance width="531"/>
  <unicode hex="004E"/>
  <outline>
    <contour>
      <point x="200" y="571" type="line" smooth="yes"/>
      <point x="186" y="611"/>
      <point x="163" y="611"/>
      <point x="141" y="611" type="curve" smooth="yes"/>
      <point x="71" y="611" type="line" smooth="yes"/>
      <point x="56" y="611"/>
      <point x="27" y="611"/>
      <point x="27" y="578" type="curve" smooth="yes"/>
      <point x="27" y="545"/>
      <point x="56" y="545"/>
      <point x="71" y="545" type="curve" smooth="yes"/>
      <point x="92" y="545" type="line"/>
      <point x="92" y="66" type="line"/>
      <point x="71" y="66" type="line" smooth="yes"/>
      <point x="56" y="66"/>
      <point x="27" y="66"/>
      <point x="27" y="33" type="curve" smooth="yes"/>
      <point x="27" y="0"/>
      <point x="56" y="0"/>
      <point x="71" y="0" type="curve" smooth="yes"/>
      <point x="175" y="0" type="line" smooth="yes"/>
      <point x="190" y="0"/>
      <point x="219" y="0"/>
      <point x="219" y="33" type="curve" smooth="yes"/>
      <point x="219" y="66"/>
      <point x="190" y="66"/>
      <point x="175" y="66" type="curve" smooth="yes"/>
      <point x="154" y="66" type="line"/>
      <point x="154" y="532" type="line"/>
      <point x="155" y="532" type="line"/>
      <point x="176" y="469"/>
      <point x="176" y="467"/>
      <point x="196" y="411" type="curve" smooth="yes"/>
      <point x="330" y="40" type="line" smooth="yes"/>
      <point x="344" y="0"/>
      <point x="366" y="0"/>
      <point x="392" y="0" type="curve" smooth="yes"/>
      <point x="420" y="0"/>
      <point x="438" y="1"/>
      <point x="438" y="43" type="curve" smooth="yes"/>
      <point x="438" y="545" type="line"/>
      <point x="459" y="545" type="line" smooth="yes"/>
      <point x="474" y="545"/>
      <point x="503" y="545"/>
      <point x="503" y="578" type="curve" smooth="yes"/>
      <point x="503" y="611"/>
      <point x="474" y="611"/>
      <point x="459" y="611" type="curve" smooth="yes"/>
      <point x="355" y="611" type="line" smooth="yes"/>
      <point x="340" y="611"/>
      <point x="311" y="611"/>
      <point x="311" y="578" type="curve" smooth="yes"/>
      <point x="311" y="545"/>
      <point x="340" y="545"/>
      <point x="355" y="545" type="curve" smooth="yes"/>
      <point x="376" y="545" type="line"/>
      <point x="376" y="79" type="line"/>
      <point x="375" y="79" type="line"/>
      <point x="354" y="142"/>
      <point x="354" y="144"/>
      <point x="334" y="200" type="curve" smooth="yes"/>
    </contour>
  </outline>
</glyph>
<glyph name="O" format="2">
  <advance width="1062"/>
  <unicode hex="004F"/>
  <outline>
    <contour>
      <point x="946" y="610" type="curve" smooth="yes"/>
      <point x="946" y="1188"/>
      <point x="904" y="1242"/>
      <point x="530" y="1242" type="curve" smooth="yes"/>
      <point x="158" y="1242"/>
      <point x="114" y="1188"/>
      <point x="114" y="612" type="curve" smooth="yes"/>
      <point x="114" y="34"/>
      <point x="156" y="-20"/>
      <point x="530" y="-20" type="curve" smooth="yes"/>
      <point x="902" y="-20"/>
      <point x="946" y="34"/>
    </contour>
    <contour>
      <point x="530" y="112" type="curve" smooth="yes"/>
      <point x="360" y="112"/>
      <point x="312" y="154"/>
      <point x="290" y="246" type="curve" smooth="yes"/>
      <point x="266" y="348"/>
      <point x="266" y="512"/>
      <point x="266" y="628" type="curve" smooth="yes"/>
      <point x="266" y="762"/>
      <point x="266" y="880"/>
      <point x="288" y="976" type="curve" smooth="yes"/>
      <point x="314" y="1090"/>
      <point x="382" y="1110"/>
      <point x="530" y="1110" type="curve" smooth="yes"/>
      <point x="696" y="1110"/>
      <point x="750" y="1082"/>
      <point x="776" y="966" type="curve" smooth="yes"/>
      <point x="794" y="876"/>
      <point x="794" y="736"/>
      <point x="794" y="628" type="curve" smooth="yes"/>
      <point x="794" y="512"/>
      <point x="794" y="362"/>
      <point x="774" y="262" type="curve" smooth="yes"/>
      <point x="752" y="162"/>
      <point x="714" y="112"/>
    </contour>
  </outline>
</glyph>
<glyph name="P" format="2">
  <advance width="531"/>
  <unicode hex="0050"/>
  <outline>
    <contour>
      <point x="171" y="240" type="line"/>
      <point x="294" y="240" type="line" smooth="yes"/>
      <point x="413" y="240"/>
      <point x="486" y="333"/>
      <point x="486" y="425" type="curve" smooth="yes"/>
      <point x="486" y="520"/>
      <point x="411" y="611"/>
      <point x="294" y="611" type="curve" smooth="yes"/>
      <point x="68" y="611" type="line" smooth="yes"/>
      <point x="52" y="611"/>
      <point x="25" y="611"/>
      <point x="25" y="578" type="curve" smooth="yes"/>
      <point x="25" y="545"/>
      <point x="52" y="545"/>
      <point x="68" y="545" type="curve" smooth="yes"/>
      <point x="95" y="545" type="line"/>
      <point x="95" y="66" type="line"/>
      <point x="68" y="66" type="line" smooth="yes"/>
      <point x="52" y="66"/>
      <point x="25" y="66"/>
      <point x="25" y="33" type="curve" smooth="yes"/>
      <point x="25" y="0"/>
      <point x="52" y="0"/>
      <point x="68" y="0" type="curve" smooth="yes"/>
      <point x="198" y="0" type="line" smooth="yes"/>
      <point x="214" y="0"/>
      <point x="241" y="0"/>
      <point x="241" y="33" type="curve" smooth="yes"/>
      <point x="241" y="66"/>
      <point x="214" y="66"/>
      <point x="198" y="66" type="curve" smooth="yes"/>
      <point x="171" y="66" type="line"/>
    </contour>
    <contour>
      <point x="171" y="545" type="line"/>
      <point x="273" y="545" type="line" smooth="yes"/>
      <point x="370" y="545"/>
      <point x="410" y="475"/>
      <point x="410" y="426" type="curve" smooth="yes"/>
      <point x="410" y="373"/>
      <point x="368" y="306"/>
      <point x="273" y="306" type="curve" smooth="yes"/>
      <point x="171" y="306" type="line"/>
    </contour>
  </outline>
</glyph>
<glyph name="Q" format="2">
  <advance width="1062"/>
  <unicode hex="0051"/>
  <outline>
    <contour>
      <point x="850" y="-278" type="line" smooth="yes"/>
      <point x="878" y="-278"/>
      <point x="918" y="-278"/>
      <point x="918" y="-236" type="curve" smooth="yes"/>
      <point x="918" y="-228"/>
      <point x="918" y="-224"/>
      <point x="890" y="-174" type="curve" smooth="yes"/>
      <point x="864" y="-122"/>
      <point x="820" y="-42"/>
      <point x="792" y="12" type="curve"/>
      <point x="868" y="44"/>
      <point x="912" y="90"/>
      <point x="934" y="280" type="curve" smooth="yes"/>
      <point x="946" y="384"/>
      <point x="946" y="516"/>
      <point x="946" y="610" type="curve" smooth="yes"/>
      <point x="946" y="1188"/>
      <point x="904" y="1242"/>
      <point x="530" y="1242" type="curve" smooth="yes"/>
      <point x="158" y="1242"/>
      <point x="114" y="1188"/>
      <point x="114" y="612" type="curve" smooth="yes"/>
      <point x="114" y="34"/>
      <point x="156" y="-20"/>
      <point x="530" y="-20" type="curve" smooth="yes"/>
      <point x="600" y="-20"/>
      <point x="604" y="-20"/>
      <point x="630" y="-18" type="curve"/>
      <point x="660" y="-82"/>
      <point x="694" y="-146"/>
      <point x="728" y="-208" type="curve" smooth="yes"/>
      <point x="766" y="-276"/>
      <point x="768" y="-278"/>
      <point x="824" y="-278" type="curve" smooth="yes"/>
    </contour>
    <contour>
      <point x="562" y="112" type="line"/>
      <point x="516" y="112" type="line" smooth="yes"/>
      <point x="330" y="112"/>
      <point x="300" y="174"/>
      <point x="282" y="278" type="curve" smooth="yes"/>
      <point x="266" y="372"/>
      <point x="266" y="520"/>
      <point x="266" y="610" type="curve" smooth="yes"/>
      <point x="266" y="722"/>
      <point x="266" y="864"/>
      <point x="284" y="958" type="curve" smooth="yes"/>
      <point x="308" y="1070"/>
      <point x="350" y="1110"/>
      <point x="530" y="1110" type="curve" smooth="yes"/>
      <point x="716" y="1110"/>
      <point x="756" y="1066"/>
      <point x="778" y="944" type="curve" smooth="yes"/>
      <point x="794" y="850"/>
      <point x="794" y="702"/>
      <point x="794" y="612" type="curve" smooth="yes"/>
      <point x="794" y="524"/>
      <point x="794" y="448"/>
      <point x="788" y="356" type="curve" smooth="yes"/>
      <point x="776" y="194"/>
      <point x="738" y="166"/>
      <point x="718" y="152" type="curve"/>
      <point x="630" y="314" type="line" smooth="yes"/>
      <point x="616" y="340"/>
      <point x="612" y="342"/>
      <point x="570" y="342" type="curve" smooth="yes"/>
      <point x="542" y="342" type="line" smooth="yes"/>
      <point x="514" y="342"/>
      <point x="472" y="342"/>
      <point x="472" y="300" type="curve" smooth="yes"/>
      <point x="472" y="282"/>
      <point x="500" y="236"/>
      <point x="506" y="224" type="curve" smooth="yes"/>
    </contour>
  </outline>
</glyph>
<glyph name="R" format="2">
  <advance width="531"/>
  <unicode hex="0052"/>
  <outline>
    <contour>
      <point x="356" y="304" type="curve"/>
      <point x="401" y="331"/>
      <point x="438" y="382"/>
      <point x="438" y="442" type="curve" smooth="yes"/>
      <point x="438" y="528"/>
      <point x="360" y="611"/>
      <point x="242" y="611" type="curve" smooth="yes"/>
      <point x="64" y="611" type="line" smooth="yes"/>
      <point x="49" y="611"/>
      <point x="20" y="611"/>
      <point x="20" y="578" type="curve" smooth="yes"/>
      <point x="20" y="545"/>
      <point x="49" y="545"/>
      <point x="64" y="545" type="curve" smooth="yes"/>
      <point x="85" y="545" type="line"/>
      <point x="85" y="66" type="line"/>
      <point x="64" y="66" type="line" smooth="yes"/>
      <point x="49" y="66"/>
      <point x="20" y="66"/>
      <point x="20" y="33" type="curve" smooth="yes"/>
      <point x="20" y="0"/>
      <point x="49" y="0"/>
      <point x="64" y="0" type="curve" smooth="yes"/>
      <point x="182" y="0" type="line" smooth="yes"/>
      <point x="197" y="0"/>
      <point x="226" y="0"/>
      <point x="226" y="33" type="curve" smooth="yes"/>
      <point x="226" y="66"/>
      <point x="197" y="66"/>
      <point x="182" y="66" type="curve" smooth="yes"/>
      <point x="161" y="66" type="line"/>
      <point x="161" y="273" type="line"/>
      <point x="236" y="273" type="line" smooth="yes"/>
      <point x="257" y="273"/>
      <point x="282" y="273"/>
      <point x="312" y="247" type="curve" smooth="yes"/>
      <point x="335" y="228"/>
      <point x="335" y="205"/>
      <point x="335" y="165" type="curve" smooth="yes"/>
      <point x="335" y="97"/>
      <point x="335" y="62"/>
      <point x="362" y="27" type="curve" smooth="yes"/>
      <point x="385" y="-4"/>
      <point x="418" y="-10"/>
      <point x="437" y="-10" type="curve" smooth="yes"/>
      <point x="501" y="-10"/>
      <point x="528" y="52"/>
      <point x="528" y="97" type="curve" smooth="yes"/>
      <point x="528" y="131"/>
      <point x="498" y="131"/>
      <point x="490" y="131" type="curve" smooth="yes"/>
      <point x="482" y="131"/>
      <point x="453" y="131"/>
      <point x="452" y="99" type="curve" smooth="yes"/>
      <point x="452" y="92"/>
      <point x="450" y="56"/>
      <point x="436" y="56" type="curve" smooth="yes"/>
      <point x="411" y="56"/>
      <point x="411" y="102"/>
      <point x="411" y="150" type="curve" smooth="yes"/>
      <point x="411" y="213"/>
      <point x="411" y="220"/>
      <point x="403" y="242" type="curve" smooth="yes"/>
      <point x="393" y="266"/>
      <point x="377" y="288"/>
    </contour>
    <contour>
      <point x="230" y="339" type="curve" smooth="yes"/>
      <point x="161" y="339" type="line"/>
      <point x="161" y="545" type="line"/>
      <point x="230" y="545" type="line" smooth="yes"/>
      <point x="320" y="545"/>
      <point x="362" y="488"/>
      <point x="362" y="442" type="curve" smooth="yes"/>
      <point x="362" y="396"/>
      <point x="320" y="339"/>
    </contour>
  </outline>
</glyph>
<glyph name="S" format="2">
  <advance width="1062"/>
  <unicode hex="0053"/>
  <outline>
    <contour>
      <point x="106" y="910" type="curve" smooth="yes"/>
      <point x="106" y="796"/>
      <point x="172" y="718"/>
      <point x="190" y="700" type="curve" smooth="yes"/>
      <point x="272" y="616"/>
      <point x="330" y="604"/>
      <point x="478" y="570" type="curve" smooth="yes"/>
      <point x="504" y="564"/>
      <point x="532" y="556"/>
      <point x="644" y="530" type="curve" smooth="yes"/>
      <point x="710" y="516"/>
      <point x="812" y="450"/>
      <point x="812" y="326" type="curve" smooth="yes"/>
      <point x="812" y="220"/>
      <point x="726" y="112"/>
      <point x="576" y="112" type="curve" smooth="yes"/>
      <point x="524" y="112"/>
      <point x="418" y="119"/>
      <point x="343" y="172" type="curve" smooth="yes"/>
      <point x="297" y="204"/>
      <point x="263" y="253"/>
      <point x="258" y="328" type="curve" smooth="yes"/>
      <point x="256" y="366"/>
      <point x="254" y="406"/>
      <point x="182" y="406" type="curve" smooth="yes"/>
      <point x="106" y="406"/>
      <point x="106" y="356"/>
      <point x="106" y="320" type="curve" smooth="yes"/>
      <point x="106" y="66" type="line" smooth="yes"/>
      <point x="106" y="36"/>
      <point x="106" y="-20"/>
      <point x="172" y="-20" type="curve" smooth="yes"/>
      <point x="196" y="-20"/>
      <point x="230" y="-14"/>
      <point x="250" y="62" type="curve"/>
      <point x="344" y="0"/>
      <point x="476" y="-20"/>
      <point x="574" y="-20" type="curve" smooth="yes"/>
      <point x="810" y="-20"/>
      <point x="954" y="158"/>
      <point x="954" y="336" type="curve" smooth="yes"/>
      <point x="954" y="420"/>
      <point x="922" y="508"/>
      <point x="856" y="578" type="curve" smooth="yes"/>
      <point x="780" y="656"/>
      <point x="718" y="670"/>
      <point x="548" y="710" type="curve" smooth="yes"/>
      <point x="474" y="726"/>
      <point x="418" y="738"/>
      <point x="404" y="742" type="curve" smooth="yes"/>
      <point x="328" y="764"/>
      <point x="248" y="828"/>
      <point x="248" y="922" type="curve" smooth="yes"/>
      <point x="248" y="1018"/>
      <point x="342" y="1110"/>
      <point x="480" y="1110" type="curve" smooth="yes"/>
      <point x="710" y="1110"/>
      <point x="738" y="932"/>
      <point x="748" y="870" type="curve" smooth="yes"/>
      <point x="758" y="816"/>
      <point x="804" y="816"/>
      <point x="824" y="816" type="curve" smooth="yes"/>
      <point x="900" y="816"/>
      <point x="900" y="864"/>
      <point x="900" y="902" type="curve" smooth="yes"/>
      <point x="900" y="1156" type="line" smooth="yes"/>
      <point x="900" y="1186"/>
      <point x="900" y="1242"/>
      <point x="834" y="1242" type="curve" smooth="yes"/>
      <point x="800" y="1242"/>
      <point x="774" y="1228"/>
      <point x="756" y="1158" type="curve"/>
      <point x="720" y="1184"/>
      <point x="634" y="1242"/>
      <point x="480" y="1242" type="curve" smooth="yes"/>
      <point x="262" y="1242"/>
      <point x="106" y="1088"/>
    </contour>
  </outline>
</glyph>
<glyph name="T" format="2">
  <advance width="1062"/>
  <unicode hex="0054"/>
  <outline>
    <contour>
      <point x="606" y="1090" type="line"/>
      <point x="854" y="1090" type="line"/>
      <point x="854" y="988" type="line" smooth="yes"/>
      <point x="854" y="950"/>
      <point x="854" y="902"/>
      <point x="930" y="902" type="curve" smooth="yes"/>
      <point x="1006" y="902"/>
      <point x="1006" y="950"/>
      <point x="1006" y="988" type="curve" smooth="yes"/>
      <point x="1006" y="1136" type="line" smooth="yes"/>
      <point x="1006" y="1204"/>
      <point x="986" y="1222"/>
      <point x="920" y="1222" type="curve" smooth="yes"/>
      <point x="142" y="1222" type="line" smooth="yes"/>
      <point x="80" y="1222"/>
      <point x="54" y="1210"/>
      <point x="54" y="1136" type="curve" smooth="yes"/>
      <point x="54" y="988" type="line" smooth="yes"/>
      <point x="54" y="950"/>
      <point x="54" y="902"/>
      <point x="130" y="902" type="curve" smooth="yes"/>
      <point x="206" y="902"/>
      <point x="206" y="950"/>
      <point x="206" y="988" type="curve" smooth="yes"/>
      <point x="206" y="1090" type="line"/>
      <point x="454" y="1090" type="line"/>
      <point x="454" y="132" type="line"/>
      <point x="358" y="132" type="line" smooth="yes"/>
      <point x="328" y="132"/>
      <point x="270" y="132"/>
      <point x="270" y="66" type="curve" smooth="yes"/>
      <point x="270" y="0"/>
      <point x="330" y="0"/>
      <point x="358" y="0" type="curve" smooth="yes"/>
      <point x="702" y="0" type="line" smooth="yes"/>
      <point x="732" y="0"/>
      <point x="790" y="0"/>
      <point x="790" y="66" type="curve" smooth="yes"/>
      <point x="790" y="132"/>
      <point x="730" y="132"/>
      <point x="702" y="132" type="curve" smooth="yes"/>
      <point x="606" y="132" type="line"/>
    </contour>
  </outline>
</glyph>
<glyph name="U" format="2">
  <advance width="1062"/>
  <unicode hex="0055"/>
  <outline>
    <contour>
      <point x="914" y="1090" type="line"/>
      <point x="968" y="1090" type="line" smooth="yes"/>
      <point x="1000" y="1090"/>
      <point x="1054" y="1090"/>
      <point x="1054" y="1156" type="curve" smooth="yes"/>
      <point x="1054" y="1222"/>
      <point x="1000" y="1222"/>
      <point x="968" y="1222" type="curve" smooth="yes"/>
      <point x="708" y="1222" type="line" smooth="yes"/>
      <point x="676" y="1222"/>
      <point x="622" y="1222"/>
      <point x="622" y="1156" type="curve" smooth="yes"/>
      <point x="622" y="1090"/>
      <point x="676" y="1090"/>
      <point x="708" y="1090" type="curve" smooth="yes"/>
      <point x="762" y="1090" type="line"/>
      <point x="762" y="416" type="line" smooth="yes"/>
      <point x="762" y="216"/>
      <point x="636" y="112"/>
      <point x="530" y="112" type="curve" smooth="yes"/>
      <point x="424" y="112"/>
      <point x="298" y="216"/>
      <point x="298" y="416" type="curve" smooth="yes"/>
      <point x="298" y="1090" type="line"/>
      <point x="352" y="1090" type="line" smooth="yes"/>
      <point x="384" y="1090"/>
      <point x="438" y="1090"/>
      <point x="438" y="1156" type="curve" smooth="yes"/>
      <point x="438" y="1222"/>
      <point x="384" y="1222"/>
      <point x="352" y="1222" type="curve" smooth="yes"/>
      <point x="92" y="1222" type="line" smooth="yes"/>
      <point x="60" y="1222"/>
      <point x="6" y="1222"/>
      <point x="6" y="1156" type="curve" smooth="yes"/>
      <point x="6" y="1090"/>
      <point x="60" y="1090"/>
      <point x="92" y="1090" type="curve" smooth="yes"/>
      <point x="146" y="1090" type="line"/>
      <point x="146" y="412" type="line" smooth="yes"/>
      <point x="146" y="156"/>
      <point x="330" y="-20"/>
      <point x="530" y="-20" type="curve" smooth="yes"/>
      <point x="730" y="-20"/>
      <point x="914" y="154"/>
      <point x="914" y="412" type="curve" smooth="yes"/>
    </contour>
  </outline>
</glyph>
<glyph name="V" format="2">
  <advance width="1062"/>
  <unicode hex="0056"/>
  <outline>
    <contour>
      <point x="908" y="1090" type="line"/>
      <point x="970" y="1090"/>
      <point x="1022" y="1090"/>
      <point x="1022" y="1156" type="curve" smooth="yes"/>
      <point x="1022" y="1222"/>
      <point x="964" y="1222"/>
      <point x="934" y="1222" type="curve" smooth="yes"/>
      <point x="728" y="1222" type="line" smooth="yes"/>
      <point x="698" y="1222"/>
      <point x="642" y="1222"/>
      <point x="642" y="1156" type="curve" smooth="yes"/>
      <point x="642" y="1090"/>
      <point x="692" y="1090"/>
      <point x="752" y="1090" type="curve"/>
      <point x="610" y="522" type="line" smooth="yes"/>
      <point x="584" y="414"/>
      <point x="542" y="246"/>
      <point x="532" y="160" type="curve"/>
      <point x="530" y="160" type="line"/>
      <point x="520" y="244"/>
      <point x="478" y="410"/>
      <point x="452" y="514" type="curve" smooth="yes"/>
      <point x="308" y="1090" type="line"/>
      <point x="368" y="1090"/>
      <point x="418" y="1090"/>
      <point x="418" y="1156" type="curve" smooth="yes"/>
      <point x="418" y="1222"/>
      <point x="362" y="1222"/>
      <point x="332" y="1222" type="curve" smooth="yes"/>
      <point x="126" y="1222" type="line" smooth="yes"/>
      <point x="96" y="1222"/>
      <point x="38" y="1222"/>
      <point x="38" y="1156" type="curve" smooth="yes"/>
      <point x="38" y="1090"/>
      <point x="90" y="1090"/>
      <point x="152" y="1090" type="curve"/>
      <point x="412" y="58" type="line" smooth="yes"/>
      <point x="432" y="-20"/>
      <point x="476" y="-20"/>
      <point x="530" y="-20" type="curve" smooth="yes"/>
      <point x="584" y="-20"/>
      <point x="628" y="-20"/>
      <point x="648" y="58" type="curve" smooth="yes"/>
    </contour>
  </outline>
</glyph>
<glyph name="W" format="2">
  <advance width="1062"/>
  <unicode hex="0057"/>
  <outline>
    <contour>
      <point x="960" y="1088" type="line"/>
      <point x="992" y="1088"/>
      <point x="1036" y="1104"/>
      <point x="1036" y="1156" type="curve" smooth="yes"/>
      <point x="1036" y="1222"/>
      <point x="980" y="1222"/>
      <point x="950" y="1222" type="curve" smooth="yes"/>
      <point x="792" y="1222" type="line" smooth="yes"/>
      <point x="762" y="1222"/>
      <point x="706" y="1222"/>
      <point x="706" y="1156" type="curve" smooth="yes"/>
      <point x="706" y="1090"/>
      <point x="762" y="1090"/>
      <point x="792" y="1090" type="curve" smooth="yes"/>
      <point x="836" y="1090" type="line"/>
      <point x="754" y="472" type="line" smooth="yes"/>
      <point x="740" y="366"/>
      <point x="724" y="250"/>
      <point x="718" y="166" type="curve"/>
      <point x="718" y="166" type="line"/>
      <point x="712" y="314"/>
      <point x="620" y="676"/>
      <point x="616" y="686" type="curve" smooth="yes"/>
      <point x="600" y="730"/>
      <point x="562" y="734"/>
      <point x="530" y="734" type="curve" smooth="yes"/>
      <point x="512" y="734"/>
      <point x="470" y="734"/>
      <point x="448" y="696" type="curve" smooth="yes"/>
      <point x="436" y="676"/>
      <point x="348" y="306"/>
      <point x="342" y="166" type="curve"/>
      <point x="340" y="166" type="line"/>
      <point x="336" y="230"/>
      <point x="330" y="282"/>
      <point x="320" y="358" type="curve" smooth="yes"/>
      <point x="224" y="1090" type="line"/>
      <point x="268" y="1090" type="line" smooth="yes"/>
      <point x="298" y="1090"/>
      <point x="354" y="1090"/>
      <point x="354" y="1156" type="curve" smooth="yes"/>
      <point x="354" y="1222"/>
      <point x="298" y="1222"/>
      <point x="268" y="1222" type="curve" smooth="yes"/>
      <point x="110" y="1222" type="line" smooth="yes"/>
      <point x="80" y="1222"/>
      <point x="24" y="1222"/>
      <point x="24" y="1156" type="curve" smooth="yes"/>
      <point x="24" y="1100"/>
      <point x="66" y="1090"/>
      <point x="100" y="1090" type="curve"/>
      <point x="242" y="62" type="line" smooth="yes"/>
      <point x="248" y="22"/>
      <point x="254" y="-20"/>
      <point x="330" y="-20" type="curve" smooth="yes"/>
      <point x="348" y="-20"/>
      <point x="386" y="-20"/>
      <point x="410" y="18" type="curve" smooth="yes"/>
      <point x="424" y="42"/>
      <point x="522" y="490"/>
      <point x="528" y="570" type="curve"/>
      <point x="530" y="570" type="line"/>
      <point x="538" y="484"/>
      <point x="636" y="44"/>
      <point x="648" y="20" type="curve" smooth="yes"/>
      <point x="670" y="-20"/>
      <point x="712" y="-20"/>
      <point x="730" y="-20" type="curve" smooth="yes"/>
      <point x="806" y="-20"/>
      <point x="814" y="24"/>
      <point x="818" y="60" type="curve" smooth="yes"/>
    </contour>
  </outline>
</glyph>
<glyph name="X" format="2">
  <advance width="1062"/>
  <unicode hex="0058"/>
  <outline>
    <contour>
      <point x="594" y="652" type="line"/>
      <point x="816" y="1090" type="line"/>
      <point x="854" y="1090" type="line" smooth="yes"/>
      <point x="884" y="1090"/>
      <point x="942" y="1090"/>
      <point x="942" y="1156" type="curve" smooth="yes"/>
      <point x="942" y="1222"/>
      <point x="882" y="1222"/>
      <point x="854" y="1222" type="curve" smooth="yes"/>
      <point x="646" y="1222" type="line" smooth="yes"/>
      <point x="618" y="1222"/>
      <point x="558" y="1222"/>
      <point x="558" y="1156" type="curve" smooth="yes"/>
      <point x="558" y="1090"/>
      <point x="616" y="1090"/>
      <point x="648" y="1090" type="curve"/>
      <point x="520" y="826" type="line"/>
      <point x="380" y="1090" type="line"/>
      <point x="404" y="1090"/>
      <point x="464" y="1090"/>
      <point x="464" y="1156" type="curve" smooth="yes"/>
      <point x="464" y="1222"/>
      <point x="404" y="1222"/>
      <point x="376" y="1222" type="curve" smooth="yes"/>
      <point x="168" y="1222" type="line" smooth="yes"/>
      <point x="138" y="1222"/>
      <point x="80" y="1222"/>
      <point x="80" y="1156" type="curve" smooth="yes"/>
      <point x="80" y="1090"/>
      <point x="140" y="1090"/>
      <point x="168" y="1090" type="curve" smooth="yes"/>
      <point x="208" y="1090" type="line"/>
      <point x="442" y="652" type="line"/>
      <point x="184" y="132" type="line"/>
      <point x="144" y="132" type="line" smooth="yes"/>
      <point x="114" y="132"/>
      <point x="58" y="132"/>
      <point x="58" y="66" type="curve" smooth="yes"/>
      <point x="58" y="0"/>
      <point x="114" y="0"/>
      <point x="144" y="0" type="curve" smooth="yes"/>
      <point x="352" y="0" type="line" smooth="yes"/>
      <point x="382" y="0"/>
      <point x="440" y="0"/>
      <point x="440" y="66" type="curve" smooth="yes"/>
      <point x="440" y="132"/>
      <point x="382" y="132"/>
      <point x="350" y="132" type="curve"/>
      <point x="520" y="496" type="line"/>
      <point x="704" y="132" type="line"/>
      <point x="676" y="132"/>
      <point x="616" y="132"/>
      <point x="616" y="66" type="curve" smooth="yes"/>
      <point x="616" y="0"/>
      <point x="676" y="0"/>
      <point x="704" y="0" type="curve" smooth="yes"/>
      <point x="912" y="0" type="line" smooth="yes"/>
      <point x="942" y="0"/>
      <point x="1000" y="0"/>
      <point x="1000" y="66" type="curve" smooth="yes"/>
      <point x="1000" y="132"/>
      <point x="940" y="132"/>
      <point x="912" y="132" type="curve" smooth="yes"/>
      <point x="872" y="132" type="line"/>
    </contour>
  </outline>
</glyph>
<glyph name="Y" format="2">
  <advance width="1062"/>
  <unicode hex="0059"/>
  <outline>
    <contour>
      <point x="896" y="1090" type="line"/>
      <point x="932" y="1090" type="line" smooth="yes"/>
      <point x="962" y="1090"/>
      <point x="1020" y="1090"/>
      <point x="1020" y="1156" type="curve" smooth="yes"/>
      <point x="1020" y="1222"/>
      <point x="960" y="1222"/>
      <point x="932" y="1222" type="curve" smooth="yes"/>
      <point x="724" y="1222" type="line" smooth="yes"/>
      <point x="692" y="1222"/>
      <point x="638" y="1222"/>
      <point x="638" y="1156" type="curve" smooth="yes"/>
      <point x="638" y="1090"/>
      <point x="690" y="1090"/>
      <point x="726" y="1090" type="curve"/>
      <point x="724" y="1088"/>
      <point x="692" y="1020"/>
      <point x="676" y="984" type="curve" smooth="yes"/>
      <point x="614" y="852"/>
      <point x="546" y="710"/>
      <point x="530" y="646" type="curve"/>
      <point x="528" y="646" type="line"/>
      <point x="514" y="706"/>
      <point x="460" y="822"/>
      <point x="388" y="978" type="curve" smooth="yes"/>
      <point x="334" y="1090" type="line"/>
      <point x="370" y="1090"/>
      <point x="422" y="1090"/>
      <point x="422" y="1156" type="curve" smooth="yes"/>
      <point x="422" y="1222"/>
      <point x="368" y="1222"/>
      <point x="336" y="1222" type="curve" smooth="yes"/>
      <point x="128" y="1222" type="line" smooth="yes"/>
      <point x="98" y="1222"/>
      <point x="40" y="1222"/>
      <point x="40" y="1156" type="curve" smooth="yes"/>
      <point x="40" y="1090"/>
      <point x="100" y="1090"/>
      <point x="128" y="1090" type="curve" smooth="yes"/>
      <point x="164" y="1090" type="line"/>
      <point x="454" y="488" type="line"/>
      <point x="454" y="132" type="line"/>
      <point x="412" y="132" type="line" smooth="yes"/>
      <point x="382" y="132"/>
      <point x="324" y="132"/>
      <point x="324" y="66" type="curve" smooth="yes"/>
      <point x="324" y="0"/>
      <point x="382" y="0"/>
      <point x="412" y="0" type="curve" smooth="yes"/>
      <point x="648" y="0" type="line" smooth="yes"/>
      <point x="678" y="0"/>
      <point x="736" y="0"/>
      <point x="736" y="66" type="curve" smooth="yes"/>
      <point x="736" y="132"/>
      <point x="678" y="132"/>
      <point x="648" y="132" type="curve" smooth="yes"/>
      <point x="606" y="132" type="line"/>
      <point x="606" y="488" type="line"/>
    </contour>
  </outline>
</glyph>
<glyph name="Z" format="2">
  <advance width="1062"/>
  <unicode hex="005A"/>
  <outline>
    <contour>
      <point x="946" y="1088" type="line" smooth="yes"/>
      <point x="962" y="1112"/>
      <point x="964" y="1116"/>
      <point x="964" y="1146" type="curve" smooth="yes"/>
      <point x="964" y="1222"/>
      <point x="914" y="1222"/>
      <point x="878" y="1222" type="curve" smooth="yes"/>
      <point x="208" y="1222" type="line" smooth="yes"/>
      <point x="146" y="1222"/>
      <point x="120" y="1210"/>
      <point x="120" y="1136" type="curve" smooth="yes"/>
      <point x="120" y="988" type="line" smooth="yes"/>
      <point x="120" y="950"/>
      <point x="120" y="902"/>
      <point x="196" y="902" type="curve" smooth="yes"/>
      <point x="272" y="902"/>
      <point x="272" y="950"/>
      <point x="272" y="988" type="curve" smooth="yes"/>
      <point x="272" y="1090" type="line"/>
      <point x="768" y="1090" type="line"/>
      <point x="114" y="134" type="line" smooth="yes"/>
      <point x="98" y="110"/>
      <point x="96" y="106"/>
      <point x="96" y="76" type="curve" smooth="yes"/>
      <point x="96" y="0"/>
      <point x="146" y="0"/>
      <point x="182" y="0" type="curve" smooth="yes"/>
      <point x="888" y="0" type="line" smooth="yes"/>
      <point x="954" y="0"/>
      <point x="974" y="16"/>
      <point x="974" y="86" type="curve" smooth="yes"/>
      <point x="974" y="272" type="line" smooth="yes"/>
      <point x="974" y="310"/>
      <point x="974" y="358"/>
      <point x="898" y="358" type="curve" smooth="yes"/>
      <point x="822" y="358"/>
      <point x="822" y="310"/>
      <point x="822" y="272" type="curve" smooth="yes"/>
      <point x="822" y="132" type="line"/>
      <point x="292" y="132" type="line"/>
    </contour>
  </outline>
</glyph>
<glyph name="bracketleft" format="2">
  <advance width="1062"/>
  <unicode hex="005B"/>
  <outline>
    <contour>
      <point x="892" y="1256" type="line" smooth="yes"/>
      <point x="922" y="1256"/>
      <point x="978" y="1256"/>
      <point x="978" y="1322" type="curve" smooth="yes"/>
      <point x="978" y="1388"/>
      <point x="922" y="1388"/>
      <point x="892" y="1388" type="curve" smooth="yes"/>
      <point x="524" y="1388" type="line" smooth="yes"/>
      <point x="458" y="1388"/>
      <point x="438" y="1372"/>
      <point x="438" y="1302" type="curve" smooth="yes"/>
      <point x="438" y="-80" type="line" smooth="yes"/>
      <point x="438" y="-148"/>
      <point x="458" y="-166"/>
      <point x="524" y="-166" type="curve" smooth="yes"/>
      <point x="892" y="-166" type="line" smooth="yes"/>
      <point x="922" y="-166"/>
      <point x="978" y="-166"/>
      <point x="978" y="-100" type="curve" smooth="yes"/>
      <point x="978" y="-34"/>
      <point x="922" y="-34"/>
      <point x="892" y="-34" type="curve" smooth="yes"/>
      <point x="590" y="-34" type="line"/>
      <point x="590" y="1256" type="line"/>
    </contour>
  </outline>
</glyph>
<glyph name="backslash" format="2">
  <advance width="531"/>
  <unicode hex="005C"/>
  <outline>
    <contour>
      <point x="135" y="666" type="line" smooth="yes"/>
      <point x="130" y="677"/>
      <point x="122" y="694"/>
      <point x="97" y="694" type="curve" smooth="yes"/>
      <point x="79" y="694"/>
      <point x="59" y="679"/>
      <point x="59" y="655" type="curve" smooth="yes"/>
      <point x="59" y="650"/>
      <point x="61" y="642"/>
      <point x="66" y="631" type="curve" smooth="yes"/>
      <point x="395" y="-55" type="line" smooth="yes"/>
      <point x="400" y="-66"/>
      <point x="408" y="-83"/>
      <point x="433" y="-83" type="curve" smooth="yes"/>
      <point x="451" y="-83"/>
      <point x="471" y="-68"/>
      <point x="471" y="-44" type="curve" smooth="yes"/>
      <point x="471" y="-39"/>
      <point x="469" y="-31"/>
      <point x="464" y="-20" type="curve" smooth="yes"/>
    </contour>
  </outline>
</glyph>
<glyph name="bracketright" format="2">
  <advance width="1062"/>
  <unicode hex="005D"/>
  <outline>
    <contour>
      <point x="622" y="1302" type="line" smooth="yes"/>
      <point x="622" y="1370"/>
      <point x="602" y="1388"/>
      <point x="536" y="1388" type="curve" smooth="yes"/>
      <point x="168" y="1388" type="line" smooth="yes"/>
      <point x="138" y="1388"/>
      <point x="82" y="1388"/>
      <point x="82" y="1322" type="curve" smooth="yes"/>
      <point x="82" y="1256"/>
      <point x="138" y="1256"/>
      <point x="168" y="1256" type="curve" smooth="yes"/>
      <point x="470" y="1256" type="line"/>
      <point x="470" y="-34" type="line"/>
      <point x="168" y="-34" type="line" smooth="yes"/>
      <point x="138" y="-34"/>
      <point x="82" y="-34"/>
      <point x="82" y="-100" type="curve" smooth="yes"/>
      <point x="82" y="-166"/>
      <point x="138" y="-166"/>
      <point x="168" y="-166" type="curve" smooth="yes"/>
      <point x="536" y="-166" type="line" smooth="yes"/>
      <point x="602" y="-166"/>
      <point x="622" y="-150"/>
      <point x="622" y="-80" type="curve" smooth="yes"/>
    </contour>
  </outline>
</glyph>
<glyph name="asciicircum" format="2">
	<unicode hex="005E"/>
	<advance width="531"/>
	<outline>
		<contour>
			<point x="286" y="604" type="line" smooth="yes"/>
			<point x="277" y="609"/>
			<point x="273" y="611"/>
			<point x="265" y="611" type="curve" smooth="yes"/>
			<point x="258" y="611"/>
			<point x="256" y="610"/>
			<point x="243" y="603" type="curve" smooth="yes"/>
			<point x="123" y="541" type="line" smooth="yes"/>
			<point x="112" y="535"/>
			<point x="99" y="529"/>
			<point x="99" y="509" type="curve" smooth="yes"/>
			<point x="99" y="499"/>
			<point x="110" y="466"/>
			<point x="136" y="466" type="curve" smooth="yes"/>
			<point x="141" y="466"/>
			<point x="147" y="467"/>
			<point x="159" y="474" type="curve" smooth="yes"/>
			<point x="265" y="535" type="line"/>
			<point x="371" y="475" type="line"/>
			<point x="385" y="466"/>
			<point x="387" y="466"/>
			<point x="394" y="466" type="curve" smooth="yes"/>
			<point x="420" y="466"/>
			<point x="431" y="499"/>
			<point x="431" y="509" type="curve" smooth="yes"/>
			<point x="431" y="528"/>
			<point x="420" y="534"/>
			<point x="408" y="540" type="curve" smooth="yes"/>
		</contour>
	</outline>
</glyph>
<glyph name="underscore" format="2">
  <advance width="1062"/>
  <unicode hex="005F"/>
  <outline>
    <contour>
      <point x="846" y="-198" type="line" smooth="yes"/>
      <point x="868" y="-198"/>
      <point x="946" y="-198"/>
      <point x="946" y="-122" type="curve" smooth="yes"/>
      <point x="946" y="-44"/>
      <point x="870" y="-44"/>
      <point x="846" y="-44" type="curve" smooth="yes"/>
      <point x="214" y="-44" type="line" smooth="yes"/>
      <point x="192" y="-44"/>
      <point x="114" y="-44"/>
      <point x="114" y="-120" type="curve" smooth="yes"/>
      <point x="114" y="-198"/>
      <point x="190" y="-198"/>
      <point x="214" y="-198" type="curve" smooth="yes"/>
    </contour>
  </outline>
</glyph>
<glyph name="grave" format="2">
	<unicode hex="0060"/>
	<advance width="531"/>
	<outline>
		<contour>
			<point x="282" y="485" type="line" smooth="yes"/>
			<point x="291" y="482"/>
			<point x="297" y="480"/>
			<point x="299" y="480" type="curve" smooth="yes"/>
			<point x="331" y="480"/>
			<point x="335" y="523"/>
			<point x="335" y="524" type="curve" smooth="yes"/>
			<point x="335" y="545"/>
			<point x="318" y="551"/>
			<point x="308" y="555" type="curve" smooth="yes"/>
			<point x="179" y="605" type="line" smooth="yes"/>
			<point x="165" y="610"/>
			<point x="162" y="611"/>
			<point x="156" y="611" type="curve" smooth="yes"/>
			<point x="134" y="611"/>
			<point x="118" y="593"/>
			<point x="118" y="573" type="curve" smooth="yes"/>
			<point x="118" y="569"/>
			<point x="118" y="546"/>
			<point x="147" y="535" type="curve" smooth="yes"/>
		</contour>
	</outline>
</glyph>
<glyph name="a" format="2">
	<unicode hex="0061"/>
	<advance width="531"/>
	<outline>
		<contour>
			<point x="431" y="282" type="line" smooth="yes"/>
			<point x="431" y="365"/>
			<point x="366" y="439"/>
			<point x="229" y="439" type="curve" smooth="yes"/>
			<point x="182" y="439"/>
			<point x="79" y="439"/>
			<point x="79" y="362" type="curve" smooth="yes"/>
			<point x="79" y="335"/>
			<point x="98" y="313"/>
			<point x="128" y="313" type="curve" smooth="yes"/>
			<point x="147" y="313"/>
			<point x="176" y="327"/>
			<point x="176" y="361" type="curve" smooth="yes"/>
			<point x="176" y="369"/>
			<point x="177" y="371"/>
			<point x="190" y="372" type="curve" smooth="yes"/>
			<point x="202" y="373"/>
			<point x="218" y="373"/>
			<point x="230" y="373" type="curve" smooth="yes"/>
			<point x="276.576" y="373"/>
			<point x="310.569664" y="361.062912"/>
			<point x="331.247990272" y="340.670494208" type="curve" smooth="yes"/>
			<point x="346.975168" y="325.160768"/>
			<point x="355" y="304.76"/>
			<point x="355" y="281" type="curve"/>
			<point x="248" y="281"/>
			<point x="53" y="256"/>
			<point x="53" y="133" type="curve" smooth="yes"/>
			<point x="53" y="59"/>
			<point x="122" y="-5"/>
			<point x="223" y="-5" type="curve" smooth="yes"/>
			<point x="303" y="-5"/>
			<point x="353" y="25"/>
			<point x="366" y="34" type="curve"/>
			<point x="387" y="3"/>
			<point x="429" y="0"/>
			<point x="477" y="0" type="curve" smooth="yes"/>
			<point x="504" y="0"/>
			<point x="530" y="0"/>
			<point x="530" y="33" type="curve" smooth="yes"/>
			<point x="530" y="66"/>
			<point x="502" y="66"/>
			<point x="488" y="66" type="curve" smooth="yes"/>
			<point x="450" y="66"/>
			<point x="441" y="69"/>
			<point x="431" y="73" type="curve"/>
		</contour>
		<contour>
			<point x="355" y="217" type="curve"/>
			<point x="355" y="143" type="line" smooth="yes"/>
			<point x="355" y="122"/>
			<point x="355" y="99"/>
			<point x="316" y="80" type="curve" smooth="yes"/>
			<point x="281" y="62"/>
			<point x="242" y="61"/>
			<point x="229" y="61" type="curve" smooth="yes"/>
			<point x="170" y="61"/>
			<point x="129" y="96"/>
			<point x="129" y="133" type="curve" smooth="yes"/>
			<point x="129" y="186"/>
			<point x="239" y="216"/>
		</contour>
	</outline>
</glyph>
<glyph name="b" format="2">
  <advance width="1062"/>
  <unicode hex="0062"/>
  <outline>
    <contour>
      <point x="190" y="1090" type="line"/>
      <point x="190" y="86" type="line" smooth="yes"/>
      <point x="190" y="50"/>
      <point x="190" y="0"/>
      <point x="266" y="0" type="curve" smooth="yes"/>
      <point x="342" y="0"/>
      <point x="342" y="48"/>
      <point x="342" y="84" type="curve"/>
      <point x="404" y="24"/>
      <point x="482" y="-10"/>
      <point x="570" y="-10" type="curve" smooth="yes"/>
      <point x="792" y="-10"/>
      <point x="992" y="178"/>
      <point x="992" y="432" type="curve" smooth="yes"/>
      <point x="992" y="674"/>
      <point x="814" y="872"/>
      <point x="590" y="872" type="curve" smooth="yes"/>
      <point x="496" y="872"/>
      <point x="414" y="838"/>
      <point x="342" y="782" type="curve"/>
      <point x="342" y="1136" type="line" smooth="yes"/>
      <point x="342" y="1204"/>
      <point x="322" y="1222"/>
      <point x="256" y="1222" type="curve" smooth="yes"/>
      <point x="108" y="1222" type="line" smooth="yes"/>
      <point x="76" y="1222"/>
      <point x="22" y="1222"/>
      <point x="22" y="1156" type="curve" smooth="yes"/>
      <point x="22" y="1090"/>
      <point x="76" y="1090"/>
      <point x="108" y="1090" type="curve" smooth="yes"/>
    </contour>
    <contour>
      <point x="564" y="122" type="curve" smooth="yes"/>
      <point x="416" y="122"/>
      <point x="342" y="288"/>
      <point x="342" y="388" type="curve" smooth="yes"/>
      <point x="342" y="526" type="line" smooth="yes"/>
      <point x="342" y="642"/>
      <point x="460" y="740"/>
      <point x="582" y="740" type="curve" smooth="yes"/>
      <point x="722" y="740"/>
      <point x="840" y="604"/>
      <point x="840" y="432" type="curve" smooth="yes"/>
      <point x="840" y="250"/>
      <point x="704" y="122"/>
    </contour>
  </outline>
</glyph>
<glyph name="c" format="2">
  <advance width="1062"/>
  <unicode hex="0063"/>
  <outline>
    <contour>
      <point x="592" y="-10" type="curve" smooth="yes"/>
      <point x="876" y="-10"/>
      <point x="940" y="182"/>
      <point x="940" y="216" type="curve" smooth="yes"/>
      <point x="940" y="260"/>
      <point x="906" y="278"/>
      <point x="864" y="278" type="curve" smooth="yes"/>
      <point x="836" y="278"/>
      <point x="808" y="278"/>
      <point x="790" y="232" type="curve" smooth="yes"/>
      <point x="754" y="144"/>
      <point x="674" y="122"/>
      <point x="602" y="122" type="curve" smooth="yes"/>
      <point x="436" y="122"/>
      <point x="296" y="258"/>
      <point x="296" y="432" type="curve" smooth="yes"/>
      <point x="296" y="534"/>
      <point x="360" y="746"/>
      <point x="614" y="746" type="curve" smooth="yes"/>
      <point x="672" y="746"/>
      <point x="706" y="742"/>
      <point x="716" y="740" type="curve"/>
      <point x="722" y="738"/>
      <point x="724" y="736"/>
      <point x="724" y="718" type="curve"/>
      <point x="728" y="660"/>
      <point x="770" y="626"/>
      <point x="820" y="626" type="curve" smooth="yes"/>
      <point x="880" y="626"/>
      <point x="918" y="670"/>
      <point x="918" y="724" type="curve" smooth="yes"/>
      <point x="918" y="878"/>
      <point x="710" y="878"/>
      <point x="618" y="878" type="curve" smooth="yes"/>
      <point x="262" y="878"/>
      <point x="144" y="602"/>
      <point x="144" y="432" type="curve" smooth="yes"/>
      <point x="144" y="192"/>
      <point x="336" y="-10"/>
    </contour>
  </outline>
</glyph>
<glyph name="d" format="2">
  <advance width="1062"/>
  <unicode hex="0064"/>
  <outline>
    <contour>
      <point x="470" y="-10" type="curve" smooth="yes"/>
      <point x="576" y="-10"/>
      <point x="660" y="38"/>
      <point x="718" y="94" type="curve"/>
      <point x="718" y="38"/>
      <point x="718" y="0"/>
      <point x="804" y="0" type="curve" smooth="yes"/>
      <point x="952" y="0" type="line" smooth="yes"/>
      <point x="984" y="0"/>
      <point x="1038" y="0"/>
      <point x="1038" y="66" type="curve" smooth="yes"/>
      <point x="1038" y="132"/>
      <point x="984" y="132"/>
      <point x="952" y="132" type="curve" smooth="yes"/>
      <point x="870" y="132" type="line"/>
      <point x="870" y="1136" type="line" smooth="yes"/>
      <point x="870" y="1204"/>
      <point x="850" y="1222"/>
      <point x="784" y="1222" type="curve" smooth="yes"/>
      <point x="636" y="1222" type="line" smooth="yes"/>
      <point x="604" y="1222"/>
      <point x="550" y="1222"/>
      <point x="550" y="1156" type="curve" smooth="yes"/>
      <point x="550" y="1090"/>
      <point x="604" y="1090"/>
      <point x="636" y="1090" type="curve" smooth="yes"/>
      <point x="718" y="1090" type="line"/>
      <point x="718" y="790" type="line"/>
      <point x="626" y="862"/>
      <point x="542" y="872"/>
      <point x="488" y="872" type="curve" smooth="yes"/>
      <point x="266" y="872"/>
      <point x="68" y="684"/>
      <point x="68" y="430" type="curve" smooth="yes"/>
      <point x="68" y="186"/>
      <point x="250" y="-10"/>
    </contour>
    <contour>
      <point x="718" y="394" type="line" smooth="yes"/>
      <point x="718" y="280"/>
      <point x="626" y="122"/>
      <point x="476" y="122" type="curve" smooth="yes"/>
      <point x="342" y="122"/>
      <point x="220" y="254"/>
      <point x="220" y="430" type="curve" smooth="yes"/>
      <point x="220" y="608"/>
      <point x="352" y="740"/>
      <point x="498" y="740" type="curve" smooth="yes"/>
      <point x="616" y="740"/>
      <point x="718" y="638"/>
      <point x="718" y="528" type="curve" smooth="yes"/>
    </contour>
  </outline>
</glyph>
<glyph name="e" format="2">
  <advance width="1062"/>
  <unicode hex="0065"/>
  <outline>
    <contour>
      <point x="854" y="376" type="line" smooth="yes"/>
      <point x="892" y="376"/>
      <point x="940" y="376"/>
      <point x="940" y="452" type="curve" smooth="yes"/>
      <point x="940" y="692"/>
      <point x="804" y="878"/>
      <point x="546" y="878" type="curve" smooth="yes"/>
      <point x="300" y="878"/>
      <point x="106" y="678"/>
      <point x="106" y="434" type="curve" smooth="yes"/>
      <point x="106" y="196"/>
      <point x="306" y="-10"/>
      <point x="578" y="-10" type="curve" smooth="yes"/>
      <point x="852" y="-10"/>
      <point x="940" y="166"/>
      <point x="940" y="216" type="curve" smooth="yes"/>
      <point x="940" y="260"/>
      <point x="906" y="278"/>
      <point x="864" y="278" type="curve" smooth="yes"/>
      <point x="830" y="278"/>
      <point x="810" y="276"/>
      <point x="790" y="232" type="curve" smooth="yes"/>
      <point x="750" y="142"/>
      <point x="652" y="122"/>
      <point x="588" y="122" type="curve" smooth="yes"/>
      <point x="442" y="122"/>
      <point x="296" y="218"/>
      <point x="264" y="376" type="curve"/>
    </contour>
    <contour>
      <point x="266" y="506" type="line"/>
      <point x="296" y="646"/>
      <point x="414" y="746"/>
      <point x="546" y="746" type="curve" smooth="yes"/>
      <point x="726" y="746"/>
      <point x="772" y="606"/>
      <point x="784" y="506" type="curve"/>
    </contour>
  </outline>
</glyph>
<glyph name="f" format="2">
	<unicode hex="0066"/>
	<advance width="531"/>
	<outline>
		<contour>
			<point x="259" y="365" type="line"/>
			<point x="378" y="365" type="line" smooth="yes"/>
			<point x="393" y="365"/>
			<point x="421" y="365"/>
			<point x="421" y="398" type="curve" smooth="yes"/>
			<point x="421" y="431"/>
			<point x="393" y="431"/>
			<point x="378" y="431" type="curve" smooth="yes"/>
			<point x="259" y="431" type="line"/>
			<point x="259" y="477" type="line" smooth="yes"/>
			<point x="259" y="540"/>
			<point x="307" y="550"/>
			<point x="349" y="550" type="curve"/>
			<point x="352" y="518"/>
			<point x="378" y="504"/>
			<point x="396" y="504" type="curve" smooth="yes"/>
			<point x="417" y="504"/>
			<point x="443" y="520"/>
			<point x="443" y="552" type="curve" smooth="yes"/>
			<point x="443" y="616"/>
			<point x="359" y="616"/>
			<point x="343" y="616" type="curve" smooth="yes"/>
			<point x="266" y="616"/>
			<point x="183" y="574"/>
			<point x="183" y="480" type="curve" smooth="yes"/>
			<point x="183" y="431" type="line"/>
			<point x="87" y="431" type="line" smooth="yes"/>
			<point x="72" y="431"/>
			<point x="43" y="431"/>
			<point x="43" y="398" type="curve" smooth="yes"/>
			<point x="43" y="365"/>
			<point x="71" y="365"/>
			<point x="86" y="365" type="curve" smooth="yes"/>
			<point x="183" y="365" type="line"/>
			<point x="183" y="66" type="line"/>
			<point x="86" y="66" type="line" smooth="yes"/>
			<point x="72" y="66"/>
			<point x="42" y="66"/>
			<point x="42" y="33" type="curve" smooth="yes"/>
			<point x="42" y="0"/>
			<point x="72" y="0"/>
			<point x="86" y="0" type="curve" smooth="yes"/>
			<point x="356" y="0" type="line" smooth="yes"/>
			<point x="370" y="0"/>
			<point x="400" y="0"/>
			<point x="400" y="33" type="curve" smooth="yes"/>
			<point x="400" y="66"/>
			<point x="370" y="66"/>
			<point x="356" y="66" type="curve" smooth="yes"/>
			<point x="259" y="66" type="line"/>
		</contour>
	</outline>
</glyph>
<glyph name="g" format="2">
	<unicode hex="0067"/>
	<advance width="531"/>
	<outline>
		<contour>
			<point x="30" y="-80" type="curve" smooth="yes"/>
			<point x="30" y="-168"/>
			<point x="138" y="-228"/>
			<point x="265" y="-228" type="curve" smooth="yes"/>
			<point x="392" y="-228"/>
			<point x="500" y="-168"/>
			<point x="500" y="-80" type="curve" smooth="yes"/>
			<point x="500" y="7"/>
			<point x="424" y="59"/>
			<point x="317" y="63" type="curve" smooth="yes"/>
			<point x="287" y="64"/>
			<point x="213" y="62"/>
			<point x="184" y="66" type="curve"/>
			<point x="140" y="66"/>
			<point x="140" y="113"/>
			<point x="140" y="114" type="curve" smooth="yes"/>
			<point x="140" y="126"/>
			<point x="143" y="133"/>
			<point x="145" y="138" type="curve"/>
			<point x="162" y="128"/>
			<point x="195" y="114"/>
			<point x="235" y="114" type="curve" smooth="yes"/>
			<point x="332" y="114"/>
			<point x="406" y="188"/>
			<point x="406" y="275" type="curve" smooth="yes"/>
			<point x="406" y="310"/>
			<point x="393" y="341"/>
			<point x="381" y="360" type="curve"/>
			<point x="401" y="371"/>
			<point x="412" y="372"/>
			<point x="429" y="374" type="curve"/>
			<point x="435" y="350"/>
			<point x="453" y="339"/>
			<point x="472" y="339" type="curve" smooth="yes"/>
			<point x="496" y="339"/>
			<point x="515" y="358"/>
			<point x="515" y="382" type="curve" smooth="yes"/>
			<point x="515" y="413"/>
			<point x="490" y="441"/>
			<point x="439" y="441" type="curve" smooth="yes"/>
			<point x="412" y="441"/>
			<point x="369" y="433"/>
			<point x="334" y="407" type="curve"/>
			<point x="325" y="413"/>
			<point x="287" y="436"/>
			<point x="236" y="436" type="curve" smooth="yes"/>
			<point x="139" y="436"/>
			<point x="65" y="362"/>
			<point x="65" y="275" type="curve" smooth="yes"/>
			<point x="65" y="243"/>
			<point x="76" y="208"/>
			<point x="97" y="182" type="curve"/>
			<point x="89" y="169"/>
			<point x="77" y="142"/>
			<point x="77" y="114" type="curve" smooth="yes"/>
			<point x="77" y="85"/>
			<point x="89" y="57"/>
			<point x="101" y="42" type="curve"/>
			<point x="59" y="18"/>
			<point x="30" y="-31"/>
		</contour>
		<contour>
			<point x="235" y="179" type="curve" smooth="yes"/>
			<point x="185" y="179"/>
			<point x="141" y="221"/>
			<point x="141" y="275" type="curve" smooth="yes"/>
			<point x="141" y="329"/>
			<point x="185" y="371"/>
			<point x="235" y="371" type="curve" smooth="yes"/>
			<point x="287" y="371"/>
			<point x="330" y="328"/>
			<point x="330" y="275" type="curve" smooth="yes"/>
			<point x="330" y="223"/>
			<point x="288" y="179"/>
		</contour>
		<contour>
			<point x="265" y="-163" type="curve" smooth="yes"/>
			<point x="164" y="-163"/>
			<point x="93" y="-120"/>
			<point x="93" y="-80" type="curve" smooth="yes"/>
			<point x="93" y="-41"/>
			<point x="129" y="0"/>
			<point x="182" y="1" type="curve" smooth="yes"/>
			<point x="200.315" y="1"/>
			<point x="218.63" y="1"/>
			<point x="237" y="1" type="curve" smooth="yes"/>
			<point x="325" y="1"/>
			<point x="437" y="1"/>
			<point x="437" y="-80" type="curve" smooth="yes"/>
			<point x="437" y="-121"/>
			<point x="365" y="-163"/>
		</contour>
	</outline>
</glyph>
<glyph name="h" format="2">
	<unicode hex="0068"/>
	<advance width="531"/>
	<outline>
		<contour>
			<point x="435" y="291" type="line" smooth="yes"/>
			<point x="435" y="391"/>
			<point x="385" y="436"/>
			<point x="303" y="436" type="curve" smooth="yes"/>
			<point x="229" y="436"/>
			<point x="181" y="396"/>
			<point x="171" y="386" type="curve"/>
			<point x="171" y="568" type="line" smooth="yes"/>
			<point x="171" y="602"/>
			<point x="161" y="611"/>
			<point x="128" y="611" type="curve" smooth="yes"/>
			<point x="54" y="611" type="line" smooth="yes"/>
			<point x="38" y="611"/>
			<point x="11" y="611"/>
			<point x="11" y="578" type="curve" smooth="yes"/>
			<point x="11" y="545"/>
			<point x="38" y="545"/>
			<point x="54" y="545" type="curve" smooth="yes"/>
			<point x="95" y="545" type="line"/>
			<point x="95" y="66" type="line"/>
			<point x="54" y="66" type="line" smooth="yes"/>
			<point x="38" y="66"/>
			<point x="11" y="66"/>
			<point x="11" y="33" type="curve" smooth="yes"/>
			<point x="11" y="0"/>
			<point x="38" y="0"/>
			<point x="54" y="0" type="curve" smooth="yes"/>
			<point x="212" y="0" type="line" smooth="yes"/>
			<point x="228" y="0"/>
			<point x="255" y="0"/>
			<point x="255" y="33" type="curve" smooth="yes"/>
			<point x="255" y="66"/>
			<point x="228" y="66"/>
			<point x="212" y="66" type="curve" smooth="yes"/>
			<point x="171" y="66" type="line"/>
			<point x="171" y="238" type="line" smooth="yes"/>
			<point x="171" y="334"/>
			<point x="248" y="370"/>
			<point x="298" y="370" type="curve" smooth="yes"/>
			<point x="344" y="370"/>
			<point x="359" y="348"/>
			<point x="359" y="289" type="curve" smooth="yes"/>
			<point x="359" y="66" type="line"/>
			<point x="326" y="66" type="line" smooth="yes"/>
			<point x="311" y="66"/>
			<point x="283" y="66"/>
			<point x="283" y="33" type="curve" smooth="yes"/>
			<point x="283" y="0"/>
			<point x="311" y="0"/>
			<point x="326" y="0" type="curve" smooth="yes"/>
			<point x="476" y="0" type="line" smooth="yes"/>
			<point x="492" y="0"/>
			<point x="519" y="0"/>
			<point x="519" y="33" type="curve" smooth="yes"/>
			<point x="519" y="66"/>
			<point x="492" y="66"/>
			<point x="476" y="66" type="curve" smooth="yes"/>
			<point x="435" y="66" type="line"/>
		</contour>
	</outline>
</glyph>
<glyph name="i" format="2">
  <advance width="1062"/>
  <unicode hex="0069"/>
  <outline>
    <contour>
      <point x="632" y="1116" type="curve" smooth="yes"/>
      <point x="632" y="1176"/>
      <point x="584" y="1224"/>
      <point x="524" y="1224" type="curve" smooth="yes"/>
      <point x="464" y="1224"/>
      <point x="416" y="1176"/>
      <point x="416" y="1116" type="curve" smooth="yes"/>
      <point x="416" y="1056"/>
      <point x="464" y="1008"/>
      <point x="524" y="1008" type="curve" smooth="yes"/>
      <point x="584" y="1008"/>
      <point x="632" y="1056"/>
    </contour>
    <contour>
      <point x="480" y="730" type="line"/>
      <point x="480" y="132" type="line"/>
      <point x="246" y="132" type="line" smooth="yes"/>
      <point x="216" y="132"/>
      <point x="158" y="132"/>
      <point x="158" y="66" type="curve" smooth="yes"/>
      <point x="158" y="0"/>
      <point x="218" y="0"/>
      <point x="246" y="0" type="curve" smooth="yes"/>
      <point x="834" y="0" type="line" smooth="yes"/>
      <point x="862" y="0"/>
      <point x="922" y="0"/>
      <point x="922" y="66" type="curve" smooth="yes"/>
      <point x="922" y="132"/>
      <point x="862" y="132"/>
      <point x="834" y="132" type="curve" smooth="yes"/>
      <point x="632" y="132" type="line"/>
      <point x="632" y="776" type="line" smooth="yes"/>
      <point x="632" y="844"/>
      <point x="612" y="862"/>
      <point x="546" y="862" type="curve" smooth="yes"/>
      <point x="262" y="862" type="line" smooth="yes"/>
      <point x="232" y="862"/>
      <point x="174" y="862"/>
      <point x="174" y="796" type="curve" smooth="yes"/>
      <point x="174" y="730"/>
      <point x="234" y="730"/>
      <point x="262" y="730" type="curve" smooth="yes"/>
    </contour>
  </outline>
</glyph>
<glyph name="j" format="2">
  <advance width="1062"/>
  <unicode hex="006A"/>
  <outline>
    <contour>
      <point x="750" y="1116" type="curve" smooth="yes"/>
      <point x="750" y="1176"/>
      <point x="702" y="1224"/>
      <point x="642" y="1224" type="curve" smooth="yes"/>
      <point x="582" y="1224"/>
      <point x="534" y="1176"/>
      <point x="534" y="1116" type="curve" smooth="yes"/>
      <point x="534" y="1056"/>
      <point x="582" y="1008"/>
      <point x="642" y="1008" type="curve" smooth="yes"/>
      <point x="702" y="1008"/>
      <point x="750" y="1056"/>
    </contour>
    <contour>
      <point x="598" y="730" type="line"/>
      <point x="598" y="-74" type="line" smooth="yes"/>
      <point x="598" y="-106"/>
      <point x="598" y="-182"/>
      <point x="546" y="-254" type="curve" smooth="yes"/>
      <point x="494" y="-322"/>
      <point x="434" y="-322"/>
      <point x="390" y="-322" type="curve" smooth="yes"/>
      <point x="374" y="-322"/>
      <point x="338" y="-322"/>
      <point x="288" y="-316" type="curve"/>
      <point x="288" y="-268"/>
      <point x="288" y="-254"/>
      <point x="266" y="-230" type="curve"/>
      <point x="238" y="-196"/>
      <point x="196" y="-196"/>
      <point x="194" y="-196" type="curve" smooth="yes"/>
      <point x="150" y="-196"/>
      <point x="96" y="-228"/>
      <point x="96" y="-296" type="curve" smooth="yes"/>
      <point x="96" y="-454"/>
      <point x="300" y="-454"/>
      <point x="382" y="-454" type="curve" smooth="yes"/>
      <point x="666" y="-454"/>
      <point x="750" y="-226"/>
      <point x="750" y="-78" type="curve" smooth="yes"/>
      <point x="750" y="776" type="line" smooth="yes"/>
      <point x="750" y="844"/>
      <point x="730" y="862"/>
      <point x="664" y="862" type="curve" smooth="yes"/>
      <point x="348" y="862" type="line" smooth="yes"/>
      <point x="318" y="862"/>
      <point x="260" y="862"/>
      <point x="260" y="796" type="curve" smooth="yes"/>
      <point x="260" y="730"/>
      <point x="320" y="730"/>
      <point x="348" y="730" type="curve" smooth="yes"/>
    </contour>
  </outline>
</glyph>
<glyph name="k" format="2">
  <advance width="1062"/>
  <unicode hex="006B"/>
  <outline>
    <contour>
      <point x="590" y="506" type="line"/>
      <point x="830" y="730" type="line"/>
      <point x="896" y="730" type="line" smooth="yes"/>
      <point x="928" y="730"/>
      <point x="982" y="730"/>
      <point x="982" y="796" type="curve" smooth="yes"/>
      <point x="982" y="862"/>
      <point x="928" y="862"/>
      <point x="896" y="862" type="curve" smooth="yes"/>
      <point x="590" y="862" type="line" smooth="yes"/>
      <point x="558" y="862"/>
      <point x="504" y="862"/>
      <point x="504" y="796" type="curve" smooth="yes"/>
      <point x="504" y="730"/>
      <point x="558" y="730"/>
      <point x="590" y="730" type="curve" smooth="yes"/>
      <point x="646" y="730" type="line"/>
      <point x="342" y="448" type="line"/>
      <point x="342" y="1136" type="line" smooth="yes"/>
      <point x="342" y="1204"/>
      <point x="322" y="1222"/>
      <point x="256" y="1222" type="curve" smooth="yes"/>
      <point x="128" y="1222" type="line" smooth="yes"/>
      <point x="98" y="1222"/>
      <point x="40" y="1222"/>
      <point x="40" y="1156" type="curve" smooth="yes"/>
      <point x="40" y="1090"/>
      <point x="100" y="1090"/>
      <point x="128" y="1090" type="curve" smooth="yes"/>
      <point x="218" y="1090" type="line"/>
      <point x="218" y="132" type="line"/>
      <point x="128" y="132" type="line" smooth="yes"/>
      <point x="98" y="132"/>
      <point x="40" y="132"/>
      <point x="40" y="66" type="curve" smooth="yes"/>
      <point x="40" y="0"/>
      <point x="100" y="0"/>
      <point x="128" y="0" type="curve" smooth="yes"/>
      <point x="432" y="0" type="line" smooth="yes"/>
      <point x="462" y="0"/>
      <point x="520" y="0"/>
      <point x="520" y="66" type="curve" smooth="yes"/>
      <point x="520" y="132"/>
      <point x="460" y="132"/>
      <point x="432" y="132" type="curve" smooth="yes"/>
      <point x="342" y="132" type="line"/>
      <point x="342" y="278" type="line"/>
      <point x="498" y="422" type="line"/>
      <point x="724" y="132" type="line"/>
      <point x="672" y="132"/>
      <point x="618" y="132"/>
      <point x="618" y="66" type="curve" smooth="yes"/>
      <point x="618" y="0"/>
      <point x="678" y="0"/>
      <point x="706" y="0" type="curve" smooth="yes"/>
      <point x="940" y="0" type="line" smooth="yes"/>
      <point x="972" y="0"/>
      <point x="1026" y="0"/>
      <point x="1026" y="66" type="curve" smooth="yes"/>
      <point x="1026" y="132"/>
      <point x="972" y="132"/>
      <point x="940" y="132" type="curve" smooth="yes"/>
      <point x="882" y="132" type="line"/>
    </contour>
  </outline>
</glyph>
<glyph name="l" format="2">
  <advance width="1062"/>
  <unicode hex="006C"/>
  <outline>
    <contour>
      <point x="606" y="1136" type="line" smooth="yes"/>
      <point x="606" y="1204"/>
      <point x="586" y="1222"/>
      <point x="520" y="1222" type="curve" smooth="yes"/>
      <point x="204" y="1222" type="line" smooth="yes"/>
      <point x="174" y="1222"/>
      <point x="116" y="1222"/>
      <point x="116" y="1156" type="curve" smooth="yes"/>
      <point x="116" y="1090"/>
      <point x="176" y="1090"/>
      <point x="204" y="1090" type="curve" smooth="yes"/>
      <point x="454" y="1090" type="line"/>
      <point x="454" y="132" type="line"/>
      <point x="204" y="132" type="line" smooth="yes"/>
      <point x="174" y="132"/>
      <point x="116" y="132"/>
      <point x="116" y="66" type="curve" smooth="yes"/>
      <point x="116" y="0"/>
      <point x="176" y="0"/>
      <point x="204" y="0" type="curve" smooth="yes"/>
      <point x="856" y="0" type="line" smooth="yes"/>
      <point x="886" y="0"/>
      <point x="944" y="0"/>
      <point x="944" y="66" type="curve" smooth="yes"/>
      <point x="944" y="132"/>
      <point x="884" y="132"/>
      <point x="856" y="132" type="curve" smooth="yes"/>
      <point x="606" y="132" type="line"/>
    </contour>
  </outline>
</glyph>
<glyph name="m" format="2">
  <advance width="1062"/>
  <unicode hex="006D"/>
  <outline>
    <contour>
      <point x="930" y="602" type="line" smooth="yes"/>
      <point x="930" y="648"/>
      <point x="930" y="872"/>
      <point x="750" y="872" type="curve" smooth="yes"/>
      <point x="684" y="872"/>
      <point x="602" y="842"/>
      <point x="550" y="774" type="curve"/>
      <point x="512" y="846"/>
      <point x="456" y="872"/>
      <point x="398" y="872" type="curve" smooth="yes"/>
      <point x="356" y="872"/>
      <point x="290" y="860"/>
      <point x="228" y="806" type="curve"/>
      <point x="216" y="862"/>
      <point x="170" y="862"/>
      <point x="140" y="862" type="curve" smooth="yes"/>
      <point x="76" y="862" type="line" smooth="yes"/>
      <point x="46" y="862"/>
      <point x="-10" y="862"/>
      <point x="-10" y="796" type="curve" smooth="yes"/>
      <point x="-10" y="730"/>
      <point x="38" y="730"/>
      <point x="102" y="730" type="curve"/>
      <point x="102" y="132" type="line"/>
      <point x="38" y="132"/>
      <point x="-10" y="132"/>
      <point x="-10" y="66" type="curve" smooth="yes"/>
      <point x="-10" y="0"/>
      <point x="46" y="0"/>
      <point x="76" y="0" type="curve" smooth="yes"/>
      <point x="252" y="0" type="line" smooth="yes"/>
      <point x="282" y="0"/>
      <point x="338" y="0"/>
      <point x="338" y="66" type="curve" smooth="yes"/>
      <point x="338" y="132"/>
      <point x="290" y="132"/>
      <point x="226" y="132" type="curve"/>
      <point x="226" y="482" type="line" smooth="yes"/>
      <point x="226" y="648"/>
      <point x="312" y="740"/>
      <point x="392" y="740" type="curve" smooth="yes"/>
      <point x="434" y="740"/>
      <point x="454" y="694"/>
      <point x="454" y="592" type="curve" smooth="yes"/>
      <point x="454" y="132" type="line"/>
      <point x="434" y="132"/>
      <point x="376" y="132"/>
      <point x="376" y="66" type="curve" smooth="yes"/>
      <point x="376" y="0"/>
      <point x="432" y="0"/>
      <point x="462" y="0" type="curve" smooth="yes"/>
      <point x="604" y="0" type="line" smooth="yes"/>
      <point x="634" y="0"/>
      <point x="690" y="0"/>
      <point x="690" y="66" type="curve" smooth="yes"/>
      <point x="690" y="132"/>
      <point x="642" y="132"/>
      <point x="578" y="132" type="curve"/>
      <point x="578" y="482" type="line" smooth="yes"/>
      <point x="578" y="648"/>
      <point x="664" y="740"/>
      <point x="744" y="740" type="curve" smooth="yes"/>
      <point x="786" y="740"/>
      <point x="806" y="694"/>
      <point x="806" y="592" type="curve" smooth="yes"/>
      <point x="806" y="132" type="line"/>
      <point x="786" y="132"/>
      <point x="728" y="132"/>
      <point x="728" y="66" type="curve" smooth="yes"/>
      <point x="728" y="0"/>
      <point x="784" y="0"/>
      <point x="814" y="0" type="curve" smooth="yes"/>
      <point x="956" y="0" type="line" smooth="yes"/>
      <point x="986" y="0"/>
      <point x="1042" y="0"/>
      <point x="1042" y="66" type="curve" smooth="yes"/>
      <point x="1042" y="132"/>
      <point x="994" y="132"/>
      <point x="930" y="132" type="curve"/>
    </contour>
  </outline>
</glyph>
<glyph name="n" format="2">
  <advance width="1062"/>
  <unicode hex="006E"/>
  <outline>
    <contour>
      <point x="870" y="582" type="line" smooth="yes"/>
      <point x="870" y="782"/>
      <point x="770" y="872"/>
      <point x="606" y="872" type="curve" smooth="yes"/>
      <point x="458" y="872"/>
      <point x="362" y="792"/>
      <point x="342" y="772" type="curve"/>
      <point x="342" y="832"/>
      <point x="336" y="862"/>
      <point x="256" y="862" type="curve" smooth="yes"/>
      <point x="108" y="862" type="line" smooth="yes"/>
      <point x="76" y="862"/>
      <point x="22" y="862"/>
      <point x="22" y="796" type="curve" smooth="yes"/>
      <point x="22" y="730"/>
      <point x="76" y="730"/>
      <point x="108" y="730" type="curve" smooth="yes"/>
      <point x="190" y="730" type="line"/>
      <point x="190" y="132" type="line"/>
      <point x="108" y="132" type="line" smooth="yes"/>
      <point x="76" y="132"/>
      <point x="22" y="132"/>
      <point x="22" y="66" type="curve" smooth="yes"/>
      <point x="22" y="0"/>
      <point x="76" y="0"/>
      <point x="108" y="0" type="curve" smooth="yes"/>
      <point x="424" y="0" type="line" smooth="yes"/>
      <point x="456" y="0"/>
      <point x="510" y="0"/>
      <point x="510" y="66" type="curve" smooth="yes"/>
      <point x="510" y="132"/>
      <point x="456" y="132"/>
      <point x="424" y="132" type="curve" smooth="yes"/>
      <point x="342" y="132" type="line"/>
      <point x="342" y="476" type="line" smooth="yes"/>
      <point x="342" y="668"/>
      <point x="496" y="740"/>
      <point x="596" y="740" type="curve" smooth="yes"/>
      <point x="688" y="740"/>
      <point x="718" y="696"/>
      <point x="718" y="578" type="curve" smooth="yes"/>
      <point x="718" y="132" type="line"/>
      <point x="652" y="132" type="line" smooth="yes"/>
      <point x="622" y="132"/>
      <point x="566" y="132"/>
      <point x="566" y="66" type="curve" smooth="yes"/>
      <point x="566" y="0"/>
      <point x="622" y="0"/>
      <point x="652" y="0" type="curve" smooth="yes"/>
      <point x="952" y="0" type="line" smooth="yes"/>
      <point x="984" y="0"/>
      <point x="1038" y="0"/>
      <point x="1038" y="66" type="curve" smooth="yes"/>
      <point x="1038" y="132"/>
      <point x="984" y="132"/>
      <point x="952" y="132" type="curve" smooth="yes"/>
      <point x="870" y="132" type="line"/>
    </contour>
  </outline>
</glyph>
<glyph name="o" format="2">
  <advance width="1062"/>
  <unicode hex="006F"/>
  <outline>
    <contour>
      <point x="950" y="432" type="curve" smooth="yes"/>
      <point x="950" y="676"/>
      <point x="762" y="878"/>
      <point x="530" y="878" type="curve" smooth="yes"/>
      <point x="298" y="878"/>
      <point x="110" y="676"/>
      <point x="110" y="432" type="curve" smooth="yes"/>
      <point x="110" y="182"/>
      <point x="302" y="-10"/>
      <point x="530" y="-10" type="curve" smooth="yes"/>
      <point x="758" y="-10"/>
      <point x="950" y="182"/>
    </contour>
    <contour>
      <point x="530" y="122" type="curve" smooth="yes"/>
      <point x="386" y="122"/>
      <point x="262" y="264"/>
      <point x="262" y="446" type="curve" smooth="yes"/>
      <point x="262" y="620"/>
      <point x="388" y="746"/>
      <point x="530" y="746" type="curve" smooth="yes"/>
      <point x="672" y="746"/>
      <point x="798" y="620"/>
      <point x="798" y="446" type="curve" smooth="yes"/>
      <point x="798" y="264"/>
      <point x="674" y="122"/>
    </contour>
  </outline>
</glyph>
<glyph name="p" format="2">
	<unicode hex="0070"/>
	<advance width="531"/>
	<outline>
		<contour>
			<point x="212" y="-222" type="line" smooth="yes"/>
			<point x="228" y="-222"/>
			<point x="255" y="-222"/>
			<point x="255" y="-189" type="curve" smooth="yes"/>
			<point x="255" y="-156"/>
			<point x="228" y="-156"/>
			<point x="212" y="-156" type="curve" smooth="yes"/>
			<point x="171" y="-156" type="line"/>
			<point x="171" y="42" type="line"/>
			<point x="202" y="12"/>
			<point x="241" y="-5"/>
			<point x="285" y="-5" type="curve" smooth="yes"/>
			<point x="396" y="-5"/>
			<point x="496" y="89"/>
			<point x="496" y="216" type="curve" smooth="yes"/>
			<point x="496" y="337"/>
			<point x="407" y="436"/>
			<point x="295" y="436" type="curve" smooth="yes"/>
			<point x="248" y="436"/>
			<point x="207" y="419"/>
			<point x="171" y="391" type="curve"/>
			<point x="171" y="431"/>
			<point x="149" y="431"/>
			<point x="128" y="431" type="curve" smooth="yes"/>
			<point x="54" y="431" type="line" smooth="yes"/>
			<point x="38" y="431"/>
			<point x="11" y="431"/>
			<point x="11" y="398" type="curve" smooth="yes"/>
			<point x="11" y="365"/>
			<point x="38" y="365"/>
			<point x="54" y="365" type="curve" smooth="yes"/>
			<point x="95" y="365" type="line"/>
			<point x="95" y="-156" type="line"/>
			<point x="54" y="-156" type="line" smooth="yes"/>
			<point x="38" y="-156"/>
			<point x="11" y="-156"/>
			<point x="11" y="-189" type="curve" smooth="yes"/>
			<point x="11" y="-222"/>
			<point x="38" y="-222"/>
			<point x="54" y="-222" type="curve" smooth="yes"/>
		</contour>
		<contour>
			<point x="171" y="263" type="line" smooth="yes"/>
			<point x="171" y="321"/>
			<point x="230" y="370"/>
			<point x="291" y="370" type="curve" smooth="yes"/>
			<point x="361" y="370"/>
			<point x="420" y="302"/>
			<point x="420" y="216" type="curve" smooth="yes"/>
			<point x="420" y="125"/>
			<point x="352" y="61"/>
			<point x="282" y="61" type="curve" smooth="yes"/>
			<point x="208" y="61"/>
			<point x="171" y="144"/>
			<point x="171" y="194" type="curve" smooth="yes"/>
		</contour>
	</outline>
</glyph>
<glyph name="q" format="2">
  <advance width="1062"/>
  <unicode hex="0071"/>
  <outline>
    <contour>
      <point x="74" y="430" type="curve" smooth="yes"/>
      <point x="74" y="186"/>
      <point x="266" y="-10"/>
      <point x="494" y="-10" type="curve" smooth="yes"/>
      <point x="656" y="-10"/>
      <point x="752" y="92"/>
      <point x="760" y="100" type="curve"/>
      <point x="760" y="-312" type="line"/>
      <point x="670" y="-312" type="line" smooth="yes"/>
      <point x="640" y="-312"/>
      <point x="582" y="-312"/>
      <point x="582" y="-378" type="curve" smooth="yes"/>
      <point x="582" y="-444"/>
      <point x="642" y="-444"/>
      <point x="670" y="-444" type="curve" smooth="yes"/>
      <point x="1002" y="-444" type="line" smooth="yes"/>
      <point x="1032" y="-444"/>
      <point x="1090" y="-444"/>
      <point x="1090" y="-378" type="curve" smooth="yes"/>
      <point x="1090" y="-312"/>
      <point x="1030" y="-312"/>
      <point x="1002" y="-312" type="curve" smooth="yes"/>
      <point x="912" y="-312" type="line"/>
      <point x="912" y="786" type="line" smooth="yes"/>
      <point x="912" y="824"/>
      <point x="912" y="872"/>
      <point x="836" y="872" type="curve" smooth="yes"/>
      <point x="760" y="872"/>
      <point x="760" y="828"/>
      <point x="760" y="772" type="curve"/>
      <point x="760" y="772" type="line"/>
      <point x="704" y="826"/>
      <point x="622" y="872"/>
      <point x="516" y="872" type="curve" smooth="yes"/>
      <point x="276" y="872"/>
      <point x="74" y="678"/>
    </contour>
    <contour>
      <point x="502" y="122" type="curve" smooth="yes"/>
      <point x="354" y="122"/>
      <point x="226" y="258"/>
      <point x="226" y="430" type="curve" smooth="yes"/>
      <point x="226" y="610"/>
      <point x="370" y="740"/>
      <point x="522" y="740" type="curve" smooth="yes"/>
      <point x="672" y="740"/>
      <point x="760" y="590"/>
      <point x="760" y="466" type="curve" smooth="yes"/>
      <point x="760" y="388" type="line" smooth="yes"/>
      <point x="760" y="268"/>
      <point x="654" y="122"/>
    </contour>
  </outline>
</glyph>
<glyph name="r" format="2">
  <advance width="531"/>
  <unicode hex="0072"/>
  <outline>
    <contour>
      <point x="226" y="183" type="line" smooth="yes"/>
      <point x="226" y="292"/>
      <point x="304" y="370"/>
      <point x="401" y="370" type="curve"/>
      <point x="403" y="331"/>
      <point x="431" y="323"/>
      <point x="447" y="323" type="curve" smooth="yes"/>
      <point x="472" y="323"/>
      <point x="493" y="341"/>
      <point x="493" y="370" type="curve" smooth="yes"/>
      <point x="493" y="395"/>
      <point x="475" y="436"/>
      <point x="397" y="436" type="curve" smooth="yes"/>
      <point x="305" y="436"/>
      <point x="251" y="383"/>
      <point x="226" y="358" type="curve"/>
      <point x="226" y="388" type="line" smooth="yes"/>
      <point x="226" y="422"/>
      <point x="216" y="431"/>
      <point x="183" y="431" type="curve" smooth="yes"/>
      <point x="74" y="431" type="line" smooth="yes"/>
      <point x="60" y="431"/>
      <point x="30" y="431"/>
      <point x="30" y="398" type="curve" smooth="yes"/>
      <point x="30" y="365"/>
      <point x="60" y="365"/>
      <point x="74" y="365" type="curve" smooth="yes"/>
      <point x="150" y="365" type="line"/>
      <point x="150" y="66" type="line"/>
      <point x="74" y="66" type="line" smooth="yes"/>
      <point x="60" y="66"/>
      <point x="30" y="66"/>
      <point x="30" y="33" type="curve" smooth="yes"/>
      <point x="30" y="0"/>
      <point x="60" y="0"/>
      <point x="74" y="0" type="curve" smooth="yes"/>
      <point x="332" y="0" type="line" smooth="yes"/>
      <point x="348" y="0"/>
      <point x="375" y="0"/>
      <point x="375" y="33" type="curve" smooth="yes"/>
      <point x="375" y="66"/>
      <point x="348" y="66"/>
      <point x="332" y="66" type="curve" smooth="yes"/>
      <point x="226" y="66" type="line"/>
    </contour>
  </outline>
</glyph>
<glyph name="s" format="2">
	<unicode hex="0073"/>
	<advance width="531"/>
	<outline>
		<contour>
			<point x="73" y="320" type="curve" smooth="yes"/>
			<point x="73" y="251"/>
			<point x="130" y="225"/>
			<point x="197" y="210" type="curve" smooth="yes"/>
			<point x="233" y="202"/>
			<point x="270.23864" y="196.95227"/>
			<point x="310" y="189" type="curve" smooth="yes"/>
			<point x="354" y="179"/>
			<point x="397" y="164"/>
			<point x="397" y="127" type="curve" smooth="yes"/>
			<point x="397" y="91"/>
			<point x="359" y="61"/>
			<point x="272" y="61" type="curve" smooth="yes"/>
			<point x="210" y="61"/>
			<point x="170" y="82"/>
			<point x="149" y="142" type="curve" smooth="yes"/>
			<point x="144" y="158"/>
			<point x="140" y="170"/>
			<point x="111" y="170" type="curve" smooth="yes"/>
			<point x="73" y="170"/>
			<point x="73" y="145"/>
			<point x="73" y="127" type="curve" smooth="yes"/>
			<point x="73" y="38" type="line" smooth="yes"/>
			<point x="73" y="23"/>
			<point x="73" y="-5"/>
			<point x="106" y="-5" type="curve" smooth="yes"/>
			<point x="116" y="-5"/>
			<point x="134" y="-2"/>
			<point x="144" y="28" type="curve"/>
			<point x="195" y="-5"/>
			<point x="251" y="-5"/>
			<point x="271" y="-5" type="curve" smooth="yes"/>
			<point x="441" y="-5"/>
			<point x="463" y="89"/>
			<point x="463" y="126" type="curve" smooth="yes"/>
			<point x="463" y="189"/>
			<point x="415" y="235"/>
			<point x="324" y="253" type="curve" smooth="yes"/>
			<point x="293" y="259"/>
			<point x="246" y="265"/>
			<point x="211" y="273" type="curve" smooth="yes"/>
			<point x="169" y="283"/>
			<point x="139" y="295"/>
			<point x="139" y="320" type="curve" smooth="yes"/>
			<point x="139" y="340"/>
			<point x="163" y="373"/>
			<point x="263" y="373" type="curve" smooth="yes"/>
			<point x="353" y="373"/>
			<point x="356" y="341"/>
			<point x="357" y="323" type="curve" smooth="yes"/>
			<point x="359" y="291"/>
			<point x="384" y="291"/>
			<point x="395" y="291" type="curve" smooth="yes"/>
			<point x="433" y="291"/>
			<point x="433" y="315"/>
			<point x="433" y="334" type="curve" smooth="yes"/>
			<point x="433" y="396" type="line" smooth="yes"/>
			<point x="433" y="411"/>
			<point x="433" y="439"/>
			<point x="400" y="439" type="curve" smooth="yes"/>
			<point x="377" y="439"/>
			<point x="372" y="427"/>
			<point x="369" y="421" type="curve"/>
			<point x="328" y="439"/>
			<point x="288" y="439"/>
			<point x="265" y="439" type="curve" smooth="yes"/>
			<point x="95" y="439"/>
			<point x="73" y="355"/>
		</contour>
	</outline>
</glyph>
<glyph name="t" format="2">
	<unicode hex="0074"/>
	<advance width="531"/>
	<outline>
		<contour>
			<point x="228" y="365" type="line"/>
			<point x="388" y="365" type="line" smooth="yes"/>
			<point x="403" y="365"/>
			<point x="431" y="365"/>
			<point x="431" y="398" type="curve" smooth="yes"/>
			<point x="431" y="431"/>
			<point x="403" y="431"/>
			<point x="388" y="431" type="curve" smooth="yes"/>
			<point x="228" y="431" type="line"/>
			<point x="228" y="511" type="line" smooth="yes"/>
			<point x="228" y="530"/>
			<point x="228" y="554"/>
			<point x="190" y="554" type="curve" smooth="yes"/>
			<point x="152" y="554"/>
			<point x="152" y="529"/>
			<point x="152" y="511" type="curve" smooth="yes"/>
			<point x="152" y="431" type="line"/>
			<point x="69" y="431" type="line" smooth="yes"/>
			<point x="54" y="431"/>
			<point x="25" y="431"/>
			<point x="25" y="398" type="curve" smooth="yes"/>
			<point x="25" y="365"/>
			<point x="53" y="365"/>
			<point x="68" y="365" type="curve" smooth="yes"/>
			<point x="152" y="365" type="line"/>
			<point x="152" y="137" type="line" smooth="yes"/>
			<point x="152" y="29"/>
			<point x="228" y="-5"/>
			<point x="298" y="-5" type="curve" smooth="yes"/>
			<point x="388" y="-5"/>
			<point x="454" y="58"/>
			<point x="454" y="130" type="curve" smooth="yes"/>
			<point x="454" y="164"/>
			<point x="425" y="164"/>
			<point x="416" y="164" type="curve" smooth="yes"/>
			<point x="390" y="164"/>
			<point x="379" y="154"/>
			<point x="378" y="129" type="curve" smooth="yes"/>
			<point x="376" y="88"/>
			<point x="340" y="61"/>
			<point x="302" y="61" type="curve" smooth="yes"/>
			<point x="228" y="61"/>
			<point x="228" y="116"/>
			<point x="228" y="139" type="curve" smooth="yes"/>
		</contour>
	</outline>
</glyph>
<glyph name="u" format="2">
  <advance width="1062"/>
  <unicode hex="0075"/>
  <outline>
    <contour>
      <point x="716" y="58" type="curve"/>
      <point x="726" y="0"/>
      <point x="774" y="0"/>
      <point x="804" y="0" type="curve" smooth="yes"/>
      <point x="952" y="0" type="line" smooth="yes"/>
      <point x="984" y="0"/>
      <point x="1038" y="0"/>
      <point x="1038" y="66" type="curve" smooth="yes"/>
      <point x="1038" y="132"/>
      <point x="984" y="132"/>
      <point x="952" y="132" type="curve" smooth="yes"/>
      <point x="870" y="132" type="line"/>
      <point x="870" y="776" type="line" smooth="yes"/>
      <point x="870" y="844"/>
      <point x="850" y="862"/>
      <point x="784" y="862" type="curve" smooth="yes"/>
      <point x="636" y="862" type="line" smooth="yes"/>
      <point x="604" y="862"/>
      <point x="550" y="862"/>
      <point x="550" y="796" type="curve" smooth="yes"/>
      <point x="550" y="730"/>
      <point x="604" y="730"/>
      <point x="636" y="730" type="curve" smooth="yes"/>
      <point x="718" y="730" type="line"/>
      <point x="718" y="310" type="line" smooth="yes"/>
      <point x="718" y="152"/>
      <point x="572" y="122"/>
      <point x="496" y="122" type="curve" smooth="yes"/>
      <point x="342" y="122"/>
      <point x="342" y="180"/>
      <point x="342" y="238" type="curve" smooth="yes"/>
      <point x="342" y="776" type="line" smooth="yes"/>
      <point x="342" y="844"/>
      <point x="322" y="862"/>
      <point x="256" y="862" type="curve" smooth="yes"/>
      <point x="108" y="862" type="line" smooth="yes"/>
      <point x="76" y="862"/>
      <point x="22" y="862"/>
      <point x="22" y="796" type="curve" smooth="yes"/>
      <point x="22" y="730"/>
      <point x="76" y="730"/>
      <point x="108" y="730" type="curve" smooth="yes"/>
      <point x="190" y="730" type="line"/>
      <point x="190" y="232" type="line" smooth="yes"/>
      <point x="190" y="48"/>
      <point x="316" y="-10"/>
      <point x="484" y="-10" type="curve" smooth="yes"/>
      <point x="590" y="-10"/>
      <point x="666" y="20"/>
    </contour>
  </outline>
</glyph>
<glyph name="v" format="2">
  <advance width="1062"/>
  <unicode hex="0076"/>
  <outline>
    <contour>
      <point x="870" y="730" type="line"/>
      <point x="924" y="730" type="line" smooth="yes"/>
      <point x="954" y="730"/>
      <point x="1010" y="730"/>
      <point x="1010" y="796" type="curve" smooth="yes"/>
      <point x="1010" y="862"/>
      <point x="954" y="862"/>
      <point x="924" y="862" type="curve" smooth="yes"/>
      <point x="692" y="862" type="line" smooth="yes"/>
      <point x="660" y="862"/>
      <point x="606" y="862"/>
      <point x="606" y="796" type="curve" smooth="yes"/>
      <point x="606" y="730"/>
      <point x="660" y="730"/>
      <point x="692" y="730" type="curve" smooth="yes"/>
      <point x="738" y="730" type="line"/>
      <point x="530" y="114" type="line"/>
      <point x="322" y="730" type="line"/>
      <point x="368" y="730" type="line" smooth="yes"/>
      <point x="400" y="730"/>
      <point x="454" y="730"/>
      <point x="454" y="796" type="curve" smooth="yes"/>
      <point x="454" y="862"/>
      <point x="400" y="862"/>
      <point x="368" y="862" type="curve" smooth="yes"/>
      <point x="136" y="862" type="line" smooth="yes"/>
      <point x="106" y="862"/>
      <point x="50" y="862"/>
      <point x="50" y="796" type="curve" smooth="yes"/>
      <point x="50" y="730"/>
      <point x="106" y="730"/>
      <point x="136" y="730" type="curve" smooth="yes"/>
      <point x="190" y="730" type="line"/>
      <point x="414" y="66" type="line" smooth="yes"/>
      <point x="440" y="-10"/>
      <point x="488" y="-10"/>
      <point x="530" y="-10" type="curve" smooth="yes"/>
      <point x="572" y="-10"/>
      <point x="620" y="-10"/>
      <point x="646" y="66" type="curve" smooth="yes"/>
    </contour>
  </outline>
</glyph>
<glyph name="w" format="2">
	<unicode hex="0077"/>
	<advance width="531"/>
	<outline>
		<contour>
			<point x="463" y="365" type="line"/>
			<point x="486" y="365"/>
			<point x="514" y="365"/>
			<point x="514" y="398" type="curve" smooth="yes"/>
			<point x="514" y="431"/>
			<point x="484" y="431"/>
			<point x="470" y="431" type="curve" smooth="yes"/>
			<point x="352" y="431" type="line" smooth="yes"/>
			<point x="337" y="431"/>
			<point x="309" y="431"/>
			<point x="309" y="398" type="curve" smooth="yes"/>
			<point x="309" y="365"/>
			<point x="337" y="365"/>
			<point x="352" y="365" type="curve" smooth="yes"/>
			<point x="399" y="365" type="line"/>
			<point x="353" y="80" type="line"/>
			<point x="352" y="80" type="line"/>
			<point x="349" y="105"/>
			<point x="334" y="157"/>
			<point x="324" y="189" type="curve" smooth="yes"/>
			<point x="309" y="243"/>
			<point x="304" y="259"/>
			<point x="267" y="259" type="curve" smooth="yes"/>
			<point x="229" y="259"/>
			<point x="225" y="242"/>
			<point x="210" y="191" type="curve" smooth="yes"/>
			<point x="185" y="105"/>
			<point x="183" y="95"/>
			<point x="180" y="79" type="curve"/>
			<point x="179" y="79" type="line"/>
			<point x="131" y="365" type="line"/>
			<point x="178" y="365" type="line" smooth="yes"/>
			<point x="193" y="365"/>
			<point x="221" y="365"/>
			<point x="221" y="398" type="curve" smooth="yes"/>
			<point x="221" y="431"/>
			<point x="193" y="431"/>
			<point x="178" y="431" type="curve" smooth="yes"/>
			<point x="60" y="431" type="line" smooth="yes"/>
			<point x="45" y="431"/>
			<point x="16" y="431"/>
			<point x="16" y="398" type="curve" smooth="yes"/>
			<point x="16" y="365"/>
			<point x="44" y="365"/>
			<point x="67" y="365" type="curve"/>
			<point x="126" y="35" type="line" smooth="yes"/>
			<point x="133" y="-3"/>
			<point x="152" y="-5"/>
			<point x="176" y="-5" type="curve" smooth="yes"/>
			<point x="219" y="-5"/>
			<point x="223" y="7"/>
			<point x="238" y="60" type="curve" smooth="yes"/>
			<point x="263" y="147"/>
			<point x="264" y="159"/>
			<point x="266" y="178" type="curve"/>
			<point x="267" y="178" type="line"/>
			<point x="268" y="166"/>
			<point x="275" y="133"/>
			<point x="296" y="60" type="curve" smooth="yes"/>
			<point x="310" y="10"/>
			<point x="314" y="-5"/>
			<point x="356" y="-5" type="curve" smooth="yes"/>
			<point x="374" y="-5"/>
			<point x="397" y="-5"/>
			<point x="404" y="34" type="curve" smooth="yes"/>
		</contour>
	</outline>
</glyph>
<glyph name="x" format="2">
	<unicode hex="0078"/>
	<advance width="531"/>
	<outline>
		<contour>
			<point x="293" y="222" type="line"/>
			<point x="404" y="365" type="line"/>
			<point x="441" y="365" type="line" smooth="yes"/>
			<point x="455" y="365"/>
			<point x="485" y="365"/>
			<point x="485" y="398" type="curve" smooth="yes"/>
			<point x="485" y="431"/>
			<point x="455" y="431"/>
			<point x="441" y="431" type="curve" smooth="yes"/>
			<point x="325" y="431" type="line" smooth="yes"/>
			<point x="310" y="431"/>
			<point x="282" y="431"/>
			<point x="282" y="398" type="curve" smooth="yes"/>
			<point x="282" y="365"/>
			<point x="309" y="365"/>
			<point x="329" y="365" type="curve"/>
			<point x="262" y="275" type="line"/>
			<point x="194" y="365" type="line"/>
			<point x="211" y="365"/>
			<point x="239" y="365"/>
			<point x="239" y="398" type="curve" smooth="yes"/>
			<point x="239" y="431"/>
			<point x="211" y="431"/>
			<point x="196" y="431" type="curve" smooth="yes"/>
			<point x="80" y="431" type="line" smooth="yes"/>
			<point x="66" y="431"/>
			<point x="36" y="431"/>
			<point x="36" y="398" type="curve" smooth="yes"/>
			<point x="36" y="365"/>
			<point x="66" y="365"/>
			<point x="80" y="365" type="curve" smooth="yes"/>
			<point x="118" y="365" type="line"/>
			<point x="232" y="222" type="line"/>
			<point x="111" y="66" type="line"/>
			<point x="74" y="66" type="line" smooth="yes"/>
			<point x="59" y="66"/>
			<point x="30" y="66"/>
			<point x="30" y="33" type="curve" smooth="yes"/>
			<point x="30" y="0"/>
			<point x="60" y="0"/>
			<point x="74" y="0" type="curve" smooth="yes"/>
			<point x="189" y="0" type="line" smooth="yes"/>
			<point x="204" y="0"/>
			<point x="233" y="0"/>
			<point x="233" y="33" type="curve" smooth="yes"/>
			<point x="233" y="66"/>
			<point x="205" y="66"/>
			<point x="183" y="66" type="curve"/>
			<point x="262" y="180" type="line"/>
			<point x="344" y="66" type="line"/>
			<point x="323" y="66"/>
			<point x="296" y="66"/>
			<point x="296" y="33" type="curve" smooth="yes"/>
			<point x="296" y="0"/>
			<point x="324" y="0"/>
			<point x="339" y="0" type="curve" smooth="yes"/>
			<point x="455" y="0" type="line" smooth="yes"/>
			<point x="469" y="0"/>
			<point x="499" y="0"/>
			<point x="499" y="33" type="curve" smooth="yes"/>
			<point x="499" y="66"/>
			<point x="469" y="66"/>
			<point x="455" y="66" type="curve" smooth="yes"/>
			<point x="417" y="66" type="line"/>
		</contour>
	</outline>
</glyph>
<glyph name="z" format="2">
	<unicode hex="007A"/>
	<advance width="531"/>
	<outline>
		<contour>
			<point x="362" y="365" type="line"/>
			<point x="48" y="72" type="line" smooth="yes"/>
			<point x="33" y="58"/>
			<point x="33" y="50"/>
			<point x="33" y="37" type="curve" smooth="yes"/>
			<point x="33" y="0"/>
			<point x="58" y="0"/>
			<point x="76" y="0" type="curve" smooth="yes"/>
			<point x="437" y="0" type="line" smooth="yes"/>
			<point x="470" y="0"/>
			<point x="480" y="8"/>
			<point x="480" y="43" type="curve" smooth="yes"/>
			<point x="480" y="101" type="line" smooth="yes"/>
			<point x="480" y="120"/>
			<point x="480" y="144"/>
			<point x="442" y="144" type="curve" smooth="yes"/>
			<point x="404" y="144"/>
			<point x="404" y="120"/>
			<point x="404" y="101" type="curve" smooth="yes"/>
			<point x="404" y="66" type="line"/>
			<point x="148" y="66" type="line"/>
			<point x="462" y="359" type="line" smooth="yes"/>
			<point x="477" y="373"/>
			<point x="477" y="381"/>
			<point x="477" y="394" type="curve" smooth="yes"/>
			<point x="477" y="431"/>
			<point x="452" y="431"/>
			<point x="434" y="431" type="curve" smooth="yes"/>
			<point x="94" y="431" type="line" smooth="yes"/>
			<point x="63" y="431"/>
			<point x="50" y="425"/>
			<point x="50" y="388" type="curve" smooth="yes"/>
			<point x="50" y="341" type="line" smooth="yes"/>
			<point x="50" y="322"/>
			<point x="50" y="298"/>
			<point x="88" y="298" type="curve" smooth="yes"/>
			<point x="126" y="298"/>
			<point x="126" y="322"/>
			<point x="126" y="341" type="curve" smooth="yes"/>
			<point x="126" y="365" type="line"/>
		</contour>
	</outline>
</glyph>
<glyph name="braceleft" format="2">
  <advance width="1062"/>
  <unicode hex="007B"/>
  <outline>
    <contour>
      <point x="606" y="414" type="line" smooth="yes"/>
      <point x="606" y="448"/>
      <point x="606" y="554"/>
      <point x="498" y="610" type="curve"/>
      <point x="606" y="670"/>
      <point x="606" y="774"/>
      <point x="606" y="808" type="curve" smooth="yes"/>
      <point x="606" y="1126" type="line" smooth="yes"/>
      <point x="606" y="1174"/>
      <point x="606" y="1252"/>
      <point x="868" y="1256" type="curve" smooth="yes"/>
      <point x="892" y="1256"/>
      <point x="948" y="1256"/>
      <point x="948" y="1322" type="curve" smooth="yes"/>
      <point x="948" y="1388"/>
      <point x="892" y="1388"/>
      <point x="860" y="1388" type="curve" smooth="yes"/>
      <point x="832" y="1388"/>
      <point x="688" y="1388"/>
      <point x="584" y="1340" type="curve" smooth="yes"/>
      <point x="454" y="1280"/>
      <point x="454" y="1174"/>
      <point x="454" y="1134" type="curve" smooth="yes"/>
      <point x="454" y="794" type="line" smooth="yes"/>
      <point x="454" y="700"/>
      <point x="302" y="678"/>
      <point x="202" y="678" type="curve" smooth="yes"/>
      <point x="170" y="678"/>
      <point x="112" y="678"/>
      <point x="112" y="610" type="curve" smooth="yes"/>
      <point x="112" y="544"/>
      <point x="172" y="544"/>
      <point x="196" y="544" type="curve" smooth="yes"/>
      <point x="454" y="542"/>
      <point x="454" y="452"/>
      <point x="454" y="406" type="curve" smooth="yes"/>
      <point x="454" y="88" type="line" smooth="yes"/>
      <point x="454" y="48"/>
      <point x="454" y="-56"/>
      <point x="582" y="-116" type="curve" smooth="yes"/>
      <point x="686" y="-166"/>
      <point x="834" y="-166"/>
      <point x="860" y="-166" type="curve" smooth="yes"/>
      <point x="892" y="-166"/>
      <point x="948" y="-166"/>
      <point x="948" y="-100" type="curve" smooth="yes"/>
      <point x="948" y="-36"/>
      <point x="894" y="-34"/>
      <point x="866" y="-34" type="curve" smooth="yes"/>
      <point x="606" y="-30"/>
      <point x="606" y="48"/>
      <point x="606" y="96" type="curve" smooth="yes"/>
    </contour>
  </outline>
</glyph>
<glyph name="bar" format="2">
  <advance width="1062"/>
  <unicode hex="007C"/>
  <outline>
    <contour>
      <point x="608" y="1288" type="line" smooth="yes"/>
      <point x="608" y="1310"/>
      <point x="608" y="1388"/>
      <point x="532" y="1388" type="curve" smooth="yes"/>
      <point x="454" y="1388"/>
      <point x="454" y="1312"/>
      <point x="454" y="1288" type="curve" smooth="yes"/>
      <point x="454" y="-66" type="line" smooth="yes"/>
      <point x="454" y="-88"/>
      <point x="454" y="-166"/>
      <point x="530" y="-166" type="curve" smooth="yes"/>
      <point x="608" y="-166"/>
      <point x="608" y="-90"/>
      <point x="608" y="-66" type="curve" smooth="yes"/>
    </contour>
  </outline>
</glyph>
<glyph name="asciitilde" format="2">
  <advance width="1062"/>
  <unicode hex="007E"/>
  <outline>
    <contour>
      <point x="882" y="1154" type="curve" smooth="yes"/>
      <point x="882" y="1188"/>
      <point x="852" y="1222"/>
      <point x="814" y="1222" type="curve" smooth="yes"/>
      <point x="788" y="1222"/>
      <point x="772" y="1206"/>
      <point x="756" y="1190" type="curve" smooth="yes"/>
      <point x="726" y="1162"/>
      <point x="674" y="1114"/>
      <point x="628" y="1114" type="curve" smooth="yes"/>
      <point x="614" y="1114"/>
      <point x="602" y="1126"/>
      <point x="580" y="1148" type="curve" smooth="yes"/>
      <point x="546" y="1182"/>
      <point x="506" y="1222"/>
      <point x="438" y="1222" type="curve" smooth="yes"/>
      <point x="396" y="1222"/>
      <point x="346" y="1206"/>
      <point x="280" y="1156" type="curve" smooth="yes"/>
      <point x="240" y="1126"/>
      <point x="178" y="1080"/>
      <point x="178" y="1040" type="curve" smooth="yes"/>
      <point x="178" y="1006"/>
      <point x="208" y="972"/>
      <point x="246" y="972" type="curve" smooth="yes"/>
      <point x="272" y="972"/>
      <point x="288" y="988"/>
      <point x="304" y="1004" type="curve" smooth="yes"/>
      <point x="334" y="1032"/>
      <point x="386" y="1080"/>
      <point x="432" y="1080" type="curve" smooth="yes"/>
      <point x="446" y="1080"/>
      <point x="458" y="1068"/>
      <point x="480" y="1046" type="curve" smooth="yes"/>
      <point x="514" y="1012"/>
      <point x="554" y="972"/>
      <point x="622" y="972" type="curve" smooth="yes"/>
      <point x="664" y="972"/>
      <point x="714" y="988"/>
      <point x="780" y="1038" type="curve" smooth="yes"/>
      <point x="820" y="1068"/>
      <point x="882" y="1114"/>
    </contour>
  </outline>
</glyph>
<glyph name="exclamdown" format="2">
  <advance width="1062"/>
  <unicode hex="00A1"/>
  <outline>
    <contour>
      <point x="638" y="670" type="curve" smooth="yes"/>
      <point x="638" y="730"/>
      <point x="590" y="778"/>
      <point x="530" y="778" type="curve" smooth="yes"/>
      <point x="470" y="778"/>
      <point x="422" y="730"/>
      <point x="422" y="670" type="curve" smooth="yes"/>
      <point x="422" y="610"/>
      <point x="470" y="562"/>
      <point x="530" y="562" type="curve" smooth="yes"/>
      <point x="590" y="562"/>
      <point x="638" y="610"/>
    </contour>
    <contour>
      <point x="638" y="-336" type="curve" smooth="yes"/>
      <point x="631" y="-118"/>
      <point x="623" y="101"/>
      <point x="616" y="320" type="curve" smooth="yes"/>
      <point x="614" y="396"/>
      <point x="578" y="398"/>
      <point x="530" y="398" type="curve" smooth="yes"/>
      <point x="484" y="398"/>
      <point x="446" y="398"/>
      <point x="444" y="320" type="curve" smooth="yes"/>
      <point x="437" y="102"/>
      <point x="429" y="-117"/>
      <point x="422" y="-336" type="curve" smooth="yes"/>
      <point x="418" y="-454"/>
      <point x="510" y="-464"/>
      <point x="530" y="-464" type="curve" smooth="yes"/>
      <point x="546" y="-464"/>
      <point x="642" y="-456"/>
    </contour>
  </outline>
</glyph>
<glyph name="dieresis" format="2">
  <advance width="531"/>
  <unicode hex="00A8"/>
  <outline>
    <contour>
      <point x="216" y="559" type="curve" smooth="yes"/>
      <point x="216" y="591"/>
      <point x="190" y="612"/>
      <point x="162" y="612" type="curve" smooth="yes"/>
      <point x="129" y="612"/>
      <point x="108" y="585"/>
      <point x="108" y="560" type="curve" smooth="yes"/>
      <point x="108" y="532"/>
      <point x="131" y="507"/>
      <point x="162" y="507" type="curve" smooth="yes"/>
      <point x="192" y="507"/>
      <point x="216" y="530"/>
    </contour>
    <contour>
      <point x="422" y="559" type="curve" smooth="yes"/>
      <point x="422" y="587"/>
      <point x="399" y="612"/>
      <point x="368" y="612" type="curve" smooth="yes"/>
      <point x="338" y="612"/>
      <point x="314" y="589"/>
      <point x="314" y="560" type="curve" smooth="yes"/>
      <point x="314" y="528"/>
      <point x="340" y="507"/>
      <point x="368" y="507" type="curve" smooth="yes"/>
      <point x="401" y="507"/>
      <point x="422" y="534"/>
    </contour>
  </outline>
</glyph>
<glyph name="macron" format="2">
	<unicode hex="00AF"/>
	<advance width="531"/>
	<outline>
		<contour>
			<point x="413" y="513" type="line" smooth="yes"/>
			<point x="429" y="513"/>
			<point x="456" y="513"/>
			<point x="456" y="547" type="curve" smooth="yes"/>
			<point x="456" y="581"/>
			<point x="429" y="581"/>
			<point x="413" y="581" type="curve" smooth="yes"/>
			<point x="117" y="581" type="line" smooth="yes"/>
			<point x="101" y="581"/>
			<point x="74" y="581"/>
			<point x="74" y="547" type="curve" smooth="yes"/>
			<point x="74" y="513"/>
			<point x="102" y="513"/>
			<point x="118" y="513" type="curve" smooth="yes"/>
		</contour>
	</outline>
</glyph>
<glyph name="acute" format="2">
  <advance width="1062"/>
  <unicode hex="00B4"/>
  <outline>
    <contour>
      <point x="764" y="1070" type="line" smooth="yes"/>
      <point x="784" y="1078"/>
      <point x="824" y="1094"/>
      <point x="824" y="1146" type="curve" smooth="yes"/>
      <point x="824" y="1186"/>
      <point x="792" y="1222"/>
      <point x="748" y="1222" type="curve" smooth="yes"/>
      <point x="734" y="1222"/>
      <point x="732" y="1220"/>
      <point x="704" y="1210" type="curve" smooth="yes"/>
      <point x="446" y="1110" type="line" smooth="yes"/>
      <point x="420" y="1100"/>
      <point x="390" y="1088"/>
      <point x="390" y="1048" type="curve" smooth="yes"/>
      <point x="390" y="1046"/>
      <point x="398" y="960"/>
      <point x="462" y="960" type="curve" smooth="yes"/>
      <point x="474" y="960"/>
      <point x="502" y="970"/>
      <point x="536" y="984" type="curve" smooth="yes"/>
    </contour>
  </outline>
</glyph>
<glyph name="cedilla" format="2">
  <advance width="1062"/>
  <unicode hex="00B8"/>
  <outline>
    <contour>
      <point x="720" y="-204" type="curve" smooth="yes"/>
      <point x="720" y="-280"/>
      <point x="502" y="-280"/>
      <point x="452" y="-280" type="curve" smooth="yes"/>
      <point x="408" y="-280" type="line" smooth="yes"/>
      <point x="376" y="-280"/>
      <point x="322" y="-280"/>
      <point x="322" y="-346" type="curve" smooth="yes"/>
      <point x="322" y="-412"/>
      <point x="368" y="-412"/>
      <point x="436" y="-412" type="curve" smooth="yes"/>
      <point x="598" y="-412"/>
      <point x="872" y="-406"/>
      <point x="872" y="-204" type="curve" smooth="yes"/>
      <point x="872" y="-134"/>
      <point x="830" y="-40"/>
      <point x="672" y="-6" type="curve"/>
      <point x="672" y="64"/>
      <point x="672" y="104"/>
      <point x="596" y="104" type="curve" smooth="yes"/>
      <point x="520" y="104"/>
      <point x="520" y="54"/>
      <point x="520" y="14" type="curve" smooth="yes"/>
      <point x="520" y="-40" type="line" smooth="yes"/>
      <point x="520" y="-80"/>
      <point x="520" y="-126"/>
      <point x="590" y="-130" type="curve" smooth="yes"/>
      <point x="670" y="-134"/>
      <point x="720" y="-166"/>
    </contour>
  </outline>
</glyph>
<glyph name="questiondown" format="2">
  <advance width="1062"/>
  <unicode hex="00BF"/>
  <outline>
    <contour>
      <point x="606" y="670" type="curve" smooth="yes"/>
      <point x="606" y="730"/>
      <point x="558" y="778"/>
      <point x="498" y="778" type="curve" smooth="yes"/>
      <point x="438" y="778"/>
      <point x="390" y="730"/>
      <point x="390" y="670" type="curve" smooth="yes"/>
      <point x="390" y="610"/>
      <point x="438" y="562"/>
      <point x="498" y="562" type="curve" smooth="yes"/>
      <point x="558" y="562"/>
      <point x="606" y="610"/>
    </contour>
    <contour>
      <point x="412" y="276" type="line" smooth="yes"/>
      <point x="412" y="114"/>
      <point x="314" y="32"/>
      <point x="228" y="-24" type="curve" smooth="yes"/>
      <point x="168" y="-62"/>
      <point x="126" y="-132"/>
      <point x="126" y="-206" type="curve" smooth="yes"/>
      <point x="126" y="-396"/>
      <point x="320" y="-454"/>
      <point x="502" y="-454" type="curve" smooth="yes"/>
      <point x="584" y="-454"/>
      <point x="936" y="-454"/>
      <point x="936" y="-210" type="curve" smooth="yes"/>
      <point x="936" y="-142"/>
      <point x="886" y="-110"/>
      <point x="838" y="-110" type="curve" smooth="yes"/>
      <point x="788" y="-110"/>
      <point x="742" y="-148"/>
      <point x="742" y="-206" type="curve" smooth="yes"/>
      <point x="742" y="-234"/>
      <point x="752" y="-254"/>
      <point x="760" y="-264" type="curve"/>
      <point x="696" y="-318"/>
      <point x="560" y="-322"/>
      <point x="502" y="-322" type="curve" smooth="yes"/>
      <point x="462" y="-322"/>
      <point x="278" y="-322"/>
      <point x="278" y="-206" type="curve" smooth="yes"/>
      <point x="278" y="-160"/>
      <point x="308" y="-138"/>
      <point x="348" y="-112" type="curve" smooth="yes"/>
      <point x="584" y="44"/>
      <point x="584" y="222"/>
      <point x="584" y="292" type="curve" smooth="yes"/>
      <point x="584" y="366"/>
      <point x="584" y="398"/>
      <point x="498" y="398" type="curve" smooth="yes"/>
      <point x="442" y="398"/>
      <point x="412" y="392"/>
      <point x="412" y="312" type="curve" smooth="yes"/>
    </contour>
  </outline>
</glyph>
<glyph name="AE" format="2">
  <advance width="1062"/>
  <unicode hex="00C6"/>
  <outline>
    <contour>
      <point x="318" y="356" type="line"/>
      <point x="534" y="356" type="line"/>
      <point x="534" y="132" type="line"/>
      <point x="516" y="132"/>
      <point x="454" y="132"/>
      <point x="454" y="66" type="curve" smooth="yes"/>
      <point x="454" y="0"/>
      <point x="514" y="0"/>
      <point x="542" y="0" type="curve" smooth="yes"/>
      <point x="924" y="0" type="line" smooth="yes"/>
      <point x="990" y="0"/>
      <point x="1010" y="16"/>
      <point x="1010" y="86" type="curve" smooth="yes"/>
      <point x="1010" y="264" type="line" smooth="yes"/>
      <point x="1010" y="290"/>
      <point x="1010" y="350"/>
      <point x="948" y="350" type="curve" smooth="yes"/>
      <point x="886" y="350"/>
      <point x="886" y="290"/>
      <point x="886" y="264" type="curve" smooth="yes"/>
      <point x="886" y="132" type="line"/>
      <point x="658" y="132" type="line"/>
      <point x="658" y="566" type="line"/>
      <point x="874" y="566" type="line" smooth="yes"/>
      <point x="904" y="566"/>
      <point x="960" y="566"/>
      <point x="960" y="632" type="curve" smooth="yes"/>
      <point x="960" y="698"/>
      <point x="904" y="698"/>
      <point x="874" y="698" type="curve" smooth="yes"/>
      <point x="658" y="698" type="line"/>
      <point x="658" y="1090" type="line"/>
      <point x="870" y="1090" type="line"/>
      <point x="870" y="988" type="line" smooth="yes"/>
      <point x="870" y="962"/>
      <point x="870" y="902"/>
      <point x="932" y="902" type="curve" smooth="yes"/>
      <point x="994" y="902"/>
      <point x="994" y="962"/>
      <point x="994" y="988" type="curve" smooth="yes"/>
      <point x="994" y="1136" type="line" smooth="yes"/>
      <point x="994" y="1204"/>
      <point x="974" y="1222"/>
      <point x="908" y="1222" type="curve" smooth="yes"/>
      <point x="352" y="1222" type="line" smooth="yes"/>
      <point x="322" y="1222"/>
      <point x="264" y="1222"/>
      <point x="264" y="1156" type="curve" smooth="yes"/>
      <point x="264" y="1090"/>
      <point x="326" y="1090"/>
      <point x="342" y="1090" type="curve"/>
      <point x="144" y="132" type="line"/>
      <point x="100" y="132"/>
      <point x="48" y="132"/>
      <point x="48" y="66" type="curve" smooth="yes"/>
      <point x="48" y="0"/>
      <point x="102" y="0"/>
      <point x="134" y="0" type="curve" smooth="yes"/>
      <point x="274" y="0" type="line" smooth="yes"/>
      <point x="302" y="0"/>
      <point x="362" y="0"/>
      <point x="362" y="66" type="curve" smooth="yes"/>
      <point x="362" y="132"/>
      <point x="304" y="132"/>
      <point x="272" y="132" type="curve"/>
    </contour>
    <contour>
      <point x="468" y="1090" type="line"/>
      <point x="534" y="1090" type="line"/>
      <point x="534" y="488" type="line"/>
      <point x="344" y="488" type="line"/>
    </contour>
  </outline>
</glyph>
<glyph name="germandbls" format="2">
  <advance width="531"/>
  <unicode hex="00DF"/>
  <outline>
    <contour>
      <point x="394" y="393" type="curve"/>
      <point x="448" y="425"/>
      <point x="471" y="467"/>
      <point x="471" y="506" type="curve" smooth="yes"/>
      <point x="471" y="575"/>
      <point x="384" y="616"/>
      <point x="291" y="616" type="curve" smooth="yes"/>
      <point x="256" y="616"/>
      <point x="213" y="611"/>
      <point x="171" y="590" type="curve" smooth="yes"/>
      <point x="110" y="559"/>
      <point x="110" y="519"/>
      <point x="110" y="497" type="curve" smooth="yes"/>
      <point x="110" y="431" type="line"/>
      <point x="60" y="431" type="line" smooth="yes"/>
      <point x="45" y="431"/>
      <point x="16" y="431"/>
      <point x="16" y="398" type="curve" smooth="yes"/>
      <point x="16" y="365"/>
      <point x="46" y="365"/>
      <point x="60" y="365" type="curve" smooth="yes"/>
      <point x="110" y="365" type="line"/>
      <point x="110" y="66" type="line"/>
      <point x="60" y="66" type="line" smooth="yes"/>
      <point x="45" y="66"/>
      <point x="16" y="66"/>
      <point x="16" y="33" type="curve" smooth="yes"/>
      <point x="16" y="0"/>
      <point x="46" y="0"/>
      <point x="60" y="0" type="curve" smooth="yes"/>
      <point x="143" y="0" type="line" smooth="yes"/>
      <point x="176" y="0"/>
      <point x="186" y="8"/>
      <point x="186" y="43" type="curve" smooth="yes"/>
      <point x="186" y="492" type="line" smooth="yes"/>
      <point x="186" y="510"/>
      <point x="186" y="523"/>
      <point x="222" y="538" type="curve" smooth="yes"/>
      <point x="246" y="548"/>
      <point x="272" y="550"/>
      <point x="290" y="550" type="curve" smooth="yes"/>
      <point x="355" y="550"/>
      <point x="395" y="524"/>
      <point x="395" y="505" type="curve" smooth="yes"/>
      <point x="395" y="474"/>
      <point x="353" y="434"/>
      <point x="284" y="431" type="curve"/>
      <point x="272" y="431"/>
      <point x="245" y="429"/>
      <point x="245" y="398" type="curve" smooth="yes"/>
      <point x="245" y="382"/>
      <point x="254" y="366"/>
      <point x="276" y="365" type="curve" smooth="yes"/>
      <point x="379" y="359"/>
      <point x="424" y="254"/>
      <point x="424" y="175" type="curve" smooth="yes"/>
      <point x="424" y="102"/>
      <point x="366" y="61"/>
      <point x="317" y="61" type="curve" smooth="yes"/>
      <point x="313" y="61"/>
      <point x="308" y="61"/>
      <point x="304" y="63" type="curve"/>
      <point x="305" y="65"/>
      <point x="305" y="67"/>
      <point x="305" y="74" type="curve" smooth="yes"/>
      <point x="305" y="100"/>
      <point x="285" y="118"/>
      <point x="261" y="118" type="curve" smooth="yes"/>
      <point x="238" y="118"/>
      <point x="217" y="101"/>
      <point x="217" y="73" type="curve" smooth="yes"/>
      <point x="217" y="32"/>
      <point x="254" y="-5"/>
      <point x="317" y="-5" type="curve" smooth="yes"/>
      <point x="408" y="-5"/>
      <point x="500" y="65"/>
      <point x="500" y="175" type="curve" smooth="yes"/>
      <point x="500" y="288"/>
      <point x="435" y="364"/>
    </contour>
  </outline>
</glyph>
<glyph name="ae" format="2">
  <advance width="1062"/>
  <unicode hex="00E6"/>
  <outline>
    <contour>
      <point x="468" y="502" type="line"/>
      <point x="162" y="490"/>
      <point x="60" y="368"/>
      <point x="60" y="246" type="curve" smooth="yes"/>
      <point x="60" y="124"/>
      <point x="148" y="-10"/>
      <point x="300" y="-10" type="curve" smooth="yes"/>
      <point x="358" y="-10"/>
      <point x="488" y="10"/>
      <point x="558" y="120" type="curve"/>
      <point x="594" y="72"/>
      <point x="672" y="-10"/>
      <point x="786" y="-10" type="curve" smooth="yes"/>
      <point x="952" y="-10"/>
      <point x="1020" y="168"/>
      <point x="1020" y="216" type="curve" smooth="yes"/>
      <point x="1020" y="250"/>
      <point x="994" y="278"/>
      <point x="958" y="278" type="curve" smooth="yes"/>
      <point x="910" y="278"/>
      <point x="900" y="238"/>
      <point x="896" y="220" type="curve"/>
      <point x="880" y="168"/>
      <point x="844" y="122"/>
      <point x="792" y="122" type="curve" smooth="yes"/>
      <point x="722" y="122"/>
      <point x="618" y="200"/>
      <point x="596" y="376" type="curve"/>
      <point x="934" y="376" type="line" smooth="yes"/>
      <point x="1000" y="376"/>
      <point x="1020" y="392"/>
      <point x="1020" y="462" type="curve" smooth="yes"/>
      <point x="1020" y="744"/>
      <point x="904" y="878"/>
      <point x="764" y="878" type="curve" smooth="yes"/>
      <point x="664" y="878"/>
      <point x="594" y="808"/>
      <point x="548" y="744" type="curve"/>
      <point x="510" y="808"/>
      <point x="440" y="878"/>
      <point x="318" y="878" type="curve" smooth="yes"/>
      <point x="156" y="878"/>
      <point x="82" y="810"/>
      <point x="82" y="724" type="curve" smooth="yes"/>
      <point x="82" y="670"/>
      <point x="120" y="626"/>
      <point x="180" y="626" type="curve" smooth="yes"/>
      <point x="232" y="626"/>
      <point x="276" y="664"/>
      <point x="276" y="724" type="curve" smooth="yes"/>
      <point x="276" y="736"/>
      <point x="276" y="740"/>
      <point x="274" y="744" type="curve"/>
      <point x="286" y="746"/>
      <point x="304" y="746"/>
      <point x="316" y="746" type="curve" smooth="yes"/>
      <point x="394" y="746"/>
      <point x="468" y="694"/>
      <point x="468" y="562" type="curve" smooth="yes"/>
    </contour>
    <contour>
      <point x="596" y="506" type="line"/>
      <point x="616" y="646"/>
      <point x="692" y="746"/>
      <point x="764" y="746" type="curve" smooth="yes"/>
      <point x="814" y="746"/>
      <point x="882" y="696"/>
      <point x="894" y="506" type="curve"/>
    </contour>
    <contour>
      <point x="468" y="372" type="curve"/>
      <point x="467" y="336"/>
      <point x="467" y="300"/>
      <point x="466" y="264" type="curve" smooth="yes"/>
      <point x="466" y="226"/>
      <point x="466" y="194"/>
      <point x="424" y="162" type="curve" smooth="yes"/>
      <point x="382" y="128"/>
      <point x="334" y="122"/>
      <point x="310" y="122" type="curve" smooth="yes"/>
      <point x="226" y="122"/>
      <point x="184" y="192"/>
      <point x="184" y="246" type="curve" smooth="yes"/>
      <point x="184" y="304"/>
      <point x="264" y="362"/>
    </contour>
  </outline>
</glyph>
<glyph name="oslash" format="2">
  <advance width="531"/>
  <unicode hex="00F8"/>
  <outline>
    <contour>
      <point x="481" y="518" type="line"/>
      <point x="485" y="524"/>
      <point x="489" y="534"/>
      <point x="489" y="541" type="curve" smooth="yes"/>
      <point x="489" y="562"/>
      <point x="469" y="574"/>
      <point x="454" y="574" type="curve" smooth="yes"/>
      <point x="436" y="574"/>
      <point x="428" y="560"/>
      <point x="424" y="553" type="curve" smooth="yes"/>
      <point x="348" y="423" type="line"/>
      <point x="328" y="431"/>
      <point x="298" y="439"/>
      <point x="265" y="439" type="curve" smooth="yes"/>
      <point x="141" y="439"/>
      <point x="43" y="338"/>
      <point x="43" y="216" type="curve" smooth="yes"/>
      <point x="43" y="144"/>
      <point x="78" y="80"/>
      <point x="126" y="44" type="curve"/>
      <point x="56" y="-75" type="line" smooth="yes"/>
      <point x="41" y="-101"/>
      <point x="41" y="-103"/>
      <point x="41" y="-110" type="curve" smooth="yes"/>
      <point x="41" y="-130"/>
      <point x="60" y="-143"/>
      <point x="76" y="-143" type="curve" smooth="yes"/>
      <point x="93" y="-143"/>
      <point x="99" y="-133"/>
      <point x="107" y="-120" type="curve" smooth="yes"/>
      <point x="119" y="-102"/>
      <point x="137" y="-67"/>
      <point x="184" y="10" type="curve"/>
      <point x="210" y="0"/>
      <point x="238" y="-5"/>
      <point x="265" y="-5" type="curve" smooth="yes"/>
      <point x="387" y="-5"/>
      <point x="487" y="93"/>
      <point x="487" y="216" type="curve" smooth="yes"/>
      <point x="487" y="270"/>
      <point x="466" y="339"/>
      <point x="405" y="389" type="curve"/>
    </contour>
    <contour>
      <point x="159" y="100" type="line"/>
      <point x="117" y="137"/>
      <point x="105" y="181"/>
      <point x="105" y="216" type="curve" smooth="yes"/>
      <point x="105" y="302"/>
      <point x="176" y="373"/>
      <point x="265" y="373" type="curve" smooth="yes"/>
      <point x="291" y="373"/>
      <point x="296" y="372"/>
      <point x="314" y="366" type="curve"/>
    </contour>
    <contour>
      <point x="372" y="332" type="line"/>
      <point x="420" y="291"/>
      <point x="425" y="238"/>
      <point x="425" y="216" type="curve" smooth="yes"/>
      <point x="425" y="129"/>
      <point x="352" y="61"/>
      <point x="265" y="61" type="curve" smooth="yes"/>
      <point x="249" y="61"/>
      <point x="230" y="64"/>
      <point x="217" y="68" type="curve"/>
    </contour>
  </outline>
</glyph>
<glyph name="dotlessi" format="2">
	<unicode hex="0131"/>
	<advance width="531"/>
	<outline>
		<contour>
			<point x="316" y="388" type="line" smooth="yes"/>
			<point x="316" y="422"/>
			<point x="306" y="431"/>
			<point x="273" y="431" type="curve" smooth="yes"/>
			<point x="131" y="431" type="line" smooth="yes"/>
			<point x="116" y="431"/>
			<point x="87" y="431"/>
			<point x="87" y="398" type="curve" smooth="yes"/>
			<point x="87" y="365"/>
			<point x="117" y="365"/>
			<point x="131" y="365" type="curve" smooth="yes"/>
			<point x="240" y="365" type="line"/>
			<point x="240" y="66" type="line"/>
			<point x="123" y="66" type="line" smooth="yes"/>
			<point x="108" y="66"/>
			<point x="79" y="66"/>
			<point x="79" y="33" type="curve" smooth="yes"/>
			<point x="79" y="0"/>
			<point x="109" y="0"/>
			<point x="123" y="0" type="curve" smooth="yes"/>
			<point x="417" y="0" type="line" smooth="yes"/>
			<point x="431" y="0"/>
			<point x="461" y="0"/>
			<point x="461" y="33" type="curve" smooth="yes"/>
			<point x="461" y="66"/>
			<point x="431" y="66"/>
			<point x="417" y="66" type="curve" smooth="yes"/>
			<point x="316" y="66" type="line"/>
		</contour>
	</outline>
</glyph>
